<?xml version="1.0" encoding="UTF-8" standalone="no"?>
<!-- Creator: CorelDRAW -->

<svg
   xmlns:dc="http://purl.org/dc/elements/1.1/"
   xmlns:cc="http://creativecommons.org/ns#"
   xmlns:rdf="http://www.w3.org/1999/02/22-rdf-syntax-ns#"
   xmlns:svg="http://www.w3.org/2000/svg"
   xmlns="http://www.w3.org/2000/svg"
   xmlns:sodipodi="http://sodipodi.sourceforge.net/DTD/sodipodi-0.dtd"
   xmlns:inkscape="http://www.inkscape.org/namespaces/inkscape"
   xml:space="preserve"
   width="15.875mm"
   height="15.875mm"
   style="shape-rendering:geometricPrecision; text-rendering:geometricPrecision; image-rendering:optimizeQuality; fill-rule:evenodd; clip-rule:evenodd"
   viewBox="0 0 0.206194 0.206194"
   id="svg4653"
   version="1.1"
   inkscape:version="0.91 r"
   sodipodi:docname="nt_clear.svg"><metadata
     id="metadata4667"><rdf:RDF><cc:Work
         rdf:about=""><dc:format>image/svg+xml</dc:format><dc:type
           rdf:resource="http://purl.org/dc/dcmitype/StillImage" /><dc:title></dc:title></cc:Work></rdf:RDF></metadata><sodipodi:namedview
     pagecolor="#ffffff"
     bordercolor="#666666"
     borderopacity="1"
     objecttolerance="10"
     gridtolerance="10"
     guidetolerance="10"
     inkscape:pageopacity="0"
     inkscape:pageshadow="2"
     inkscape:window-width="1920"
     inkscape:window-height="1011"
     id="namedview4665"
     showgrid="false"
     inkscape:zoom="14.88"
     inkscape:cx="28.125"
     inkscape:cy="28.125"
     inkscape:window-x="0"
     inkscape:window-y="24"
     inkscape:window-maximized="1"
     inkscape:current-layer="svg4653" /><defs
     id="defs4655"><style
       type="text/css"
       id="style4657"><![CDATA[
    .fil0 {fill:none}
    .fil1 {fill:#26307A}
   ]]></style></defs><g
     id="Warstwa_x0020_1"><metadata
       id="CorelCorpID_0Corel-Layer" /><rect
       class="fil0"
       width="0.206194"
       height="0.206194"
       id="rect4661" /><path
       class="fil1"
       d="M0.148161 0.0486112l0.00177295 0.00678785c7.53339e-005,0.000281853 0.000248082,0.000490969 0.000509153,0.000626051l0.0062683 0.00314844c0.00031952,0.000161059 0.000515648,0.000457199 0.00053643,0.000818282 1.68852e-005,0.000357187 -0.00014807,0.000680603 -0.000450705,0.000868938l-0.00590722 0.00378358c-0.000240289,0.000161059 -0.000388359,0.000388359 -0.000436417,0.000676707l-0.00105468 0.00693462c-5.45522e-005,0.000357187 -0.000277956,0.000632545 -0.000618258,0.000759834 -0.000336405,0.000133783 -0.0006845,7.27362e-005 -0.000962456,-0.000154564l-0.00542664 -0.00443951c-0.000219507,-0.000192231 -0.000490969,-0.000257174 -0.000772822,-0.000213013l-0.00692163 0.00113391c-0.000357187,6.4943e-005 -0.000690994,-6.4943e-005 -0.000916996,-0.000346796 -0.000223404,-0.000277956 -0.000281853,-0.000635143 -0.000150668,-0.000972847l0.00254966 -0.00652548c0.000106507,-0.000267565 9.22191e-005,-0.000542924 -4.15635e-005,-0.000797501l-0.00322377 -0.00623453c-0.000168852,-0.000315623 -0.00014807,-0.000670212 4.80579e-005,-0.000972847 0.000196128,-0.000302635 0.000515648,-0.000463693 0.000879329,-0.000442912l0.00699696 0.000409141c0.000288347,1.42875e-005 0.00054682,-7.92305e-005 0.000749443,-0.000288347l0.00493437 -0.00498633c0.000248082,-0.000257174 0.000594878,-0.000357187 0.000945571,-0.000257174 0.00035329,7.92305e-005 0.00060397,0.000329911 0.000693592,0.0006845m-0.0569265 0.0262889c0.00352901,-0.000797501 0.00381865,-0.00582799 0.000394854,-0.00702424 -0.00442262,-0.00154694 -0.00909982,-0.00234315 -0.0137874,-0.00234315 -0.0229015,2.59772e-006 -0.0417649,0.0188595 -0.0417649,0.0417675 0,0.022908 0.0188634,0.0417584 0.0417675,0.0417584 0.0153369,0 0.0295855,-0.008553 0.036837,-0.0220871 0.00185867,-0.00313415 -0.0017119,-0.00686578 -0.00495256,-0.00504867 -0.00380436,0.00212753 -0.00807632,0.00322377 -0.0124301,0.00322377 -0.0209246,0 -0.0330157,-0.0247095 -0.0200453,-0.0412142 0.00351602,-0.00447198 0.0084374,-0.00767497 0.0139809,-0.00903228m-0.0175671 -0.00174177c0.000645534,-7.92305e-005 0.0012547,0.000248082 0.00153266,0.000845558 0.000275359,0.000590982 0.000140277,0.00127808 -0.000329911,0.00171839 -0.00121703,0.0011404 -0.00235354,0.00237432 -0.00338223,0.00368357 -0.0165748,0.0210831 -0.000985835,0.0530052 0.0256746,0.0530909 0.000655925,6.4943e-006 0.00121703,0.000409141 0.00141186,0.00103389 0.000194829,0.000624752 -1.68852e-005,0.00127548 -0.00054682,0.00165605 -0.00586306,0.00423039 -0.0129561,0.00653587 -0.020183,0.00653587 -0.0188802,0 -0.0344237,-0.0155435 -0.0344237,-0.0344276 1.29886e-006,-0.0173463 0.0130873,-0.0319442 0.0302466,-0.0341367m0.0211312 -0.0385619l0.00393815 0.00397971c0.000164955,0.000168852 0.000363681,0.000248082 0.000601373,0.000229898l0.0055916 -0.000326014c0.000288347,-2.07818e-005 0.00053643,0.000113001 0.000693592,0.000357187 0.000157162,0.000244186 0.00017145,0.000522142 3.7667e-005,0.000780615l-0.00257045 0.00497204c-0.00010261,0.000202622 -0.000120794,0.00042213 -3.37704e-005,0.00063904l0.00204181 0.00521623c0.000100012,0.000267565 6.23453e-005,0.000549418 -0.000120794,0.000776719 -0.000183139,0.000227301 -0.000450705,0.000326014 -0.000732558,0.000277956l-0.00552276 -0.000914398c-0.000227301,-3.7667e-005 -0.000440314,2.07818e-005 -0.000618258,0.000168852l-0.0043304 0.00354979c-0.000223404,0.000181841 -0.00050136,0.000227301 -0.000776719,0.000116897 -0.000267565,-9.61157e-005 -0.000446808,-0.00031952 -0.000494866,-0.000601373l-0.000839064 -0.00553575c-3.37704e-005,-0.000227301 -0.000154564,-0.000409141 -0.000350692,-0.00053643l-0.00471097 -0.00302115c-0.000240289,-0.000154564 -0.000371474,-0.000409141 -0.000357187,-0.000697488 1.68852e-005,-0.000288347 0.00017145,-0.000519544 0.000429923,-0.00064943l0.00500321 -0.0025081c0.000206519,-0.000106507 0.000344198,-0.000275359 0.000402647,-0.00050136l0.00141576 -0.00540976c7.27362e-005,-0.000281853 0.000275359,-0.000484475 0.000549418,-0.000557211 0.000285749,-8.83225e-005 0.000557211,-9.09203e-006 0.000753339,0.00019353m0.0132783 0.0401387l0.00393425 0.00398361c0.000161059,0.000164955 0.000367578,0.000244186 0.000597476,0.000229898l0.0055877 -0.000329911c0.000288347,-2.07818e-005 0.000542924,0.000113001 0.000701385,0.000357187 0.000154564,0.000233795 0.000168852,0.000522142 3.37704e-005,0.000780615l-0.00257045 0.00497594c-0.000106507,0.000198726 -0.000113001,0.000419532 -3.37704e-005,0.000635143l0.00203791 0.00522012c0.000106507,0.000264968 6.4943e-005,0.00054682 -0.000116897,0.000770225 -0.000185737,0.000219507 -0.000450705,0.000329911 -0.000732558,0.000281853l-0.00552276 -0.000914398c-0.000229898,-3.37704e-005 -0.000442912,2.46784e-005 -0.000618258,0.000168852l-0.004333 0.00354979c-0.000223404,0.000181841 -0.000505257,0.000227301 -0.000770225,0.000120794 -0.000267565,-9.61157e-005 -0.000450705,-0.000323416 -0.000490969,-0.000611763l-0.000845558 -0.00552925c-3.37704e-005,-0.000227301 -0.000154564,-0.000405245 -0.000346796,-0.000532533l-0.00471876 -0.00302115c-0.000237692,-0.000158461 -0.000363681,-0.000409141 -0.000354589,-0.000697488 9.09203e-006,-0.000288347 0.000168852,-0.000526039 0.00042213,-0.000653327l0.00500711 -0.002512c0.000209117,-0.00010261 0.000346796,-0.000267565 0.000402647,-0.00050136l0.00141186 -0.00541625c7.53339e-005,-0.000275359 0.000275359,-0.000480579 0.000553315,-0.000549418 0.000284451,-8.70237e-005 0.000559809,-7.79317e-006 0.000765029,0.000194829m0.0351732 0.0259733l0.00141576 0.00541625c5.84487e-005,0.000227301 0.000196128,0.000394854 0.00039875,0.00050136l0.00500711 0.0025081c0.000261071,0.000127288 0.000415635,0.000367578 0.000429923,0.00064943 1.42875e-005,0.000288347 -0.000113001,0.000542924 -0.000357187,0.000697488l-0.00471097 0.00302115c-0.000196128,0.000127288 -0.000315623,0.000309129 -0.000350692,0.00053643l-0.000841662 0.00553575c-4.80579e-005,0.000281853 -0.000219507,0.00050136 -0.000490969,0.000605269 -0.000267565,0.000106507 -0.000549418,6.4943e-005 -0.000776719,-0.000120794l-0.00432651 -0.00354719c-0.000181841,-0.000150668 -0.000392256,-0.000206519 -0.000626051,-0.00017145l-0.00551886 0.000914398c-0.000281853,4.80579e-005 -0.000549418,-5.45522e-005 -0.000732558,-0.000281853 -0.000185737,-0.000219507 -0.000223404,-0.00050136 -0.000120794,-0.000772822l0.00204181 -0.00521623c8.31271e-005,-0.000213013 7.27362e-005,-0.000429923 -3.37704e-005,-0.00063904l-0.00257434 -0.00497334c-0.000131185,-0.000254577 -0.000116897,-0.00053643 4.15635e-005,-0.000780615 0.000154564,-0.000240289 0.000409141,-0.000367578 0.000693592,-0.000357187l0.0055916 0.000333807c0.000229898,1.42875e-005 0.000436417,-6.88396e-005 0.000601373,-0.000227301l0.00393425 -0.0039862c0.000202622,-0.000202622 0.000477981,-0.000275359 0.00075204,-0.000202622 0.000279255,8.05294e-005 0.000484475,0.000283152 0.000553315,0.000557211z"
       id="path4663" /></g></svg>