<?xml version="1.0" encoding="UTF-8" standalone="no"?>
<!-- Generator: Adobe Illustrator 18.1.1, SVG Export Plug-In . SVG Version: 6.00 Build 0)  -->

<svg
   xmlns:dc="http://purl.org/dc/elements/1.1/"
   xmlns:cc="http://creativecommons.org/ns#"
   xmlns:rdf="http://www.w3.org/1999/02/22-rdf-syntax-ns#"
   xmlns:svg="http://www.w3.org/2000/svg"
   xmlns="http://www.w3.org/2000/svg"
   xmlns:sodipodi="http://sodipodi.sourceforge.net/DTD/sodipodi-0.dtd"
   xmlns:inkscape="http://www.inkscape.org/namespaces/inkscape"
   version="1.1"
   id="Capa_1"
   x="0px"
   y="0px"
   viewBox="0 0 28 28"
   style="enable-background:new 0 0 28 28;"
   xml:space="preserve"
   inkscape:version="0.91 r"
   sodipodi:docname="pressure.svg"><metadata
     id="metadata47"><rdf:RDF><cc:Work
         rdf:about=""><dc:format>image/svg+xml</dc:format><dc:type
           rdf:resource="http://purl.org/dc/dcmitype/StillImage" /></cc:Work></rdf:RDF></metadata><defs
     id="defs45" /><sodipodi:namedview
     pagecolor="#ffffff"
     bordercolor="#666666"
     borderopacity="1"
     objecttolerance="10"
     gridtolerance="10"
     guidetolerance="10"
     inkscape:pageopacity="0"
     inkscape:pageshadow="2"
     inkscape:window-width="1920"
     inkscape:window-height="1011"
     id="namedview43"
     showgrid="false"
     inkscape:zoom="8.4285714"
     inkscape:cx="14"
     inkscape:cy="14"
     inkscape:window-x="0"
     inkscape:window-y="24"
     inkscape:window-maximized="1"
     inkscape:current-layer="Capa_1" /><g
     id="g3"
     style="fill:#ffffff"><g
       id="g5"
       style="fill:#ffffff"><path
         style="fill:#ffffff"
         d="M15.391,19.341L14,11l-1.39,8.341C11.653,19.842,11,20.845,11,22c0,1.657,1.343,3,3,3s3-1.343,3-3    C17,20.845,16.348,19.842,15.391,19.341z"
         id="path7" /><path
         style="fill:#ffffff"
         d="M14,3C6.268,3,0,9.268,0,17c0,2.059,0.444,4.014,1.242,5.773c0.544-0.312,1.147-0.605,1.8-0.875    C2.372,20.402,2,18.745,2,17C2,10.373,7.373,5,14,5s12,5.373,12,12c0,1.745-0.372,3.402-1.042,4.898    c0.653,0.27,1.256,0.562,1.8,0.875C27.557,21.014,28,19.059,28,17C28,9.268,21.732,3,14,3z"
         id="path9" /><path
         style="fill:#ffffff"
         d="M3.828,21.377l-0.617-1.901l3.805-1.235l0.617,1.902L3.828,21.377z M9.063,11.929l-2.35-3.236    l1.62-1.176l2.35,3.237L9.063,11.929z M13,6h2v4h-2V6z M7.015,15.801l-3.804-1.236l0.619-1.902l3.804,1.236L7.015,15.801z     M20.983,15.8l-0.617-1.902l3.806-1.235l0.617,1.901L20.983,15.8z M17.316,10.753l2.352-3.235l1.619,1.176l-2.351,3.236    L17.316,10.753z M24.172,21.377l-3.805-1.235l0.617-1.901l3.805,1.235L24.172,21.377z"
         id="path11" /></g></g><g
     id="g13" /><g
     id="g15" /><g
     id="g17" /><g
     id="g19" /><g
     id="g21" /><g
     id="g23" /><g
     id="g25" /><g
     id="g27" /><g
     id="g29" /><g
     id="g31" /><g
     id="g33" /><g
     id="g35" /><g
     id="g37" /><g
     id="g39" /><g
     id="g41" /></svg>