<?xml version="1.0" encoding="UTF-8" standalone="no"?>
<!-- Creator: CorelDRAW -->

<svg
   xmlns:dc="http://purl.org/dc/elements/1.1/"
   xmlns:cc="http://creativecommons.org/ns#"
   xmlns:rdf="http://www.w3.org/1999/02/22-rdf-syntax-ns#"
   xmlns:svg="http://www.w3.org/2000/svg"
   xmlns="http://www.w3.org/2000/svg"
   xmlns:sodipodi="http://sodipodi.sourceforge.net/DTD/sodipodi-0.dtd"
   xmlns:inkscape="http://www.inkscape.org/namespaces/inkscape"
   xml:space="preserve"
   width="15.875mm"
   height="15.875mm"
   style="shape-rendering:geometricPrecision; text-rendering:geometricPrecision; image-rendering:optimizeQuality; fill-rule:evenodd; clip-rule:evenodd"
   viewBox="0 0 3.54401 3.54401"
   id="svg3397"
   version="1.1"
   inkscape:version="0.91 r"
   sodipodi:docname="chancerain.svg"><metadata
     id="metadata3437"><rdf:RDF><cc:Work
         rdf:about=""><dc:format>image/svg+xml</dc:format><dc:type
           rdf:resource="http://purl.org/dc/dcmitype/StillImage" /><dc:title></dc:title></cc:Work></rdf:RDF></metadata><sodipodi:namedview
     pagecolor="#ffffff"
     bordercolor="#666666"
     borderopacity="1"
     objecttolerance="10"
     gridtolerance="10"
     guidetolerance="10"
     inkscape:pageopacity="0"
     inkscape:pageshadow="2"
     inkscape:window-width="1920"
     inkscape:window-height="1011"
     id="namedview3435"
     showgrid="false"
     inkscape:zoom="14.88"
     inkscape:cx="28.125"
     inkscape:cy="28.125"
     inkscape:window-x="0"
     inkscape:window-y="24"
     inkscape:window-maximized="1"
     inkscape:current-layer="svg3397" /><defs
     id="defs3399"><style
       type="text/css"
       id="style3401"><![CDATA[
    .fil0 {fill:none}
    .fil2 {fill:#0076B6}
    .fil4 {fill:#01A6D9}
    .fil3 {fill:#EDA43A}
    .fil1 {fill:white}
   ]]></style></defs><g
     id="Warstwa_x0020_1"><metadata
       id="CorelCorpID_0Corel-Layer" /><rect
       class="fil0"
       width="3.54401"
       height="3.54401"
       id="rect3405" /><path
       class="fil1"
       d="M1.07615 2.27703c-0.139349,0 -0.252757,-0.113475 -0.252757,-0.252869 0,-0.138746 0.11477,-0.251619 0.256106,-0.251619 0.0652097,0 0.127227,0.0260973 0.174778,0.0735367 0.0476627,0.0480199 0.0738269,0.11122 0.0738269,0.178082 0.00613922,-0.0694067 -0.0205608,-0.134438 -0.0689825,-0.183038 -0.0302496,-0.029245 -0.0652097,-0.0504532 -0.103362,-0.0623745 -0.0220342,-0.00839399 -0.0366791,-0.0239765 -0.0428183,-0.0437782 -0.00631782,-0.023396 -0.000357191,-0.0466581 0.0148904,-0.0627317 0.0685137,-0.0762603 0.167165,-0.120507 0.269813,-0.120507 0.142698,0 0.272604,0.084632 0.331071,0.215542 0.00692058,0.0134616 0.00808145,0.0311872 0.0021878,0.0480199 -0.0078582,0.0187749 -0.019266,0.0304729 -0.0352056,0.037572 -0.0290664,0.0131714 -0.0556995,0.0323035 -0.0769747,0.0552976l0.000133947 -2.23244e-005c0.000357191,0 0.00520159,0.00377283 0.00555879,0.00377283l0 0c0.041769,-0.0451847 0.100348,-0.0710587 0.160848,-0.0710587 0.00908605,0 0.0182614,0.000580435 0.0274591,0.00176363 0.108564,0.0127026 0.19103,0.105438 0.19103,0.215766 0,0.120507 -0.0976918,0.218489 -0.217842,0.218489l-0.709761 2.23244e-005 0 0.000133947z"
       id="path3407" /><path
       class="fil2"
       d="M0.772604 2.01996c0,0.165379 0.136157,0.301603 0.301469,0.301603l0.702907 0c0.146716,0 0.266866,-0.119905 0.266866,-0.267581 0,-0.140108 -0.109278,-0.256061 -0.247556,-0.266264 -0.0078582,-0.000535787 -0.0146448,-0.00524624 -0.0169443,-0.0129928 -0.0575971,-0.162187 -0.213757,-0.273832 -0.386838,-0.273832 -0.149016,0 -0.288432,0.0832255 -0.359959,0.213824 -0.00290218,0.00524624 -0.00761263,0.00857259 -0.0131714,0.00915302 -0.141403,0.0264545 -0.246774,0.151605 -0.246774,0.296089m0.0961067 0c0,-0.175314 0.219315,-0.275126 0.349913,-0.144484 0.0369246,0.0371032 0.0601197,0.0884271 0.0601197,0.144484 0,0.0269903 0.0213198,0.0485557 0.048444,0.0485557 0.0260526,0 0.0474394,-0.0215654 0.0474394,-0.0485557 0,-0.0828683 -0.0329062,-0.158236 -0.0874225,-0.212931 -0.0339108,-0.0329509 -0.0745413,-0.0586017 -0.120909,-0.0729563 -0.0060276,-0.00236639 -0.0107604,-0.00709917 -0.0129259,-0.0139974 -0.00147341,-0.005849 0,-0.0128812 0.00459884,-0.0176586 0.0591821,-0.0657455 0.144528,-0.105193 0.234563,-0.105193 0.123811,0 0.236862,0.0747199 0.286891,0.186766 0.00229942,0.00477743 0.00229942,0.00997903 0.000714382,0.0147118 -0.00229942,0.00538019 -0.00555879,0.00839399 -0.0107604,0.0106934 -0.0337769,0.0153592 -0.0653883,0.0376837 -0.0909051,0.0653213 -0.0176586,0.0194223 -0.0160066,0.0502077 0.00390678,0.0676877 0.019266,0.0175917 0.050096,0.016721 0.0676877,-0.0030138 0.0376167,-0.0407644 0.0929813,-0.0617271 0.147542,-0.0545163 0.0838729,0.00975578 0.150087,0.0821539 0.150087,0.169108 0,0.0945663 -0.0769747,0.171362 -0.17076,0.171362l-0.702907 0c-0.112113,4.46489e-005 -0.205318,-0.0924009 -0.205318,-0.205385z"
       id="path3409" /><path
       class="fil1"
       d="M2.55706 1.78073c0.139349,0 0.252757,-0.113408 0.252757,-0.252869 0,-0.138746 -0.114882,-0.251619 -0.256106,-0.251619 -0.0652767,0 -0.127339,0.0260973 -0.174778,0.0736483 -0.0477743,0.0479529 -0.0739609,0.111109 -0.0739609,0.17797 -0.00613922,-0.0694067 0.0206724,-0.134326 0.0689825,-0.183038 0.0302496,-0.029245 0.0652767,-0.0504532 0.103496,-0.0623745 0.0220342,-0.00839399 0.0365674,-0.0239765 0.0428183,-0.0437782 0.00620619,-0.023396 0.000357191,-0.0466134 -0.0148904,-0.0627317 -0.0685137,-0.0762603 -0.167165,-0.120507 -0.269925,-0.120507 -0.142698,0 -0.272604,0.0846989 -0.331071,0.215587 -0.00678663,0.0134616 -0.00796983,0.0311872 -0.0021878,0.0479529 0.0078582,0.0187749 0.0193776,0.0304282 0.0353173,0.037572 0.0290664,0.0131714 0.0556995,0.0323035 0.0768407,0.0552976l0 0c-0.000357191,0 -0.00520159,0.00377283 -0.00555879,0.00377283l0 0c-0.041769,-0.0451847 -0.100348,-0.0710587 -0.160959,-0.0710587 -0.00908605,0 -0.0182614,0.000580435 -0.0274591,0.00176363 -0.108564,0.0127026 -0.190896,0.105438 -0.190896,0.215833 0,0.12044 0.0975801,0.218422 0.21773,0.218422l0.70985 4.46489e-005 0 0.000111622z"
       id="path3411" /><path
       class="fil2"
       d="M2.86061 1.52373c0,-0.144484 -0.105327,-0.269702 -0.246774,-0.295977 -0.00555879,-0.000759031 -0.0102692,-0.00395143 -0.0131714,-0.00926464 -0.0716391,-0.130598 -0.210877,-0.213757 -0.360071,-0.213757 -0.172947,0 -0.329129,0.111645 -0.386838,0.273832 -0.0021878,0.00774658 -0.00908605,0.012524 -0.0169443,0.0129928 -0.138211,0.0102246 -0.247422,0.126178 -0.247422,0.266264 0,0.147676 0.119972,0.267581 0.266755,0.267581l0.702863 0c0.165335,-6.69733e-005 0.301603,-0.136268 0.301603,-0.30167m-0.0961067 0c0,0.112984 -0.0933162,0.20543 -0.205496,0.20543l-0.702885 2.23244e-005c-0.0938073,0 -0.170648,-0.0768407 -0.170648,-0.171362 0,-0.0869984 0.0661027,-0.159307 0.150087,-0.169041 0.0544493,-0.00721079 0.109814,0.0135956 0.147542,0.0544493 0.0176586,0.0198464 0.048444,0.0205608 0.0676207,0.00294683 0.020092,-0.0174354 0.0215654,-0.0481985 0.00390678,-0.0676877 -0.0255168,-0.0276377 -0.0571282,-0.0500291 -0.0907935,-0.0653213 -0.00531322,-0.00229942 -0.00843864,-0.00531322 -0.0107604,-0.0106934 -0.00158504,-0.00477743 -0.00158504,-0.00993438 0.000714382,-0.0146448 0.050096,-0.112113 0.163035,-0.186833 0.28678,-0.186833 0.0900791,0 0.175492,0.0394026 0.234675,0.10526 0.00448721,0.00473278 0.00613922,0.011765 0.00448721,0.0175917 -0.0021878,0.00692058 -0.00678663,0.011631 -0.0129259,0.0139974 -0.0462562,0.0144216 -0.0868867,0.04005 -0.120909,0.0729563 -0.0544493,0.0547619 -0.0874225,0.130062 -0.0874225,0.212931 0,0.0269456 0.0213198,0.0485557 0.0475511,0.0485557 0.0269903,0 0.048444,-0.0216101 0.048444,-0.0485557 0,-0.0560567 0.0231058,-0.107381 0.0600081,-0.144484 0.130598,-0.13071 0.350025,-0.0308301 0.350025,0.144484z"
       id="path3413" /><path
       class="fil3"
       d="M1.48112 0.827746c-0.224986,0 -0.4101,0.185181 -0.4101,0.409988 0,0.0783141 0.022503,0.151985 0.0612583,0.214471 0.00241104,0.00377283 0.00508997,0.00738939 0.00714382,0.0112738 0.0442917,0.0788053 0.169465,0.0288209 0.109926,-0.0589589 -0.00366121,-0.00538019 -0.00738939,-0.0106934 -0.010872,-0.0161182 -0.0274591,-0.0438229 -0.0433541,-0.0955709 -0.0433541,-0.15069 0,-0.156829 0.129125,-0.285998 0.285998,-0.285998 0.0899675,0 0.170871,0.0426397 0.223334,0.108452 0.00194223,0.00236639 0.00377283,0.00473278 0.00555879,0.00721079 0.0602983,0.0833371 0.163906,0.00430862 0.098875,-0.0751887 -0.0791625,-0.0963969 -0.194691,-0.164442 -0.327767,-0.164442z"
       id="path3415" /><path
       class="fil3"
       d="M1.50498 0.550565l0.0592937 0.192213c0.00254499,0.00839399 0.000826004,0.016721 -0.00473278,0.0234407 -0.00567041,0.00667501 -0.0135956,0.00980043 -0.0222575,0.00868421 -0.0372818,-0.00437559 -0.0751887,-0.00437559 -0.112471,0 -0.00861723,0.00111622 -0.0165871,-0.0020092 -0.0222575,-0.00868421 -0.00555879,-0.00674198 -0.00725544,-0.0151136 -0.00473278,-0.0234407l0.0592937 -0.192213c0.00337099,-0.0106934 0.0128142,-0.0176586 0.0239765,-0.0176586 0.0110506,-2.23244e-005 0.0205162,0.00696523 0.0238872,0.0176586z"
       id="path3417" /><path
       class="fil3"
       d="M1.15808 0.63071l0.147431 0.13667c0.00642944,0.0060276 0.00908605,0.0140644 0.00761263,0.0227486 -0.00147341,0.00861723 -0.00678663,0.0152476 -0.0147565,0.0186632 -0.0346029,0.0148904 -0.0673975,0.0336653 -0.0974685,0.0562799 -0.00692058,0.00520159 -0.0154708,0.00649641 -0.0236193,0.00348261 -0.00821539,-0.0030138 -0.0138188,-0.00944324 -0.015828,-0.0179042l-0.0447828 -0.196165c-0.00254499,-0.0109167 0.0021878,-0.0216101 0.0118766,-0.0272805 0.00968881,-0.00546949 0.0213198,-0.00406305 0.0295352,0.00350494z"
       id="path3419" /><path
       class="fil3"
       d="M0.897822 0.873466l0.196098 0.0447828c0.00843864,0.00194223 0.0148904,0.00761263 0.0179042,0.015828 0.0030138,0.00821539 0.00171898,0.016721 -0.00348261,0.0236193 -0.0226147,0.030071 -0.0415235,0.0628433 -0.0562799,0.0974685 -0.00348261,0.0080368 -0.0101576,0.013283 -0.0186632,0.0147565 -0.00861723,0.00154039 -0.016721,-0.0011832 -0.0226147,-0.00761263l-0.136916 -0.147364c-0.00761263,-0.00826004 -0.0088628,-0.0199134 -0.00337099,-0.0296022 0.00558111,-0.00968881 0.0163415,-0.0143993 0.0273251,-0.0118766z"
       id="path3421" /><path
       class="fil3"
       d="M0.793746 1.21394c-0.0107604,0.00337099 -0.0177703,0.0127696 -0.0177703,0.0239318 0.000111622,0.0110952 0.0070322,0.0206724 0.0177703,0.0239318l0.192213 0.0591821c0.00843864,0.00258964 0.016721,0.000937627 0.023396,-0.00473278 0.00667501,-0.00549181 0.00993438,-0.0134616 0.0088628,-0.0221458 -0.00459884,-0.0372818 -0.00448721,-0.0751887 0,-0.112515 0.00107157,-0.00861723 -0.0021878,-0.0165424 -0.0088628,-0.0222128 -0.00667501,-0.00567041 -0.015002,-0.00725544 -0.023396,-0.00473278l-0.192213 0.0592937z"
       id="path3423" /><path
       class="fil3"
       d="M0.873779 1.56077c-0.00761263,0.00826004 -0.0088628,0.020025 -0.00337099,0.0296022 0.00567041,0.00962183 0.0163638,0.0143546 0.0273474,0.0118766l0.196098 -0.0448945c0.00843864,-0.00189758 0.0148904,-0.00750101 0.0179042,-0.0157611 0.0030138,-0.00814842 0.00171898,-0.016654 -0.00348261,-0.0236862 -0.0226147,-0.0299371 -0.0415235,-0.0627987 -0.0562799,-0.0973346 -0.00348261,-0.00808145 -0.0101576,-0.01335 -0.0186632,-0.0148234 -0.00861723,-0.00142876 -0.016721,0.00125017 -0.0226147,0.00767961l-0.136938 0.147341z"
       id="path3425" /><path
       class="fil3"
       d="M2.08825 0.914878l-0.136804 0.147431c-0.0060276,0.00642944 -0.0140644,0.00915302 -0.0227486,0.00761263 -0.00857259,-0.00147341 -0.0153592,-0.00674198 -0.0186632,-0.0147565 -0.0147565,-0.0346029 -0.0336653,-0.0674645 -0.0562799,-0.0974685 -0.00520159,-0.00692058 -0.00642944,-0.0154708 -0.00348261,-0.0236193 0.00294683,-0.00814842 0.00933162,-0.0138188 0.0179042,-0.015828l0.196098 -0.0447828c0.0109836,-0.00254499 0.021677,0.0021878 0.0273474,0.0118766 0.00549181,0.00968881 0.00413002,0.0213198 -0.00337099,0.0295352z"
       id="path3427" /><path
       class="fil3"
       d="M1.84543 0.654508l-0.0447828 0.19621c-0.00194223,0.00843864 -0.00761263,0.0148904 -0.015828,0.0179042 -0.00821539,0.00308077 -0.016721,0.00171898 -0.0236193,-0.00348261 -0.0301157,-0.0226147 -0.0628433,-0.0414118 -0.0974685,-0.0562799 -0.00808145,-0.00348261 -0.013283,-0.0100906 -0.0148904,-0.0186632 -0.00136179,-0.00861723 0.00125017,-0.016721 0.00774658,-0.0227486l0.147431 -0.136804c0.00821539,-0.00761263 0.0198464,-0.0088628 0.0295352,-0.00337099 0.00964416,0.00569273 0.0143546,0.0163638 0.0118766,0.0272358z"
       id="path3429" /><path
       class="fil4"
       d="M1.48062 2.84648c0.0153592,0.02257 0.0394473,0.0363888 0.0665715,0.038398 0.0529313,0.00408537 0.0969327,-0.0396259 0.0952807,-0.0929813l0 -6.69733e-005 -0.0018306 -0.135442c-0.000111622,-0.00442024 -0.00495603,-0.00709917 -0.00861723,-0.00513462l-0.118498 0.0662143c-0.000111622,0 -0.000111622,0 -0.000111622,0 -0.0469037,0.0253606 -0.0627987,0.0851901 -0.0327946,0.129013z"
       id="path3431" /><path
       class="fil4"
       d="M1.24414 2.64353c0.0209627,0.0307631 0.0537573,0.0496272 0.0909051,0.0525071 0.0721303,0.00555879 0.132317,-0.0541144 0.130241,-0.12687l0 -0.000111622 -0.00265661 -0.185047c-0.000111622,-0.0060276 -0.00667501,-0.00993438 -0.0118766,-0.00678663l-0.161718 0.0901907 -0.000133947 -2.23244e-005c-0.0641381,0.0345582 -0.0856366,0.116243 -0.0447605,0.17614z"
       id="path3433" /></g></svg>