<?xml version="1.0" encoding="UTF-8" standalone="no"?>
<!-- Creator: CorelDRAW -->

<svg
   xmlns:dc="http://purl.org/dc/elements/1.1/"
   xmlns:cc="http://creativecommons.org/ns#"
   xmlns:rdf="http://www.w3.org/1999/02/22-rdf-syntax-ns#"
   xmlns:svg="http://www.w3.org/2000/svg"
   xmlns="http://www.w3.org/2000/svg"
   xmlns:sodipodi="http://sodipodi.sourceforge.net/DTD/sodipodi-0.dtd"
   xmlns:inkscape="http://www.inkscape.org/namespaces/inkscape"
   xml:space="preserve"
   width="15.875mm"
   height="15.875mm"
   style="shape-rendering:geometricPrecision; text-rendering:geometricPrecision; image-rendering:optimizeQuality; fill-rule:evenodd; clip-rule:evenodd"
   viewBox="0 0 1.34045 1.34045"
   id="svg4313"
   version="1.1"
   inkscape:version="0.91 r"
   sodipodi:docname="mostlysunny.svg"><metadata
     id="metadata4359"><rdf:RDF><cc:Work
         rdf:about=""><dc:format>image/svg+xml</dc:format><dc:type
           rdf:resource="http://purl.org/dc/dcmitype/StillImage" /><dc:title></dc:title></cc:Work></rdf:RDF></metadata><sodipodi:namedview
     pagecolor="#ffffff"
     bordercolor="#666666"
     borderopacity="1"
     objecttolerance="10"
     gridtolerance="10"
     guidetolerance="10"
     inkscape:pageopacity="0"
     inkscape:pageshadow="2"
     inkscape:window-width="1920"
     inkscape:window-height="1011"
     id="namedview4357"
     showgrid="false"
     inkscape:zoom="14.88"
     inkscape:cx="28.125"
     inkscape:cy="28.125"
     inkscape:window-x="0"
     inkscape:window-y="24"
     inkscape:window-maximized="1"
     inkscape:current-layer="svg4313" /><defs
     id="defs4315"><style
       type="text/css"
       id="style4317"><![CDATA[
    .fil0 {fill:none}
    .fil3 {fill:#0076B6}
    .fil1 {fill:#EDA43A}
    .fil2 {fill:white}
   ]]></style></defs><g
     id="Warstwa_x0020_1"><metadata
       id="CorelCorpID_0Corel-Layer" /><rect
       class="fil0"
       width="1.34045"
       height="1.34045"
       id="rect4321" /><path
       class="fil1"
       d="M0.43911 0.529873c0.00303976,0.0032593 0.00715188,0.00464408 0.0115511,0.00388414 0.00439921,-0.00075994 0.00784427,-0.00346195 0.00958369,-0.00757407 0.00754874,-0.0176728 0.0171831,-0.0343831 0.0286835,-0.0497339 0.00265979,-0.0035295 0.00330996,-0.00791182 0.00176475,-0.0120662 -0.00149455,-0.00419656 -0.00477918,-0.007059 -0.00913617,-0.00806381l-0.100067 -0.0228573c-0.00553912,-0.00127501 -0.0110614,0.00116524 -0.0139154,0.00605419 -0.00283711,0.00498183 -0.00217005,0.0109009 0.00172253,0.0151059l0.0698132 0.075251z"
       id="path4323" /><path
       class="fil1"
       d="M0.650391 0.383255c0.0190323,-0.00232204 0.0383854,-0.00232204 0.0574177,0 0.00439921,0.000515071 0.00844378,-0.00109769 0.0113231,-0.00449209 0.00283711,-0.0033944 0.00370682,-0.00768384 0.00238959,-0.0119057l-0.0302287 -0.0981252c-0.00167187,-0.00545468 -0.00652704,-0.00900107 -0.0122182,-0.00900107 -0.00569111,0 -0.0105463,0.00355483 -0.0122013,0.00900107l-0.0302456 0.0980745c-0.0012919,0.00426411 -0.00044752,0.00855355 0.00241492,0.0119564 0.00286244,0.00340284 0.0069239,0.00500716 0.0113484,0.00449209z"
       id="path4325" /><path
       class="fil1"
       d="M0.516033 0.42186c0.00100481,0.00433166 0.00388414,0.0075994 0.00804692,0.0091615 0.00419656,0.00151988 0.008486,0.000895041 0.0120831,-0.00179008 0.0153508,-0.0115258 0.0320779,-0.0211601 0.0497085,-0.0287342 0.00411212,-0.00172253 0.00681413,-0.00514226 0.00757407,-0.00954147 0.000734609,-0.00439921 -0.00062484,-0.00851133 -0.00388414,-0.0115511l-0.0752256 -0.0698385c-0.00419656,-0.00388414 -0.0101663,-0.00453431 -0.0151059,-0.0016972 -0.00493961,0.00286244 -0.0073292,0.00837623 -0.00605419,0.0139154l0.0228573 0.100076z"
       id="path4327" /><path
       class="fil1"
       d="M0.6791 0.410199c-0.114785,0 -0.209245,0.0944775 -0.209245,0.209203 0,0.114768 0.0944775,0.20922 0.209245,0.20922 0.114743,0 0.209203,-0.0944775 0.209203,-0.20922 -8.44378e-006,-0.114751 -0.0944606,-0.209203 -0.209203,-0.209203zm0 0.355103c-0.0800217,0 -0.145909,-0.0658868 -0.145909,-0.145909 0,-0.0800048 0.0658615,-0.145909 0.145909,-0.145909 0.0800048,0 0.145883,0.0659037 0.145883,0.145909 0,0.0800302 -0.0658868,0.145909 -0.145883,0.145909z"
       id="path4329" /><path
       class="fil1"
       d="M0.897945 0.526191c0.00173942,0.00411212 0.00515915,0.00681413 0.00958369,0.00757407 0.00438232,0.00075994 0.00851133,-0.00062484 0.0115511,-0.00388414l0.0698132 -0.0752425c0.00388414,-0.00419656 0.00455964,-0.0101241 0.0016972,-0.0150806 -0.00283711,-0.00493961 -0.00835934,-0.00734609 -0.0138985,-0.00607952l-0.100067 0.0228573c-0.00433166,0.000979479 -0.0075994,0.00388414 -0.00913617,0.00806381 -0.00151988,0.00415434 -0.000895041,0.00853666 0.00176475,0.0120662 0.011492,0.0153001 0.0211432,0.0320526 0.028692,0.0497254z"
       id="path4331" /><path
       class="fil1"
       d="M0.772277 0.400497c0.0176728,0.00757407 0.0343831,0.0172253 0.0497508,0.0287342 0.00357172,0.00268512 0.00791182,0.00330996 0.0120662,0.00179008 0.00417967,-0.0015621 0.00703367,-0.00482984 0.00804692,-0.0091615l0.0228573 -0.100084c0.00127501,-0.00553912 -0.00113991,-0.0110107 -0.00605419,-0.0138731 -0.00493961,-0.00283711 -0.010884,-0.00218694 -0.0151059,0.0016972l-0.0752256 0.0698385c-0.0032593,0.00303976 -0.00466941,0.00712655 -0.00388414,0.0115511 0.000785272,0.00437388 0.00346195,0.00779361 0.00754874,0.0095077z"
       id="path4333" /><path
       class="fil1"
       d="M0.919063 0.70894c-0.00303976,-0.0032593 -0.00715188,-0.00462719 -0.0115511,-0.00386725 -0.00439921,0.000717721 -0.00784427,0.00343662 -0.00958369,0.00753185 -0.00754874,0.0176728 -0.0172,0.0343831 -0.0287089,0.0497508 -0.00265979,0.0035295 -0.00328463,0.00791182 -0.00176475,0.0120831 0.00154521,0.00417967 0.00482984,0.00703367 0.00913617,0.00804692l0.100067 0.022832c0.00553912,0.00127501 0.011036,-0.00113991 0.0138985,-0.00605419 0.00286244,-0.00500716 0.00218694,-0.0109009 -0.00165498,-0.0151228l-0.0698385 -0.0752003z"
       id="path4335" /><path
       class="fil1"
       d="M1.02976 0.607175l-0.0980745 -0.0302287c-0.00426411,-0.00134256 -0.00853666,-0.000472852 -0.0119733,0.00236426 -0.0033944,0.00287933 -0.00502405,0.00694923 -0.00449209,0.0113738 0.00232204,0.0190576 0.00232204,0.0383601 0,0.0573924 -0.000515071,0.00444987 0.00109769,0.00846911 0.00449209,0.0113484 0.0033944,0.00283711 0.00770917,0.00370682 0.0119564,0.00238959l0.0980998 -0.0302456c0.00545468,-0.00167187 0.0090264,-0.00650171 0.0090264,-0.0122182 8.44378e-006,-0.00564889 -0.00358861,-0.0105041 -0.00903485,-0.0121759z"
       id="path4337" /><path
       class="fil1"
       d="M0.328412 0.607201c-0.00545468,0.00167187 -0.0090264,0.00650171 -0.0090264,0.0122435 0,0.00567422 0.00359705,0.0105041 0.0090264,0.0122182l0.0980745 0.0302034c0.00426411,0.00131723 0.00853666,0.00044752 0.0119564,-0.00238959 0.00341973,-0.00287933 0.00507471,-0.00690701 0.00450898,-0.0113484 -0.00230515,-0.0190576 -0.00230515,-0.0383601 0,-0.0573924 0.000540402,-0.00442454 -0.00109769,-0.008486 -0.00449209,-0.0113231 -0.00343662,-0.00287933 -0.00770917,-0.00370682 -0.0119733,-0.00241492m-0.0980745 0.0302034l0 0 0 0z"
       id="path4339" /><path
       class="fil1"
       d="M0.84214 0.816953c-0.00100481,-0.00435699 -0.00388414,-0.00761629 -0.00804692,-0.0091615 -0.00417967,-0.00151988 -0.008486,-0.000895041 -0.0120662,0.00176475 -0.0153677,0.0115511 -0.0320779,0.0211601 -0.0497508,0.0287089 -0.00408679,0.00173942 -0.00677191,0.00518448 -0.00754874,0.00958369 -0.000785272,0.00439921 0.00062484,0.00853666 0.00388414,0.0115511l0.0752256 0.0698132c0.00419656,0.00388414 0.0101663,0.00457653 0.0151059,0.0016972 0.00493961,-0.00283711 0.0073292,-0.00835934 0.00605419,-0.0138985l-0.0228573 -0.100059z"
       id="path4341" /><path
       class="fil1"
       d="M0.707808 0.855541c-0.0190576,0.00232204 -0.0384023,0.00232204 -0.0574177,0 -0.00442454,-0.000515071 -0.00846911,0.00107236 -0.0113231,0.00449209 -0.00286244,0.00343662 -0.00370682,0.00768384 -0.00241492,0.0119564l0.0302456 0.0981421c0.00165498,0.00540402 0.00652704,0.00895885 0.0122013,0.00895885 0.00569955,0 0.0105463,-0.00355483 0.0122182,-0.00895885l0.0302287 -0.0981421c0.00131723,-0.00422189 0.00044752,-0.00851133 -0.00238959,-0.0119564 -0.00286244,-0.00341973 -0.00694923,-0.00500716 -0.0113484,-0.00449209z"
       id="path4343" /><path
       class="fil1"
       d="M0.46022 0.712604c-0.00173942,-0.00408679 -0.00515915,-0.00677191 -0.00958369,-0.00753185 -0.00438232,-0.00075994 -0.00851133,0.000582621 -0.0115511,0.00386725l-0.0698132 0.0752256c-0.00388414,0.00419656 -0.00455964,0.0101663 -0.0016972,0.0151228 0.00286244,0.00491428 0.00835934,0.00734609 0.0138985,0.00605419l0.100067 -0.022832c0.00435699,-0.00100481 0.00764162,-0.00388414 0.00913617,-0.00804692 0.00154521,-0.00419656 0.000895041,-0.00855355 -0.00176475,-0.0120831 -0.0114835,-0.0153508 -0.0211601,-0.0321033 -0.028692,-0.0497761z"
       id="path4345" /><path
       class="fil1"
       d="M0.589553 0.859383c0.0032593,-0.00301443 0.00462719,-0.00715188 0.00388414,-0.0115511 -0.00075994,-0.00438232 -0.00346195,-0.00784427 -0.00757407,-0.00958369 -0.0176306,-0.00754874 -0.0343577,-0.0171831 -0.0497085,-0.0287089 -0.00359705,-0.00265979 -0.00788649,-0.00328463 -0.0120831,-0.00176475 -0.00417967,0.00154521 -0.00703367,0.00480451 -0.00804692,0.0091615l-0.0228573 0.100067c-0.00124968,0.00556445 0.00113991,0.0110614 0.00609641,0.0139154 0.00491428,0.00286244 0.0108587,0.00217005 0.0150553,-0.00172253m0.0752341 -0.0698132l0 0 0 0z"
       id="path4347" /><path
       class="fil2"
       d="M0.775831 0.702083c-0.0325086,0 -0.0589545,-0.0264544 -0.0589545,-0.0589798 0,-0.0323481 0.0267837,-0.0586674 0.0597397,-0.0586674 0.0152157,0 0.0296883,0.00607952 0.0407497,0.0171578 0.0111289,0.0111965 0.0172253,0.0259393 0.0172253,0.0415096 0.00141011,-0.0161952 -0.00482984,-0.0313433 -0.0161107,-0.0426749 -0.00703367,-0.00683946 -0.0152157,-0.0117706 -0.024107,-0.0145402 -0.00514226,-0.0019674 -0.00853666,-0.00558134 -0.00998899,-0.0102085 -0.00145233,-0.00542935 -9.28816e-005,-0.0108587 0.00346195,-0.0146077 0.0159925,-0.0177826 0.0389849,-0.0281009 0.0629315,-0.0281009 0.0332685,0 0.0635817,0.01975 0.0772099,0.0502658 0.00161276,0.00314953 0.00187452,0.00728698 0.000515071,0.0112133 -0.0018323,0.00438232 -0.00450898,0.00708433 -0.00822424,0.0087562 -0.0067888,0.00308198 -0.0130034,0.00753185 -0.017943,0.0128937l0 0c9.28816e-005,0 0.00123279,0.000869709 0.00131723,0.000869709l0 0c0.00974412,-0.010521 0.0234146,-0.0165583 0.0375073,-0.0165583 0.00214472,0 0.00426411,0.0001351 0.00639194,0.000422189 0.0253313,0.00294688 0.0445494,0.0245967 0.0445494,0.0503334 0,0.028084 -0.0227898,0.0509413 -0.0507556,0.0509413l-0.165515 -8.44378e-006 0 -1.68876e-005z"
       id="path4349" /><path
       class="fil3"
       d="M0.713119 0.641719c0,0.0367727 0.030271,0.0670689 0.0670689,0.0670689l0.156345 -8.44378e-006c0.0326437,0 0.0593344,-0.0266486 0.0593344,-0.0595202 0,-0.031166 -0.0243096,-0.0569449 -0.0550703,-0.0591993 -0.00173942,-0.0001351 -0.0032593,-0.00118213 -0.00375748,-0.00287933 -0.0128261,-0.0360803 -0.0475638,-0.0609219 -0.086059,-0.0609219 -0.0331503,0 -0.064139,0.0185003 -0.0800724,0.0475638 -0.000650171,0.00118213 -0.0016972,0.00187452 -0.00292999,0.00205184 -0.0314193,0.00585154 -0.0548592,0.0336907 -0.0548592,0.0658446m0.0213797 0c0,-0.0390103 0.0487966,-0.0612174 0.0778348,-0.0321455 0.00819891,0.00824113 0.0133581,0.0196825 0.0133581,0.0321455 0,0.00598664 0.00476229,0.0107658 0.0107658,0.0107658 0.00580932,0 0.0105632,-0.00480451 0.0105632,-0.0107658 0,-0.0184497 -0.0073292,-0.0352106 -0.0194629,-0.0473865 -0.00754874,-0.0073292 -0.0165751,-0.0130034 -0.0268766,-0.0162458 -0.00135945,-0.000515071 -0.00238959,-0.0015621 -0.00287933,-0.00310731 -0.000354639,-0.00131723 0,-0.00287933 0.00100481,-0.0039348 0.0131807,-0.0146584 0.0321455,-0.0234315 0.052191,-0.0234315 0.0275267,0 0.0526554,0.0166258 0.0637843,0.0415772 0.000515071,0.00104703 0.000515071,0.00218694 0.000177319,0.00324241 -0.000515071,0.00123279 -0.00123279,0.00187452 -0.00238959,0.00238959 -0.00750652,0.0033944 -0.0145233,0.00837623 -0.0201975,0.0145233 -0.0039348,0.00431477 -0.00357172,0.0111711 0.000869709,0.0150553 0.00426411,0.0039348 0.0111289,0.00375748 0.0150553,-0.000650171 0.00837623,-0.00906862 0.0206873,-0.0136958 0.032821,-0.0121337 0.0186776,0.00218694 0.0333783,0.0182723 0.0333783,0.0376255 0,0.021025 -0.0171155,0.0381321 -0.0379548,0.0381321l-0.156328 8.44378e-006c-0.0249767,1.68876e-005 -0.0457146,-0.0205353 -0.0457146,-0.045664z"
       id="path4351" /><path
       class="fil2"
       d="M0.425237 0.815796c-0.0486108,0 -0.0881531,-0.0395676 -0.0881531,-0.0881784 0,-0.048366 0.0400826,-0.0877309 0.0893183,-0.0877309 0.0227644,0 0.0444143,0.00909395 0.0609641,0.0256438 0.0166258,0.0167356 0.025762,0.0387654 0.025762,0.0620618 0.00211939,-0.0241914 -0.00716877,-0.0468714 -0.0240648,-0.0638097 -0.0105463,-0.0102085 -0.0227391,-0.0176053 -0.0360549,-0.0217596 -0.00768384,-0.00292999 -0.0127586,-0.00835934 -0.0149202,-0.0152832 -0.00218694,-0.00813136 -0.0001351,-0.0162627 0.00518448,-0.0218694 0.023879,-0.0265895 0.0582874,-0.0420247 0.0941228,-0.0420247 0.0497761,0 0.0950854,0.029511 0.11546,0.075175 0.00238959,0.00469474 0.00279489,0.010884 0.00075994,0.0167525 -0.00272734,0.00654393 -0.00674658,0.0106138 -0.0122857,0.0130879 -0.010141,0.00457653 -0.0194376,0.011264 -0.026809,0.0192603l0 0c0.0001351,0 0.00180697,0.00134256 0.00194207,0.00134256l0 0c0.0145402,-0.0157477 0.0349826,-0.0247741 0.0561005,-0.0247741 0.00319175,0 0.00636661,0.000202651 0.00958369,0.00062484 0.037845,0.00439921 0.0665792,0.0367727 0.0665792,0.0752425 0,0.0419994 -0.0340453,0.0761798 -0.075918,0.0761798l-0.247572 1.68876e-005 0 4.22189e-005z"
       id="path4353" /><path
       class="fil3"
       d="M0.319361 0.726165c0,0.0576879 0.0474963,0.105184 0.105159,0.105184l0.245123 -8.44378e-006c0.0511609,0 0.0930251,-0.041822 0.0930251,-0.0933207 0,-0.0488557 -0.0381152,-0.089293 -0.0863292,-0.0928478 -0.00272734,-0.000177319 -0.00511693,-0.0018323 -0.0059022,-0.00450898 -0.0201046,-0.0565649 -0.0745755,-0.0954823 -0.134898,-0.0954823 -0.0519884,0 -0.100582,0.0290213 -0.125534,0.0745501 -0.00103014,0.00185763 -0.00265979,0.00299754 -0.00457653,0.00324241 -0.0493117,0.00913617 -0.0860675,0.0527905 -0.0860675,0.103191m0.0335387 0c0,-0.0611245 0.0764922,-0.0959551 0.12203,-0.0504009 0.0128683,0.0129359 0.0209575,0.0308536 0.0209575,0.0504009 0,0.00940637 0.0074643,0.0169382 0.0169129,0.0169382 0.00909395,0 0.0165329,-0.00753185 0.0165329,-0.0169382 0,-0.0289115 -0.0114835,-0.0551801 -0.0304989,-0.0742631 -0.0118213,-0.0114835 -0.0260068,-0.0204171 -0.0421598,-0.0254664 -0.00211939,-0.000802159 -0.00375748,-0.00245714 -0.00449209,-0.00487206 -0.000540402,-0.00203495 0,-0.00449209 0.0015621,-0.00614707 0.020645,-0.0229418 0.0504263,-0.0367051 0.0818118,-0.0367051 0.0431646,0 0.0825464,0.0260237 0.100017,0.0651438 0.000827491,0.00165498 0.000827491,0.00343662 0.000270201,0.00511693 -0.000802159,0.00187452 -0.00192518,0.00292999 -0.00375748,0.00373215 -0.0117537,0.00533647 -0.0227898,0.0131385 -0.0316811,0.0227898 -0.00614707,0.0067888 -0.00560667,0.0175124 0.00138478,0.0236173 0.00670436,0.00614707 0.0174449,0.00587687 0.0236173,-0.00103014 0.0131385,-0.0142278 0.0324157,-0.0215148 0.051448,-0.0190154 0.0292661,0.0033944 0.0523261,0.0286413 0.0523261,0.0589798 0,0.032973 -0.026809,0.0597651 -0.0594949,0.0597651l-0.245165 0c-0.0391116,-2.53313e-005 -0.0716201,-0.0322384 -0.0716201,-0.0716455z"
       id="path4355" /></g></svg>