<?xml version="1.0" encoding="UTF-8" standalone="no"?>
<!-- Creator: CorelDRAW -->

<svg
   xmlns:dc="http://purl.org/dc/elements/1.1/"
   xmlns:cc="http://creativecommons.org/ns#"
   xmlns:rdf="http://www.w3.org/1999/02/22-rdf-syntax-ns#"
   xmlns:svg="http://www.w3.org/2000/svg"
   xmlns="http://www.w3.org/2000/svg"
   xmlns:sodipodi="http://sodipodi.sourceforge.net/DTD/sodipodi-0.dtd"
   xmlns:inkscape="http://www.inkscape.org/namespaces/inkscape"
   xml:space="preserve"
   width="15.875mm"
   height="15.875mm"
   style="shape-rendering:geometricPrecision; text-rendering:geometricPrecision; image-rendering:optimizeQuality; fill-rule:evenodd; clip-rule:evenodd"
   viewBox="0 0 1.33635 1.33635"
   id="svg4161"
   version="1.1"
   inkscape:version="0.91 r"
   sodipodi:docname="mostlycloudy.svg"><metadata
     id="metadata4193"><rdf:RDF><cc:Work
         rdf:about=""><dc:format>image/svg+xml</dc:format><dc:type
           rdf:resource="http://purl.org/dc/dcmitype/StillImage" /><dc:title></dc:title></cc:Work></rdf:RDF></metadata><sodipodi:namedview
     pagecolor="#ffffff"
     bordercolor="#666666"
     borderopacity="1"
     objecttolerance="10"
     gridtolerance="10"
     guidetolerance="10"
     inkscape:pageopacity="0"
     inkscape:pageshadow="2"
     inkscape:window-width="1920"
     inkscape:window-height="1011"
     id="namedview4191"
     showgrid="false"
     inkscape:zoom="14.88"
     inkscape:cx="28.125"
     inkscape:cy="28.125"
     inkscape:window-x="0"
     inkscape:window-y="24"
     inkscape:window-maximized="1"
     inkscape:current-layer="svg4161" /><defs
     id="defs4163"><style
       type="text/css"
       id="style4165"><![CDATA[
    .fil0 {fill:none}
    .fil1 {fill:#233361}
    .fil2 {fill:#EDA43A}
   ]]></style></defs><g
     id="Warstwa_x0020_1"><metadata
       id="CorelCorpID_0Corel-Layer" /><rect
       class="fil0"
       width="1.33635"
       height="1.33635"
       id="rect4169" /><path
       class="fil1"
       d="M0.497921 0.275418c-0.0586899,0 -0.113322,0.03267 -0.14143,0.0839689 -0.00113642,0.00200347 -0.00296311,0.00329983 -0.00525279,0.00374598 -0.0554995,0.0102194 -0.0969746,0.0595569 -0.0969746,0.11642 0,0.0649444 0.0534539,0.118449 0.118398,0.118449l0.090316 -8.41794e-006c0.00505918,0 0.00940284,-0.00282843 0.0114905,-0.00744146 0.00182669,-0.00405745 0.00378807,-0.00808122 0.00583363,-0.0120461 0.00209607,-0.00400694 0.00191929,-0.00844319 -0.000446151,-0.0123575 -0.00234019,-0.00387225 -0.00625453,-0.00603566 -0.0107834,-0.00603566l-0.0963938 -8.41794e-006c-0.0441437,0 -0.0805176,-0.0363739 -0.0805176,-0.0805597 0,-0.0690018 0.0860818,-0.108263 0.137465,-0.0569473 0.014563,0.014563 0.0235871,0.034724 0.0235871,0.0569473 0,0.0249676 0.0378891,0.0249676 0.0378891,0 0,-0.0520313 -0.0338064,-0.0971262 -0.0820496,-0.112725 -0.0052107,-0.00164992 -0.00699531,-0.00813173 -0.00329983,-0.0122734 0.0675539,-0.0756352 0.192569,-0.0413152 0.213016,0.0568211 0.00200347,0.0096217 0.0111369,0.0161961 0.0210028,0.0148745 0.0146135,-0.00200347 0.0288399,0.000959645 0.0409364,0.00748355 0.00438575,0.00242437 0.008822,0.00334192 0.0138307,0.0030052 0.00512652,-0.000404061 0.0102699,-0.000597674 0.015388,-0.000648181 0.0053033,-9.25973e-005 0.00978164,-0.00324932 0.0116504,-0.00826641 0.00182669,-0.00500867 0.000471404,-0.0103541 -0.0035187,-0.0138728 -0.0167012,-0.0146556 -0.0380659,-0.0241847 -0.0614762,-0.0258767 -0.0030978,-0.000218866 -0.00556426,-0.00213816 -0.0066165,-0.00505918 -0.0225348,-0.0637322 -0.0839184,-0.10759 -0.152045,-0.10759z"
       id="path4171" /><path
       class="fil1"
       d="M0.928759 0.590064c-0.00338401,-0.000597674 -0.00607775,-0.00255905 -0.00775292,-0.00556426 -0.0412479,-0.0752143 -0.121454,-0.12323 -0.20762,-0.12323 -0.099963,0 -0.190136,0.0643888 -0.223235,0.158005 -0.00151523,0.00425106 -0.00516861,0.0070374 -0.0097143,0.00739095 -0.0798273,0.00574945 -0.143164,0.0728993 -0.143164,0.153855 0,0.0848781 0.0694648,0.154351 0.154351,0.154351l0.405644 -8.41794e-006c0.09535,0 0.173881,-0.0785141 0.173881,-0.173881 -2.52538e-005,-0.0835228 -0.0609206,-0.155951 -0.142389,-0.170918m-0.0314915 0.289139l-0.405652 0c-0.0544977,0 -0.0987087,-0.0441858 -0.0987087,-0.0987087 0,-0.0503393 0.0379733,-0.0920081 0.0867048,-0.097909 0.0312221,-0.00383016 0.0635638,0.00788761 0.0850801,0.0315841 0.010312,0.0113137 0.0278886,0.0121387 0.0392444,0.00182669 0.0113137,-0.010312 0.0121387,-0.0278381 0.00182669,-0.0392023 -0.014563,-0.0160614 -0.0325437,-0.0289324 -0.0523427,-0.0376198 -0.00282843,-0.00127111 -0.0048319,-0.00329983 -0.00592623,-0.00617035 -0.00109433,-0.00287052 -0.00104382,-0.00574945 0.000218866,-0.00852737 0.0287978,-0.0646834 0.0939694,-0.107573 0.165665,-0.107573 0.0518966,0 0.101226,0.0224085 0.135327,0.0606007 0.00260956,0.00292102 0.00347661,0.00657441 0.00247487,0.010312 -0.00104382,0.00374598 -0.00365338,0.00648181 -0.00734886,0.00770241 -0.0264828,0.00852737 -0.0502467,0.0233177 -0.0695153,0.0425443 -0.0314494,0.0314494 -0.0509369,0.0749449 -0.0509369,0.122944 0,0.0153459 0.0124922,0.027796 0.0278381,0.027796 0.0153459,0 0.027796,-0.0124501 0.027796,-0.027796 0,-0.03267 0.013233,-0.0622086 0.0346314,-0.0836069 0.0754331,-0.075391 0.201837,-0.0176608 0.201837,0.0836069 8.41794e-006,0.064835 -0.0533613,0.118196 -0.118213,0.118196z"
       id="path4173" /><path
       class="fil2"
       d="M0.886198 0.375844c0.0570399,0 0.103877,0.0468795 0.103877,0.103919 0,0.0198242 -0.00569894,0.0384868 -0.0154806,0.0542536 -0.000622927,0.000959645 -0.0013132,0.00189404 -0.00185195,0.00289577 -0.0112043,0.0198916 -0.0428978,0.00730677 -0.0278381,-0.0149923 0.000976481,-0.00133845 0.00191929,-0.0026264 0.00276108,-0.00400694 0.00697005,-0.0111117 0.0109602,-0.0242521 0.0109602,-0.0381501 0,-0.0397748 -0.0326532,-0.0724532 -0.0724279,-0.0724532 -0.0227874,0 -0.0432514,0.0107834 -0.0565264,0.0274425 -0.000513494,0.000597674 -0.000959645,0.00120376 -0.00142263,0.00180144 -0.0152786,0.0210953 -0.0415341,0.00111117 -0.0250097,-0.0190666 0.0199926,-0.0244457 0.0492786,-0.0416435 0.0829588,-0.0416435z"
       id="path4175" /><path
       class="fil2"
       d="M0.880163 0.305596l-0.0150344 0.0487062c-0.000622927,0.00216341 -0.000176777,0.00423422 0.00120376,0.00599357 0.00142263,0.00169201 0.00347661,0.00242437 0.0056316,0.0022055 0.00944493,-0.00111117 0.0190666,-0.00111117 0.0285116,0 0.00218025,0.00024412 0.00420897,-0.00048824 0.00561476,-0.0022055 0.00138054,-0.0017341 0.00189404,-0.00383016 0.00124585,-0.00599357l-0.0150092 -0.0487062c-0.000909137,-0.00265165 -0.00324932,-0.00443625 -0.00612826,-0.00443625 -0.00281159,8.41794e-006 -0.0052107,0.0017846 -0.00603566,0.00443625z"
       id="path4177" /><path
       class="fil2"
       d="M0.968046 0.325934l-0.0373756 0.0346566c-0.00164992,0.00147314 -0.00231493,0.00356079 -0.00191929,0.00568211 0.000404061,0.0022981 0.0017341,0.0038975 0.00374598,0.00485715 0.00877149,0.00367864 0.0170379,0.00852737 0.0246982,0.0142347 0.00171726,0.0013132 0.00392276,0.00162466 0.00596832,0.000824958 0.00207081,-0.000690271 0.00354395,-0.00231493 0.0039901,-0.00452043l0.0113558 -0.049649c0.000648181,-0.00276108 -0.000555584,-0.00556426 -0.00298837,-0.00690271 -0.00250855,-0.00148156 -0.00544641,-0.00110275 -0.00747513,0.00081654z"
       id="path4179" /><path
       class="fil2"
       d="M1.03398 0.387469l-0.0496658 0.0113137c-0.00218025,0.000471404 -0.00380491,0.00193613 -0.00452043,0.00400694 -0.000782868,0.00202872 -0.000471404,0.00425106 0.000850212,0.00594306 0.0057242,0.00766032 0.0105813,0.0159436 0.0142768,0.0247235 0.000892301,0.00197822 0.00255905,0.00331667 0.00476455,0.00372073 0.00216341,0.000446151 0.00420897,-0.000311464 0.00568211,-0.00189404l0.034724 -0.0373756c0.00191929,-0.00202872 0.00224759,-0.00499184 0.000824958,-0.00752564 -0.00143947,-0.00237386 -0.0041753,-0.00355237 -0.00693638,-0.00291261z"
       id="path4181" /><path
       class="fil2"
       d="M1.06032 0.473618c0.0026769,0.000909137 0.00447834,0.00324932 0.00447834,0.00612826 -4.20897e-005,0.00278634 -0.00180144,0.0052107 -0.00447834,0.00603566l-0.0487062 0.0149923c-0.00213816,0.000622927 -0.00423422,0.00024412 -0.00596832,-0.00116168 -0.00169201,-0.00144789 -0.00247487,-0.00347661 -0.00224759,-0.00565685 0.00117851,-0.00944493 0.00117851,-0.0190414 0,-0.0285284 -0.00024412,-0.00216341 0.000538748,-0.00418371 0.00224759,-0.00552217 0.00171726,-0.00147314 0.00383016,-0.00196138 0.00596832,-0.00128794l0.0487062 0.0150008z"
       id="path4183" /><path
       class="fil2"
       d="M1.04003 0.56151c0.00191929,0.00216341 0.00224759,0.00507602 0.000824958,0.00752564 -0.00138054,0.00244962 -0.00414162,0.00362813 -0.00690271,0.00303046l-0.0496658 -0.0113558c-0.00218025,-0.000538748 -0.00380491,-0.00196138 -0.00452043,-0.00403219 -0.000782868,-0.0021129 -0.000471404,-0.00418371 0.000850212,-0.00603566 0.0057242,-0.00755089 0.0105813,-0.0159015 0.0142768,-0.0245888 0.000892301,-0.00209607 0.00255905,-0.0034261 0.00476455,-0.00383016 0.00216341,-0.000311464 0.00420897,0.000353553 0.00568211,0.00196138l0.0346903 0.0373251z"
       id="path4185" /><path
       class="fil2"
       d="M0.732453 0.397916l0.0346314 0.0373756c0.00151523,0.00158257 0.00356079,0.00231493 0.00574945,0.00189404 0.00216341,-0.000404061 0.0038975,-0.0017341 0.00472246,-0.00372073 0.00376282,-0.00879674 0.00852737,-0.01708 0.0143021,-0.0247235 0.0013132,-0.00166675 0.00162466,-0.00392276 0.000850212,-0.00594306 -0.000732361,-0.00207081 -0.00235702,-0.00354395 -0.00449518,-0.00400694l-0.0496911 -0.0113137c-0.00276108,-0.000648181 -0.00548008,0.000513494 -0.00695322,0.00292102 -0.00138896,0.0025338 -0.00103541,0.00548849 0.000883883,0.00751722z"
       id="path4187" /><path
       class="fil2"
       d="M0.793896 0.332012l0.0113558 0.049649c0.000513494,0.0022055 0.00196138,0.00383016 0.0039901,0.00452043 0.00213816,0.000799704 0.00423422,0.000471404 0.00603566,-0.000824958 0.00759298,-0.00569894 0.0159015,-0.0105561 0.0246309,-0.0142347 0.00207081,-0.000959645 0.00338401,-0.00255905 0.00380491,-0.00485715 0.000353553,-0.0021129 -0.000311464,-0.00418371 -0.00196138,-0.00568211l-0.0373756 -0.0346819c-0.00207081,-0.00191929 -0.00503393,-0.0022981 -0.00748355,-0.000799704 -0.00239069,0.00134687 -0.00363655,0.00415004 -0.00299679,0.00691113z"
       id="path4189" /></g><path
     style="fill:#ffffff;fill-opacity:1"
     d="m 19.670699,36.849284 c -2.748499,-0.725125 -3.971846,-3.963617 -2.378282,-6.295879 0.570032,-0.834272 1.447816,-1.451947 2.409203,-1.695297 0.510802,-0.129297 1.425348,-0.128402 1.978278,0.0019 0.59044,0.139178 1.279775,0.516441 1.792263,0.980877 0.537256,0.486883 0.775898,0.611416 1.171656,0.611416 0.930961,0 1.48561,-1.005709 0.997797,-1.809239 -0.27681,-0.455963 -1.229043,-1.208371 -2.058708,-1.626692 -0.560197,-0.282454 -0.627838,-0.42995 -0.411915,-0.898212 0.284756,-0.617538 0.948137,-1.543005 1.505703,-2.100571 1.063453,-1.063453 2.35324,-1.753093 3.898575,-2.084539 0.735812,-0.157818 2.099207,-0.161097 2.881209,-0.0069 1.497492,0.295224 3.006728,1.108265 3.992937,2.151036 0.559785,0.59189 0.492404,0.777306 -0.415072,1.142166 -0.898244,0.361149 -1.656223,0.863882 -2.394916,1.588438 -0.738453,0.72432 -1.09468,1.221328 -1.522117,2.123658 -0.43353,0.91519 -0.636201,1.763574 -0.649505,2.718834 -0.01027,0.737149 -0.0017,0.790426 0.167999,1.047964 0.409205,0.620927 1.348672,0.696012 1.845718,0.147515 0.247409,-0.273022 0.305829,-0.45765 0.36673,-1.159018 0.124199,-1.430346 0.692971,-2.527404 1.809006,-3.489245 0.438864,-0.378229 1.273995,-0.806738 1.88172,-0.965516 0.595665,-0.155628 1.700434,-0.151556 2.318549,0.0085 1.807479,0.468165 3.262492,1.880107 3.709321,3.59952 0.141364,0.543972 0.156467,1.769646 0.02816,2.284946 -0.450473,1.809111 -1.876891,3.248352 -3.664222,3.697161 -0.517881,0.130043 -0.768198,0.13337 -9.711021,0.129061 -7.797078,-0.0038 -9.235101,-0.01911 -9.549062,-0.101938 z"
     id="path4195"
     inkscape:connector-curvature="0"
     transform="scale(0.02375733,0.02375733)" /></svg>