<?xml version="1.0" encoding="UTF-8" standalone="no"?>
<!-- Creator: CorelDRAW -->

<svg
   xmlns:dc="http://purl.org/dc/elements/1.1/"
   xmlns:cc="http://creativecommons.org/ns#"
   xmlns:rdf="http://www.w3.org/1999/02/22-rdf-syntax-ns#"
   xmlns:svg="http://www.w3.org/2000/svg"
   xmlns="http://www.w3.org/2000/svg"
   xmlns:sodipodi="http://sodipodi.sourceforge.net/DTD/sodipodi-0.dtd"
   xmlns:inkscape="http://www.inkscape.org/namespaces/inkscape"
   xml:space="preserve"
   width="15.875mm"
   height="15.875mm"
   style="shape-rendering:geometricPrecision; text-rendering:geometricPrecision; image-rendering:optimizeQuality; fill-rule:evenodd; clip-rule:evenodd"
   viewBox="0 0 0.206194 0.206194"
   id="svg3401"
   version="1.1"
   inkscape:version="0.91 r"
   sodipodi:docname="nt_partlycloudy.svg"><metadata
     id="metadata3423"><rdf:RDF><cc:Work
         rdf:about=""><dc:format>image/svg+xml</dc:format><dc:type
           rdf:resource="http://purl.org/dc/dcmitype/StillImage" /><dc:title></dc:title></cc:Work></rdf:RDF></metadata><sodipodi:namedview
     pagecolor="#ffffff"
     bordercolor="#666666"
     borderopacity="1"
     objecttolerance="10"
     gridtolerance="10"
     guidetolerance="10"
     inkscape:pageopacity="0"
     inkscape:pageshadow="2"
     inkscape:window-width="1920"
     inkscape:window-height="1011"
     id="namedview3421"
     showgrid="false"
     inkscape:zoom="14.88"
     inkscape:cx="28.125"
     inkscape:cy="28.125"
     inkscape:window-x="0"
     inkscape:window-y="24"
     inkscape:window-maximized="1"
     inkscape:current-layer="svg3401" /><defs
     id="defs3403"><style
       type="text/css"
       id="style3405"><![CDATA[
    .fil0 {fill:none}
    .fil2 {fill:#0076B6}
    .fil3 {fill:#26307A}
    .fil1 {fill:white}
   ]]></style></defs><g
     id="Warstwa_x0020_1"><metadata
       id="CorelCorpID_0Corel-Layer" /><rect
       class="fil0"
       width="0.206194"
       height="0.206194"
       id="rect3409" /><path
       class="fil1"
       d="M0.0634597 0.148973c-0.00811398,0 -0.0147122,-0.00659821 -0.0147122,-0.0147122 0,-0.00806852 0.00668394,-0.0146395 0.0149005,-0.0146395 0.00379787,0 0.0074087,0.00152226 0.0101688,0.00428234 0.00277956,0.00278995 0.00430313,0.00647092 0.00430313,0.0103584 0.000357187,-0.00403426 -0.00120275,-0.00781784 -0.00401348,-0.0106468 -0.00175996,-0.00170411 -0.00379787,-0.00293802 -0.00602152,-0.00363291 -0.00128198,-0.000484475 -0.00212753,-0.00139498 -0.00249122,-0.00254317 -0.000361083,-0.00136121 -2.07818e-005,-0.00271852 0.00086634,-0.0036498 0.0039862,-0.00443691 0.00973236,-0.00700735 0.0157045,-0.00700735 0.00830232,0 0.0158604,0.00492138 0.0192621,0.0125366 0.000394854,0.00078711 0.000463693,0.00181841 0.000127288,0.00279775 -0.000457199,0.00109234 -0.00112741,0.00177295 -0.0020548,0.00218209 -0.00169112,0.000766328 -0.00324066,0.00187945 -0.00447068,0.00321728l0 0c2.07818e-005,0 0.000302635,0.000219507 0.000323416,0.000219507l0 0c0.00243017,-0.002625 0.00583838,-0.00413427 0.00935829,-0.00413427 0.00053643,0 0.00106896,3.37704e-005 0.0015976,0.000106507 0.00632285,0.000739052 0.0111144,0.00613452 0.0111144,0.0125509 0,0.00701385 -0.00568382,0.012712 -0.0126678,0.012712l-0.0412947 -1.29886e-006 0 3.89658e-006z"
       id="path3411" /><path
       class="fil2"
       d="M0.0457965 0.134016c0,0.00962586 0.00792175,0.0175502 0.0175437,0.0175502l0.0408946 0c0.00852962,0 0.0155201,-0.00698008 0.0155201,-0.0155707 0,-0.00814775 -0.00635792,-0.014894 -0.0144031,-0.0154915 -0.000450705,-2.72761e-005 -0.000852053,-0.000302635 -0.000979341,-0.00075204 -0.00335756,-0.00943622 -0.0124366,-0.0159357 -0.0225067,-0.0159357 -0.00867769,0 -0.0167813,0.00484605 -0.0209493,0.0124444 -0.000168852,0.000302635 -0.000442912,0.000498763 -0.000766328,0.000528636 -0.00822698,0.00154175 -0.0143537,0.00882446 -0.0143537,0.0172268m0.0055916 0c0,-0.0101961 0.0127665,-0.0160072 0.0203648,-0.00840233 0.00214832,0.00215481 0.00349134,0.00514089 0.00349134,0.00840233 0,0.00157032 0.00124691,0.00282502 0.00282502,0.00282502 0.00151577,0 0.00276008,-0.0012547 0.00276008,-0.00282502 0,-0.00481748 -0.00192102,-0.00920373 -0.00508634,-0.0123885 -0.00197946,-0.00191452 -0.00434339,-0.00340951 -0.00703463,-0.00424078 -0.000357187,-0.000140277 -0.000626051,-0.000415635 -0.00075204,-0.000818282 -9.22191e-005,-0.000336405 0,-0.000745546 0.000261071,-0.0010274 0.00344328,-0.00382515 0.00840883,-0.00612023 0.0136536,-0.00612023 0.00720348,0 0.0137744,0.00435118 0.0166852,0.0108663 0.000140277,0.000281853 0.000140277,0.000584487 4.80579e-005,0.000858547 -0.000140277,0.000309129 -0.000323416,0.000484475 -0.000632545,0.000618258 -0.00195868,0.000893616 -0.00379787,0.00219637 -0.00528247,0.00380436 -0.0010274,0.00112741 -0.000937778,0.00292114 0.000227301,0.00393815 0.00111312,0.0010209 0.00291464,0.000972847 0.00393425,-0.000175346 0.00219637,-0.00237432 0.00541625,-0.00359135 0.00858417,-0.00317571 0.00488631,0.0005702 0.00873224,0.00477981 0.00873224,0.00983887 0,0.00550587 -0.00447847,0.00997265 -0.00992849,0.00997265l-0.0408959 1.29886e-006c-0.00653197,3.89658e-006 -0.0119547,-0.00537469 -0.0119547,-0.0119521z"
       id="path3413" /><path
       class="fil1"
       d="M0.149618 0.120102c0.00810749,0 0.0147057,-0.00659821 0.0147057,-0.0147122 0,-0.00807632 -0.00668394,-0.0146369 -0.0149005,-0.0146369 -0.00379787,0 -0.0074087,0.00151577 -0.0101688,0.00428234 -0.00277956,0.00278995 -0.00430313,0.00646053 -0.00430313,0.0103545 -0.000350692,-0.00404206 0.00120275,-0.00781784 0.00401348,-0.0106494 0.00175996,-0.00169761 0.00379787,-0.00293543 0.00602152,-0.00362512 0.00128198,-0.000490969 0.00212753,-0.00139498 0.00249122,-0.00254966 0.000361083,-0.00135731 2.07818e-005,-0.00271202 -0.00086634,-0.0036459 -0.0039862,-0.00443691 -0.00972587,-0.00701385 -0.015698,-0.00701385 -0.00830232,0 -0.0158669,0.00492788 -0.0192621,0.0125431 -0.000402647,0.00078711 -0.000470188,0.00181841 -0.000133783,0.00278995 0.000457199,0.00109234 0.00112741,0.00177295 0.0020548,0.00218598 0.00169112,0.000766328 0.00324066,0.00187945 0.00447068,0.00321728l0 0c-2.07818e-005,0 -0.000302635,0.000219507 -0.000323416,0.000219507l0 0c-0.00243017,-0.00263279 -0.00583838,-0.00413038 -0.00935829,-0.00413038 -0.000528636,0 -0.00106896,3.37704e-005 -0.0015976,0.000100012 -0.00631636,0.000735155 -0.0111144,0.00613062 -0.0111144,0.0125535 0,0.00700735 0.00568382,0.012712 0.0126743,0.012712l0.0412947 -1.29886e-006 0 6.4943e-006z"
       id="path3415" /><path
       class="fil2"
       d="M0.167275 0.105149c0,-0.00840883 -0.00612803,-0.0156876 -0.0143576,-0.0172203 -0.000323416,-4.15635e-005 -0.000597476,-0.000227301 -0.000766328,-0.00053643 -0.00416804,-0.00759834 -0.012269,-0.0124405 -0.0209428,-0.0124405 -0.0100688,0 -0.0191556,0.0064956 -0.0225132,0.0159318 -0.000127288,0.000450705 -0.000522142,0.000732558 -0.000979341,0.000759834 -0.00804904,0.000590982 -0.0144031,0.00733337 -0.0144031,0.0154889 0,0.00859196 0.00698657,0.0155643 0.0155266,0.0155643l0.0408959 0c0.00962196,-3.89658e-006 0.0175398,-0.00792565 0.0175398,-0.0175476m-0.0055903 0c0,0.00657094 -0.00542274,0.0119495 -0.0119495,0.0119495l-0.0408946 -1.29886e-006c-0.00545781,0 -0.00993499,-0.00447068 -0.00993499,-0.00996616 0,-0.00506166 0.00385242,-0.00926867 0.00873224,-0.00983887 0.00317571,-0.000415635 0.0063891,0.000791006 0.00858417,0.00316792 0.0010274,0.00115469 0.00281853,0.00119625 0.00393815,0.000175346 0.00116118,-0.00101441 0.00124691,-0.00280424 0.000219507,-0.00393815 -0.0014846,-0.0016015 -0.00331599,-0.00290425 -0.00528247,-0.00379397 -0.000309129,-0.000133783 -0.000490969,-0.000309129 -0.000626051,-0.000626051 -9.22191e-005,-0.000275359 -9.22191e-005,-0.000577993 4.15635e-005,-0.000852053 0.00291464,-0.00652288 0.00948558,-0.0108663 0.0166917,-0.0108663 0.00523441,0 0.0102026,0.00228859 0.0136471,0.00612023 0.000261071,0.000275359 0.000357187,0.0006845 0.000261071,0.0010274 -0.000120794,0.000402647 -0.000394854,0.000676707 -0.00075204,0.000810489 -0.00269124,0.000839064 -0.00505517,0.00233016 -0.00702814,0.00424728 -0.00317571,0.00317831 -0.00508634,0.00756067 -0.00508634,0.0123859 0,0.00156383 0.00124041,0.00282502 0.00276008,0.00282502 0.00157682,0 0.00281853,-0.00126119 0.00281853,-0.00282502 0,-0.00326144 0.00134432,-0.00624752 0.00349783,-0.00840883 0.00759444,-0.00759964 0.0203622,-0.00179243 0.0203622,0.00840753z"
       id="path3417" /><path
       class="fil3"
       d="M0.0786058 0.0471292c0.0036498,0.00129237 0.00675278,0.00380047 0.00882576,0.00705931 0.00767107,0.0121002 -0.00229509,0.0279424 -0.0163851,0.0265136 -0.00294452,-0.000302635 -0.00575915,-0.00134432 -0.00818282,-0.00304843 -0.00274579,-0.00192491 -0.00624103,0.00108585 -0.00485904,0.00404855 0.00420961,0.010248 0.0138316,0.0174411 0.0248667,0.0185542 0.000937778,9.22191e-005 0.00187296,0.000127288 0.00278995,0.000154564 0.00450835,0.000181841 0.00459797,-0.0063852 -0.000676707,-0.00654626 -0.000484475,-1.42875e-005 -0.000958559,-7.27362e-005 -0.00145083,-0.000133783 -0.00493437,-0.000490969 -0.00962586,-0.00256395 -0.0133302,-0.00586566 -0.000133783,-0.000106507 -0.000161059,-0.000261071 -9.22191e-005,-0.000402647 6.88396e-005,-0.000154564 0.000202622,-0.000240289 0.000374072,-0.000219507 0.0191894,0.00188724 0.0330054,-0.0199596 0.0224781,-0.0365577 -0.000645534,-0.00101701 -0.00137419,-0.00200025 -0.0021691,-0.00291724 -0.000113001,-0.000120794 -0.000127288,-0.000281853 -4.80579e-005,-0.000415635 8.57248e-005,-0.000140277 0.000233795,-0.000213013 0.000402647,-0.000168852 0.0118599,0.00275618 0.0210143,0.015472 0.0179632,0.0276398 -0.00104818,0.00420311 0.00577344,0.00573187 0.00667095,-7.27362e-005 0.00263279,-0.0168423 -0.00985965,-0.0328703 -0.0268085,-0.0345965 -0.00336795,-0.000336405 -0.00680473,-9.22191e-005 -0.010096,0.000693592 -0.00317312,0.00075204 -0.00332898,0.00525779 -0.000272761,0.00628129z"
       id="path3419" /></g></svg>