<?xml version="1.0" encoding="UTF-8" standalone="no"?>
<!-- Creator: CorelDRAW -->

<svg
   xmlns:dc="http://purl.org/dc/elements/1.1/"
   xmlns:cc="http://creativecommons.org/ns#"
   xmlns:rdf="http://www.w3.org/1999/02/22-rdf-syntax-ns#"
   xmlns:svg="http://www.w3.org/2000/svg"
   xmlns="http://www.w3.org/2000/svg"
   xmlns:sodipodi="http://sodipodi.sourceforge.net/DTD/sodipodi-0.dtd"
   xmlns:inkscape="http://www.inkscape.org/namespaces/inkscape"
   xml:space="preserve"
   width="15.875mm"
   height="15.875mm"
   style="shape-rendering:geometricPrecision; text-rendering:geometricPrecision; image-rendering:optimizeQuality; fill-rule:evenodd; clip-rule:evenodd"
   viewBox="0 0 1.3429 1.3429"
   id="svg3694"
   version="1.1"
   inkscape:version="0.91 r"
   sodipodi:docname="partlycloudy.svg"><metadata
     id="metadata3724"><rdf:RDF><cc:Work
         rdf:about=""><dc:format>image/svg+xml</dc:format><dc:type
           rdf:resource="http://purl.org/dc/dcmitype/StillImage" /><dc:title></dc:title></cc:Work></rdf:RDF></metadata><sodipodi:namedview
     pagecolor="#ffffff"
     bordercolor="#666666"
     borderopacity="1"
     objecttolerance="10"
     gridtolerance="10"
     guidetolerance="10"
     inkscape:pageopacity="0"
     inkscape:pageshadow="2"
     inkscape:window-width="1920"
     inkscape:window-height="1011"
     id="namedview3722"
     showgrid="false"
     inkscape:zoom="14.88"
     inkscape:cx="28.125"
     inkscape:cy="28.125"
     inkscape:window-x="0"
     inkscape:window-y="24"
     inkscape:window-maximized="1"
     inkscape:current-layer="svg3694" /><defs
     id="defs3696"><style
       type="text/css"
       id="style3698"><![CDATA[
    .fil0 {fill:none}
    .fil2 {fill:#0076B6}
    .fil1 {fill:#EDA43A}
   ]]></style></defs><g
     id="Warstwa_x0020_1"><metadata
       id="CorelCorpID_0Corel-Layer" /><rect
       class="fil0"
       width="1.3429"
       height="1.3429"
       id="rect3702" /><path
       class="fil1"
       d="M0.543985 0.38606c-0.0852517,0 -0.155395,0.070169 -0.155395,0.155353 0,0.0296748 0.00852686,0.0575648 0.023212,0.0812674 0.000913592,0.0014296 0.00192869,0.00279999 0.00270694,0.00427189 0.016783,0.0298102 0.0642137,0.0109208 0.041653,-0.0223407 -0.00138731,-0.00205558 -0.00279999,-0.00407733 -0.00411962,-0.00610753 -0.0104048,-0.0166054 -0.0164277,-0.0362392 -0.0164277,-0.0570995 0,-0.0594427 0.0489279,-0.108371 0.108371,-0.108371 0.0340905,0 0.0647466,0.0161401 0.0846257,0.0410947 0.000735949,0.000871296 0.0014296,0.00179335 0.00210634,0.00270694 0.0228483,0.0316035 0.0621073,0.001658 0.0374657,-0.0284905 -0.0299963,-0.0365437 -0.0737472,-0.062285 -0.124198,-0.062285z"
       id="path3704" /><path
       class="fil1"
       d="M0.553028 0.280997l0.0224676 0.0728336c0.000964347,0.00315528 0.00031299,0.00633593 -0.00179335,0.00886523 -0.00214863,0.0025293 -0.00515164,0.00371358 -0.00843381,0.003316 -0.0141268,-0.001658 -0.0284905,-0.001658 -0.0426174,0 -0.00326525,0.000406041 -0.00628518,-0.000786704 -0.00843381,-0.003316 -0.00210634,-0.0025293 -0.00274924,-0.00572687 -0.00179335,-0.00886523l0.0224676 -0.0728336c0.00127734,-0.00407733 0.00485557,-0.00669122 0.00908517,-0.00669122 0.00421267,0 0.00779937,0.00263927 0.00905133,0.00669122z"
       id="path3706" /><path
       class="fil1"
       d="M0.42158 0.311391l0.0558645 0.0517871c0.00243625,0.00228398 0.00344289,0.00532929 0.00288458,0.00856916 -0.000558306,0.00326525 -0.00257159,0.00581992 -0.00559152,0.00711418 -0.0131117,0.00559152 -0.0255383,0.0127565 -0.0369328,0.0213256 -0.00262235,0.00197099 -0.00586222,0.00243625 -0.00894982,0.00131963 -0.0030876,-0.00111661 -0.00523624,-0.00357824 -0.00599756,-0.00678427l-0.0169691 -0.0743478c-0.000964347,-0.00411962 0.000829,-0.00821387 0.00450029,-0.0103202 0.00367129,-0.00213171 0.0081039,-0.00159033 0.0111915,0.00133655z"
       id="path3708" /><path
       class="fil1"
       d="M0.322963 0.403359l0.0743055 0.0169691c0.00319757,0.000735949 0.00564228,0.00288458 0.00678427,0.00599756 0.00114199,0.00311298 0.000651357,0.00633593 -0.00131963,0.00894982 -0.00856916,0.0113691 -0.0157341,0.0238126 -0.0213256,0.0369328 -0.00131963,0.00301993 -0.00384893,0.00503322 -0.00707188,0.00559152 -0.00326525,0.000558306 -0.00633593,-0.000473714 -0.00856916,-0.00288458l-0.0518802 -0.0558645c-0.00288458,-0.00311298 -0.0033583,-0.00752022 -0.00127734,-0.0111915 0.00214017,-0.00367129 0.0062175,-0.00546463 0.010354,-0.00450029z"
       id="path3710" /><path
       class="fil1"
       d="M0.283535 0.53237c-0.00407733,0.00127734 -0.00673351,0.00481328 -0.00673351,0.00904287 4.22959e-005,0.00422959 0.00266464,0.00783321 0.00673351,0.00908517l0.0728336 0.0224253c0.00319757,0.000964347 0.00633593,0.000355286 0.00886523,-0.00179335 0.0025293,-0.00210634 0.00376434,-0.00512627 0.0033583,-0.00839151 -0.00174259,-0.0141268 -0.0017003,-0.0284905 0,-0.0426597 0.000406041,-0.00324833 -0.000829,-0.00624288 -0.0033583,-0.00839151 -0.0025293,-0.00214863 -0.00568457,-0.00274924 -0.00886523,-0.00179335l-0.0728336 0.0224761z"
       id="path3712" /><path
       class="fil1"
       d="M0.313878 0.663767c-0.00288458,0.00315528 -0.0033583,0.00761327 -0.00127734,0.0112338 0.00214863,0.00362899 0.00620058,0.00541388 0.0103625,0.00450029l0.0743055 -0.0170114c0.00319757,-0.000735949 0.00564228,-0.00284229 0.00678427,-0.00599756 0.00114199,-0.00306223 0.000651357,-0.00628518 -0.00131963,-0.00894982 -0.00856916,-0.0113691 -0.0157341,-0.0238126 -0.0213256,-0.0368821 -0.00131963,-0.00306223 -0.00384893,-0.00508397 -0.00707188,-0.00564228 -0.00326525,-0.00051601 -0.00633593,0.000473714 -0.00856916,0.00293534l-0.0518886 0.0558137z"
       id="path3714" /><path
       class="fil1"
       d="M0.774049 0.419051l-0.0518379 0.0558645c-0.00228398,0.00239395 -0.00532929,0.00344289 -0.00861991,0.00288458 -0.00324833,-0.000558306 -0.00581992,-0.00257159 -0.00707188,-0.00559152 -0.00559152,-0.0131117 -0.0127565,-0.0255806 -0.0213256,-0.0369328 -0.00197099,-0.00262235 -0.00243625,-0.00586222 -0.00131963,-0.00894982 0.00111661,-0.0030876 0.00353594,-0.00523624 0.00678427,-0.00599756l0.0743055 -0.0169691c0.00416192,-0.000964347 0.00821387,0.000829 0.0103625,0.00450029 0.00209788,0.00367129 0.00156495,0.0081039 -0.00127734,0.0111915z"
       id="path3716" /><path
       class="fil1"
       d="M0.682039 0.320392l-0.0169691 0.0743478c-0.000735949,0.00319757 -0.00288458,0.00564228 -0.00599756,0.00678427 -0.00311298,0.00114199 -0.00633593,0.000651357 -0.00894982,-0.00131963 -0.0114114,-0.00856916 -0.0238126,-0.0157341 -0.0369328,-0.0213256 -0.00306223,-0.00131963 -0.00503322,-0.00384893 -0.00564228,-0.00711418 -0.00051601,-0.00324833 0.000473714,-0.00628518 0.00293534,-0.00856916l0.0558645 -0.0518379c0.00311298,-0.00288458 0.00752022,-0.00340059 0.0111915,-0.00127734 0.00367129,0.00209788 0.00545618,0.00619212 0.00450029,0.0103117z"
       id="path3718" /><path
       class="fil2"
       d="M0.471515 1.00867c-0.0820034,0 -0.148729,-0.0667007 -0.148729,-0.148729 0,-0.0775961 0.0605847,-0.142774 0.137961,-0.148323 0.00707188,-0.00051601 0.0129341,-0.00499092 0.0152604,-0.0116568 0.0326525,-0.0924166 0.120433,-0.154431 0.218357,-0.154431 0.0844904,0 0.162357,0.0461533 0.203139,0.120484 0.0025293,0.00467793 0.00686886,0.00783321 0.0121051,0.00883985 0.0786028,0.0144398 0.137919,0.08559 0.137919,0.165512 0,0.0927973 -0.0755405,0.168329 -0.168329,0.168329l-0.407682 -8.45919e-006 0 -1.69184e-005zm-0.000270694 -0.25419c-0.00420422,0 -0.00839151,0.000270694 -0.0125788,0.000735949 -0.0528022,0.00642052 -0.0926366,0.0514572 -0.0926366,0.10475 0,0.0581907 0.0472953,0.105528 0.105486,0.105528l0.407682 0c0.069027,0 0.125162,-0.0561352 0.125162,-0.125162 0,-0.0771901 -0.0660916,-0.124976 -0.127328,-0.124976 -0.0326102,0 -0.0624711,0.0125788 -0.086326,0.0364591 -0.0236096,0.0236603 -0.0366367,0.0550778 -0.0366367,0.0885169 0,0.0118852 -0.00971115,0.0215963 -0.0216471,0.0215963 -0.0118852,0 -0.0215963,-0.00971115 -0.0215963,-0.0215963 0,-0.044986 0.0175274,-0.0872396 0.0493509,-0.119029 0.0188471,-0.0188894 0.0421014,-0.0331262 0.0672759,-0.0412301 0.00586222,-0.00197099 0.00995646,-0.00628518 0.0115468,-0.0121559 0.0016157,-0.00577762 0.000219939,-0.0116398 -0.00380663,-0.0162247 -0.0358077,-0.0400373 -0.0871296,-0.0630294 -0.140803,-0.0630294 -0.0743478,0 -0.141945,0.043937 -0.172271,0.111864 -0.00192869,0.00445799 -0.00205558,0.00894982 -0.000355286,0.0134755 0.00179335,0.00445799 0.00494862,0.00774016 0.00931356,0.00971115 0.0190247,0.00834922 0.0365014,0.0209534 0.0504929,0.0363237 0.00389123,0.00422959 0.00586222,0.0097619 0.00559152,0.0154634 -0.000270694,0.00570149 -0.00274924,0.0110139 -0.00698729,0.0149051 -0.00402657,0.00362899 -0.00913592,0.00564228 -0.0145075,0.00564228 -0.00615829,0 -0.0117921,-0.002487 -0.0159117,-0.00702958 -0.0200736,-0.02196 -0.0486488,-0.0345389 -0.0785097,-0.0345389l0 0z"
       id="path3720" /></g><path
     style="fill:#ffffff;fill-opacity:1"
     d="m 18.662634,40.275563 c -1.453615,-0.387981 -2.624061,-1.500558 -3.103752,-2.950294 -0.130474,-0.394323 -0.155105,-0.606336 -0.152249,-1.310484 0.003,-0.736285 0.02613,-0.905494 0.187336,-1.369823 0.455479,-1.311906 1.474553,-2.336315 2.765341,-2.779818 0.480705,-0.165165 0.632363,-0.184917 1.412195,-0.183925 0.776277,9.88e-4 0.928598,0.02106 1.366573,0.180055 0.65408,0.23745 1.144301,0.53776 1.691115,1.035977 0.54512,0.496674 0.790918,0.56923 1.246166,0.367852 0.37853,-0.167442 0.601826,-0.586446 0.531216,-0.9968 -0.06245,-0.362925 -0.959966,-1.2244 -1.69805,-1.629862 -0.95229,-0.523135 -0.940339,-0.513784 -1.027193,-0.803676 -0.07791,-0.260044 -0.06883,-0.298306 0.199073,-0.838959 0.36642,-0.739468 0.933621,-1.493515 1.600112,-2.127219 1.491096,-1.417744 3.318945,-2.151105 5.370798,-2.154847 2.084476,-0.0038 3.697086,0.619521 5.386635,2.082095 0.660861,0.572081 0.813956,0.920898 0.592302,1.349529 -0.07446,0.143998 -0.228945,0.240191 -0.655242,0.40801 -2.437168,0.959432 -4.089443,2.958811 -4.521107,5.470886 -0.151687,0.88274 -0.136665,1.38196 0.04999,1.661366 0.385441,0.576969 1.189662,0.584287 1.563182,0.01422 0.07216,-0.110133 0.133482,-0.416673 0.171932,-0.859487 0.06898,-0.794398 0.246224,-1.428575 0.575512,-2.05917 0.666049,-1.275499 1.97346,-2.309979 3.349997,-2.650661 0.622399,-0.154039 1.727561,-0.152865 2.341142,0.0025 3.154139,0.798594 4.849501,3.792231 3.835684,6.772976 -0.252868,0.743463 -0.655179,1.362859 -1.305271,2.009592 -0.504887,0.502277 -0.681187,0.62847 -1.283524,0.91873 -1.218675,0.587267 -0.459431,0.549326 -10.892964,0.544326 -7.89006,-0.0038 -9.280892,-0.01872 -9.596949,-0.103079 z"
     id="path3745"
     inkscape:connector-curvature="0"
     transform="scale(0.02387378,0.02387378)" /></svg>