<?xml version="1.0" encoding="UTF-8" standalone="no"?>
<!-- Creator: CorelDRAW -->

<svg
   xmlns:dc="http://purl.org/dc/elements/1.1/"
   xmlns:cc="http://creativecommons.org/ns#"
   xmlns:rdf="http://www.w3.org/1999/02/22-rdf-syntax-ns#"
   xmlns:svg="http://www.w3.org/2000/svg"
   xmlns="http://www.w3.org/2000/svg"
   xmlns:sodipodi="http://sodipodi.sourceforge.net/DTD/sodipodi-0.dtd"
   xmlns:inkscape="http://www.inkscape.org/namespaces/inkscape"
   xml:space="preserve"
   width="15.875mm"
   height="15.875mm"
   style="shape-rendering:geometricPrecision; text-rendering:geometricPrecision; image-rendering:optimizeQuality; fill-rule:evenodd; clip-rule:evenodd"
   viewBox="0 0 1.34179 1.34179"
   id="svg3958"
   version="1.1"
   inkscape:version="0.91 r"
   sodipodi:docname="sunny.svg"><metadata
     id="metadata3976"><rdf:RDF><cc:Work
         rdf:about=""><dc:format>image/svg+xml</dc:format><dc:type
           rdf:resource="http://purl.org/dc/dcmitype/StillImage" /><dc:title></dc:title></cc:Work></rdf:RDF></metadata><sodipodi:namedview
     pagecolor="#ffffff"
     bordercolor="#666666"
     borderopacity="1"
     objecttolerance="10"
     gridtolerance="10"
     guidetolerance="10"
     inkscape:pageopacity="0"
     inkscape:pageshadow="2"
     inkscape:window-width="1920"
     inkscape:window-height="1011"
     id="namedview3974"
     showgrid="false"
     inkscape:zoom="14.88"
     inkscape:cx="28.125"
     inkscape:cy="28.125"
     inkscape:window-x="0"
     inkscape:window-y="24"
     inkscape:window-maximized="1"
     inkscape:current-layer="svg3958" /><defs
     id="defs3960"><style
       type="text/css"
       id="style3962"><![CDATA[
    .fil0 {fill:none}
    .fil2 {fill:#0076B6}
    .fil1 {fill:#EDA43A}
    .fil3 {fill:white}
   ]]></style></defs><g
     id="Warstwa_x0020_1"><metadata
       id="CorelCorpID_0Corel-Layer" /><rect
       class="fil0"
       width="1.34179"
       height="1.34179"
       id="rect3966" /><path
       class="fil1"
       d="M0.660567 0.382497c0.114857,0 0.209429,0.0945973 0.209429,0.209455 0,0.114815 -0.0945719,0.209387 -0.209429,0.209387 -0.114857,0 -0.209455,-0.0945719 -0.209455,-0.209387 0,-0.114857 0.094555,-0.209455 0.209455,-0.209455m0.0122304 -0.141625l0.030259 0.0981979c0.00131855,0.00425147 0.000473325,0.00851984 -0.00239198,0.0119683 -0.0028653,0.00339779 -0.00691392,0.00501217 -0.0113344,0.00447123 -0.0190767,-0.00230746 -0.0384238,-0.00230746 -0.0574751,0 -0.00442897,0.000540942 -0.00847758,-0.00104808 -0.0113344,-0.00447123 -0.0028653,-0.00344005 -0.00371053,-0.00769152 -0.00239198,-0.0119853l0.0302759 -0.0981726c0.00165664,-0.00546014 0.00650821,-0.00901007 0.0122135,-0.00899317 0.00565454,-8.45222e-006 0.0105061,0.00352458 0.0121797,0.00898471m-0.177159 0.0409426c-0.00418385,-0.00388802 -0.0101765,-0.00460646 -0.0150957,-0.00174116 -0.00494455,0.0028653 -0.00735343,0.00838461 -0.0060856,0.0139293l0.0228802 0.100167c0.00100581,0.00433599 0.00388802,0.00762391 0.00805497,0.00917066 0.00420076,0.0015214 0.00851984,0.00091284 0.0120951,-0.00174116 0.0153661,-0.0115626 0.03211,-0.0212235 0.0497582,-0.0288052 0.00411623,-0.00172425 0.00682094,-0.00516431 0.00758164,-0.00952566 0.0007607,-0.00442897 -0.000625465,-0.00851984 -0.00388802,-0.011588l-0.0753009 -0.0698661zm-0.13297 0.123986c-0.00554466,-0.00125093 -0.0110471,0.00114105 -0.0139293,0.00606024 -0.00283995,0.00498681 -0.00217222,0.0109372 0.00172425,0.0151379l0.069883 0.0753009c0.0030428,0.00326256 0.00715903,0.00464872 0.0115626,0.00391338 0.00440361,-0.0007607 0.00785212,-0.00349077 0.00959327,-0.007607 0.00755629,-0.0176482 0.0172003,-0.0343921 0.0287122,-0.0497329 0.00266245,-0.00355839 0.00331327,-0.00791973 0.00179187,-0.0120782 -0.0015214,-0.00415849 -0.00480932,-0.00709142 -0.00917066,-0.00809723l-0.100167 -0.0228971zm-0.0531391 0.173896l0.0981726 -0.0302759c0.00426837,-0.00129319 0.0085621,-0.000447968 0.0120106,0.00243424 0.00338089,0.00283995 0.00502907,0.00691392 0.00449658,0.0113175 -0.00232436,0.0190513 -0.00232436,0.0383731 0,0.0574498 0.000515586,0.00445432 -0.00111569,0.00847758 -0.00453884,0.0113851 -0.00339779,0.00283995 -0.00769152,0.00371053 -0.0119683,0.00239198l-0.0981726 -0.030259c-0.00543478,-0.00172425 -0.00901007,-0.00653357 -0.00901007,-0.0122135 -1.69044e-005,-0.00572216 0.00358374,-0.0105315 0.00901007,-0.0122304m0.0409257 0.177159c-0.00388802,0.00422611 -0.0045642,0.0101765 -0.00167354,0.015121 0.00283995,0.00491919 0.00834234,0.00733653 0.013887,0.00606024l0.100167 -0.0228548c0.00436135,-0.00100581 0.00764926,-0.00388802 0.00917066,-0.00807187 0.0015214,-0.00418385 0.000870579,-0.0085452 -0.00179187,-0.0120951 -0.011495,-0.0153408 -0.0211813,-0.0320931 -0.0287122,-0.0497836 -0.00174116,-0.00409088 -0.00516431,-0.00679559 -0.00959327,-0.00755629 -0.0043867,-0.000735343 -0.00851984,0.000600108 -0.0115626,0.00391338l-0.0698914 0.0752671zm0.124011 0.13297c-0.00125093,0.00557002 0.00116641,0.0110724 0.00610251,0.0139293 0.00491919,0.00283995 0.0108949,0.00214686 0.0150703,-0.00174116l0.0753009 -0.069883c0.00326256,-0.00301744 0.00464872,-0.00717594 0.00388802,-0.0115626 -0.0007607,-0.00436135 -0.00346541,-0.0078014 -0.00758164,-0.00956792 -0.0176482,-0.00751403 -0.0343921,-0.0172172 -0.0497582,-0.0287629 -0.00357529,-0.00266245 -0.00789438,-0.00326256 -0.0120951,-0.00176651 -0.00418385,0.00154676 -0.0070407,0.00483467 -0.00805497,0.00917066l-0.0228717 0.100184zm0.173896 0.0531391l-0.0302759 -0.0982233c-0.00131855,-0.00426837 -0.000473325,-0.00849448 0.00239198,-0.0119176 0.0028653,-0.00346541 0.00691392,-0.00505443 0.0113344,-0.00453884 0.0190767,0.00230746 0.0384238,0.00230746 0.0574751,0 0.00442897,-0.000515586 0.00849448,0.00107343 0.0113344,0.00453884 0.0028653,0.00342315 0.00373588,0.00767462 0.00239198,0.0119176l-0.030259 0.0982233c-0.00167354,0.00543478 -0.00653357,0.00899317 -0.0122304,0.00899317 -0.00563763,-8.45222e-006 -0.0105146,-0.00355839 -0.0121627,-0.00899317m0.177133 -0.040951c0.00422611,0.00387112 0.0101765,0.00458111 0.015121,0.00172425 0.00494455,-0.00283995 0.00733653,-0.00838461 0.00606024,-0.0139124l-0.0228802 -0.100167c-0.00100581,-0.00433599 -0.00388802,-0.00762391 -0.00802961,-0.00917066 -0.00420076,-0.00149604 -0.0085452,-0.000895936 -0.0121205,0.00176651 -0.0153661,0.0115626 -0.03211,0.0212489 -0.0497836,0.0287629 -0.00409088,0.00179187 -0.00679559,0.00520657 -0.00758164,0.00956792 -0.0007607,0.00440361 0.000650821,0.00851984 0.00391338,0.0115626l0.0753009 0.0698661zm0.132996 -0.124003c0.00554466,0.00127629 0.0110471,-0.00111569 0.013887,-0.00606024 0.00288221,-0.00494455 0.00218913,-0.0108949 -0.00165664,-0.015121l-0.0699337 -0.0752755c-0.00301744,-0.00328791 -0.00715903,-0.00464872 -0.0115373,-0.00391338 -0.00440361,0.000718439 -0.00786902,0.00346541 -0.00961863,0.00755629 -0.00755629,0.0176905 -0.0172172,0.0344175 -0.0287376,0.0497836 -0.00266245,0.00355839 -0.00326256,0.00791973 -0.00174116,0.0120951 0.0015214,0.00418385 0.00480932,0.0070407 0.0091284,0.00807187l0.10021 0.0228633zm0.0531138 -0.173871l-0.0981979 0.0302759c-0.00422611,0.00129319 -0.0085621,0.000447968 -0.0119683,-0.00239198 -0.00339779,-0.00288221 -0.00502907,-0.00693082 -0.00449658,-0.0113851 0.00232436,-0.0190767 0.00232436,-0.0383985 0,-0.0574498 -0.000515586,-0.00442897 0.00109879,-0.00849448 0.00449658,-0.0113598 0.00344005,-0.00283995 0.00773378,-0.00373588 0.0120106,-0.00239198l0.0981557 0.030259c0.00546014,0.00172425 0.00903543,0.00653357 0.00903543,0.0122557 1.69044e-005,0.00567989 -0.00358374,0.0104892 -0.00903543,0.0121881m-0.0409257 -0.177159c0.00388802,-0.00420076 0.00458111,-0.0101511 0.0016989,-0.0150957 -0.00283995,-0.00494455 -0.00834234,-0.00733653 -0.013887,-0.0060856l-0.100184 0.0228548c-0.00431909,0.00100581 -0.007607,0.00388802 -0.0091284,0.00809723 -0.0015214,0.00418385 -0.00091284,0.00851984 0.00174116,0.0120782 0.0115373,0.0153154 0.0211813,0.0320931 0.0287376,0.0497329 0.00174116,0.00411623 0.00518967,0.0068463 0.00961863,0.007607 0.00436135,0.000735343 0.00851984,-0.000650821 0.0115373,-0.00391338l0.0698661 -0.0752755zm-0.124003 -0.132996c0.00127629,-0.00554466 -0.00114105,-0.0110471 -0.00606024,-0.013887 -0.00494455,-0.0028653 -0.0108696,-0.00217222 -0.015121,0.0016989l-0.0753009 0.069883c-0.00326256,0.0030597 -0.00467408,0.00715903 -0.00391338,0.011588 0.000786057,0.00436135 0.00349077,0.0078014 0.00758164,0.00952566 0.0176651,0.00755629 0.0344175,0.0172425 0.0497836,0.0288052 0.00357529,0.00266245 0.00791973,0.00326256 0.0121205,0.00174116 0.00415849,-0.00154676 0.0070238,-0.00483467 0.00802961,-0.00917066l0.0228802 -0.100184zm-0.18611 0.151886c-0.0801271,0 -0.146054,0.0659527 -0.146054,0.14608 0,0.0800848 0.0659527,0.146029 0.146054,0.146029 0.0801017,0 0.146029,-0.0659527 0.146029,-0.146029 0,-0.0801271 -0.0659189,-0.14608 -0.146029,-0.14608z"
       id="path3968" /><path
       class="fil2"
       d="M0.510692 0.677733c-0.00123402,-0.000177497 -0.00230746,-0.000870579 -0.00300054,-0.0021046 -0.0163466,-0.0299209 -0.0481946,-0.0489046 -0.0823162,-0.0489046 -0.0395818,0 -0.0752755,0.0255173 -0.0884694,0.0626141 -0.000490229,0.00176651 -0.00207925,0.00281459 -0.00387112,0.00300054 -0.0316451,0.00230746 -0.0566045,0.0288474 -0.0566045,0.0608476 0,0.0337497 0.027419,0.061211 0.0610081,0.061211l0.160753 0c0.0377899,0 0.0689701,-0.0311295 0.0689701,-0.0689448 -8.45222e-006,-0.0330313 -0.0241142,-0.0617435 -0.0564693,-0.0677192m-0.0125008 0.11468l-0.160753 0c-0.0214264,0 -0.0390239,-0.0175975 -0.0390239,-0.0392268 0,-0.0198796 0.015121,-0.0363615 0.0343076,-0.0386858 0.0124755,-0.00156366 0.0251369,0.00317804 0.0337666,0.0125008 0.00400635,0.0045642 0.0110724,0.0047417 0.015476,0.000693082 0.00453884,-0.00407397 0.00491919,-0.0110893 0.000853675,-0.015476 -0.00581513,-0.00634762 -0.0130164,-0.0114274 -0.0207333,-0.0149604 -0.00127629,-0.000515586 -0.00196937,-0.00123402 -0.00248495,-0.00243424 -0.000354993,-0.00107343 -0.000354993,-0.00230746 0.000202853,-0.00335553 0.011402,-0.0256694 0.0372574,-0.0427344 0.0655893,-0.0427344 0.0205727,0 0.0401227,0.00896781 0.0536294,0.0240888 0.00107343,0.00107343 0.00138616,0.00263709 0.00107343,0.00407397 -0.000540942,0.00158902 -0.00158902,0.00263709 -0.00300054,0.00317804 -0.0105737,0.00333018 -0.0198796,0.0091284 -0.0276219,0.0167016 -0.0124755,0.0124755 -0.0200402,0.0297011 -0.0200402,0.0487102 0,0.00612786 0.00491919,0.0110724 0.0108949,0.0110724 0.00615322,0 0.0110724,-0.00494455 0.0110724,-0.0110724 0,-0.0128136 0.00527419,-0.0246467 0.0137095,-0.0330566 0.0298786,-0.0299209 0.0800341,-0.0070407 0.0800341,0.0330566 3.38089e-005,0.0258131 -0.0212573,0.0469267 -0.0469521,0.0469267z"
       id="path3970" /><path
       class="fil3"
       d="M0.477103 0.680041c0.00138616,-0.000540942 0.00243424,-0.00158902 0.00300054,-0.00317804 0.000338089,-0.00141152 0,-0.00300054 -0.00107343,-0.00407397 -0.0135067,-0.015121 -0.0330736,-0.0240888 -0.0536294,-0.0240888 -0.0283319,0 -0.0541872,0.017065 -0.0655893,0.0427344 -0.000540942,0.00107343 -0.000540942,0.00230746 -0.000202853,0.00335553 0.000515586,0.00120867 0.00123402,0.00192711 0.00248495,0.00243424 0.00771688,0.00353303 0.0149182,0.00861282 0.0207333,0.0149604 0.00407397,0.0043867 0.00369362,0.011402 -0.000853675,0.015476 -0.00440361,0.00404862 -0.011495,0.00387112 -0.015476,-0.000693082 -0.00862972,-0.0093228 -0.0212912,-0.0140645 -0.0337666,-0.0125008 -0.0191865,0.00232436 -0.0343076,0.0188316 -0.0343076,0.0386858 0,0.0216292 0.0175975,0.0392268 0.0390239,0.0392268l0.160744 8.45222e-006c0.0256694,0 0.0469859,-0.0211137 0.0469859,-0.0469606 0,-0.040072 -0.0501639,-0.0629775 -0.0800341,-0.0330566 -0.00842687,0.00840996 -0.0137095,0.0202177 -0.0137095,0.0330566 0,0.00612786 -0.00491919,0.0110724 -0.0110724,0.0110724 -0.00599263,0 -0.0108949,-0.00494455 -0.0108949,-0.0110724 0,-0.0190091 0.00755629,-0.0362262 0.0200402,-0.0487102 0.00771688,-0.00757319 0.0170143,-0.0133461 0.0275965,-0.0166762z"
       id="path3972" /></g></svg>