<?xml version="1.0" encoding="UTF-8" standalone="no"?>
<!-- Creator: CorelDRAW -->

<svg
   xmlns:dc="http://purl.org/dc/elements/1.1/"
   xmlns:cc="http://creativecommons.org/ns#"
   xmlns:rdf="http://www.w3.org/1999/02/22-rdf-syntax-ns#"
   xmlns:svg="http://www.w3.org/2000/svg"
   xmlns="http://www.w3.org/2000/svg"
   xmlns:sodipodi="http://sodipodi.sourceforge.net/DTD/sodipodi-0.dtd"
   xmlns:inkscape="http://www.inkscape.org/namespaces/inkscape"
   xml:space="preserve"
   width="15.875mm"
   height="15.875mm"
   style="shape-rendering:geometricPrecision; text-rendering:geometricPrecision; image-rendering:optimizeQuality; fill-rule:evenodd; clip-rule:evenodd"
   viewBox="0 0 1.33956 1.33956"
   id="svg3393"
   version="1.1"
   inkscape:version="0.91 r"
   sodipodi:docname="clear.svg"><metadata
     id="metadata3407"><rdf:RDF><cc:Work
         rdf:about=""><dc:format>image/svg+xml</dc:format><dc:type
           rdf:resource="http://purl.org/dc/dcmitype/StillImage" /><dc:title></dc:title></cc:Work></rdf:RDF></metadata><sodipodi:namedview
     pagecolor="#ffffff"
     bordercolor="#666666"
     borderopacity="1"
     objecttolerance="10"
     gridtolerance="10"
     guidetolerance="10"
     inkscape:pageopacity="0"
     inkscape:pageshadow="2"
     inkscape:window-width="1920"
     inkscape:window-height="1011"
     id="namedview3405"
     showgrid="false"
     inkscape:zoom="14.88"
     inkscape:cx="28.125"
     inkscape:cy="28.125"
     inkscape:window-x="0"
     inkscape:window-y="24"
     inkscape:window-maximized="1"
     inkscape:current-layer="svg3393" /><defs
     id="defs3395"><style
       type="text/css"
       id="style3397"><![CDATA[
    .fil0 {fill:none}
    .fil1 {fill:#EDA43A}
   ]]></style></defs><g
     id="Warstwa_x0020_1"><metadata
       id="CorelCorpID_0Corel-Layer" /><rect
       class="fil0"
       width="1.33956"
       height="1.33956"
       id="rect3401" /><path
       class="fil1"
       d="M0.68322 0.460985c0.114666,0 0.209081,0.0944145 0.209081,0.209081 0,0.114666 -0.0944145,0.209081 -0.209081,0.209081 -0.114666,0 -0.209106,-0.0944145 -0.209106,-0.209081 0,-0.114691 0.0944145,-0.209081 0.209106,-0.209081m0.01221 -0.141373l0.0302086 0.0980345c0.00131635,0.00421908 0.000447222,0.00850566 -0.002388,0.0119231 -0.00287741,0.00341745 -0.00691929,0.0050207 -0.0113156,0.0044891 -0.0190196,-0.00230362 -0.0383598,-0.00230362 -0.0573794,0 -0.00442159,0.000540042 -0.00846347,-0.00107165 -0.0113156,-0.0044891 -0.0028521,-0.00341745 -0.00370435,-0.00767872 -0.00241331,-0.0119484l0.0302255 -0.0980091c0.00167075,-0.00545105 0.00649738,-0.00899507 0.0121931,-0.00899507 0.00569575,0 0.0105139,0.00355246 0.0121847,0.00899507m-0.176864 0.0408407c-0.00417689,-0.00388155 -0.0101595,-0.0045566 -0.0150705,-0.00169607 -0.00493632,0.00283522 -0.00734119,0.00837065 -0.00607547,0.0139061l0.0228421 0.100001c0.00100414,0.00432877 0.00388155,0.00759434 0.00805844,0.0091554 0.00419376,0.00151887 0.00848034,0.00091132 0.012075,-0.00178889 0.0153152,-0.0115181 0.0320397,-0.0211629 0.0496501,-0.028715 0.00410938,-0.00173826 0.00680959,-0.00513883 0.00756902,-0.0095098 0.000759434,-0.00442159 -0.000624423,-0.00850566 -0.00388155,-0.0115434l-0.0751671 -0.0698088zm-0.132774 0.123796c-0.00553543,-0.00129104 -0.011054,0.00113915 -0.0139061,0.00605016 -0.00283522,0.00497851 -0.00216861,0.010919 0.00172138,0.0150959l0.0697666 0.0751924c0.00303773,0.00324025 0.00714712,0.00464098 0.0115434,0.00388155 0.00439628,-0.000784748 0.00781373,-0.00345964 0.00955199,-0.00756902 0.00754371,-0.0176611 0.0171716,-0.0343602 0.0286897,-0.0496754 0.00265802,-0.00352715 0.00330776,-0.00790655 0.00176357,-0.0120581 -0.00151887,-0.00419376 -0.00477599,-0.00707961 -0.00913008,-0.00808375l-0.100001 -0.0228336zm-0.0530422 0.173607l0.0980091 -0.0302255c0.00426127,-0.00129104 0.00853097,-0.000472537 0.0119653,0.00241331 0.00339214,0.00286053 0.0050207,0.00690241 0.0044891,0.0113156 -0.00230362,0.0190196 -0.00230362,0.0383345 0,0.0573541 0.000540042,0.00446378 -0.00109696,0.00846347 -0.00450597,0.0113409 -0.00341745,0.00286053 -0.00767872,0.00372966 -0.0119484,0.00241331l-0.0980091 -0.0301833c-0.00542573,-0.00172138 -0.00902038,-0.00652269 -0.00902038,-0.01221 1.68763e-005,-0.00572107 0.00359465,-0.0105477 0.00902038,-0.0122184m0.0408744 0.176864c-0.00388155,0.00419376 -0.0045566,0.0101595 -0.00169607,0.0150959 0.00286053,0.004911 0.00835377,0.00734119 0.0138892,0.00605016l0.100001 -0.0228421c0.00435409,-0.00100414 0.00761121,-0.00388155 0.00913008,-0.00805844 0.00154418,-0.00419376 0.000894444,-0.00853097 -0.00176357,-0.0120581 -0.0115012,-0.0153406 -0.0211629,-0.0320565 -0.0286897,-0.0497176 -0.00173826,-0.00408407 -0.00515571,-0.00678427 -0.00955199,-0.00752683 -0.00439628,-0.000784748 -0.00850566,0.000599109 -0.0115434,0.00386467l-0.0697751 0.0751924zm0.123779 0.132732c-0.00124885,0.00557762 0.00113915,0.011054 0.00609235,0.0139061 0.004911,0.00283522 0.0108768,0.00214329 0.0150452,-0.00172138l0.0751755 -0.0697666c0.00325713,-0.00301242 0.00464098,-0.00716399 0.00388155,-0.0115434 -0.000759434,-0.0043794 -0.00345964,-0.00781373 -0.00756902,-0.00955199 -0.0176189,-0.00754371 -0.0343348,-0.0171716 -0.0496501,-0.028715 -0.00359465,-0.00265802 -0.00788123,-0.00328244 -0.012075,-0.00176357 -0.00417689,0.00154418 -0.0070543,0.00480131 -0.00805844,0.0091554l-0.0228421 0.100001zm0.173623 0.0530844l-0.0302255 -0.0980766c-0.00129104,-0.00424439 -0.000447222,-0.00850566 0.00241331,-0.0119484 0.00286053,-0.00341745 0.00690241,-0.0050207 0.0113156,-0.0044891 0.0190196,0.00230362 0.0383598,0.00230362 0.0573794,0 0.00442159,-0.000540042 0.00848034,0.00104633 0.0113156,0.0044891 0.00283522,0.00343433 0.00370435,0.00770403 0.002388,0.0119484l-0.0302086 0.0980766c-0.00167075,0.00542573 -0.00652269,0.00897819 -0.01221,0.00897819 -0.00564512,0 -0.0104886,-0.00356934 -0.0121678,-0.00897819m0.176821 -0.0408744c0.00419376,0.00386467 0.0101595,0.0045566 0.0150959,0.00169607 0.00493632,-0.00283522 0.00732432,-0.00837065 0.00605016,-0.0139061l-0.0228421 -0.100001c-0.00100414,-0.00435409 -0.00388155,-0.00761121 -0.00804156,-0.0091554 -0.00417689,-0.00151887 -0.00848034,-0.000894444 -0.0120581,0.00176357 -0.0153574,0.0115434 -0.0320565,0.0211629 -0.0497176,0.028715 -0.00408407,0.00173826 -0.0067674,0.00518103 -0.00754371,0.00955199 -0.000784748,0.00439628 0.000624423,0.00850566 0.00388155,0.0115434l0.0751755 0.069792zm0.132774 -0.123796c0.00553543,0.00124885 0.0110287,-0.00113915 0.0138892,-0.00605016 0.00286053,-0.00497851 0.00218548,-0.0108937 -0.00165388,-0.0150959l-0.0698173 -0.0751755c-0.00303773,-0.00325713 -0.00714712,-0.00464098 -0.0115434,-0.00386467 -0.00439628,0.000734119 -0.00783904,0.00343433 -0.0095773,0.00752683 -0.00754371,0.0176611 -0.0171885,0.0343602 -0.0286897,0.0497176 -0.00265802,0.00352715 -0.00328244,0.00788123 -0.00176357,0.0120581 0.00154418,0.00417689 0.00482662,0.0070543 0.00913008,0.00805844l0.100026 0.0228252zm0.0530507 -0.173607l-0.0980345 0.0302255c-0.00424439,0.00131635 -0.00854785,0.000447222 -0.0119484,-0.00241331 -0.00339214,-0.00287741 -0.0050207,-0.00687709 -0.0044891,-0.0113409 0.00232049,-0.0190196 0.00232049,-0.0383345 0,-0.0573541 -0.000514727,-0.00442159 0.00109696,-0.00848034 0.0044891,-0.0113409 0.00343433,-0.00286053 0.00770403,-0.00372966 0.0119653,-0.002388l0.0980091 0.0302086c0.00545105,0.00167075 0.00902038,0.00652269 0.00902038,0.01221 0,0.00568731 -0.00356934,0.0105139 -0.00901195,0.0121931m-0.0408828 -0.176847c0.00388155,-0.00419376 0.0045566,-0.0101173 0.00169607,-0.0150705 -0.00283522,-0.00493632 -0.00835377,-0.00736651 -0.0138892,-0.00607547l-0.100001 0.0228421c-0.00432877,0.000978826 -0.00759434,0.00388155 -0.00913008,0.00808375 -0.00151887,0.00415157 -0.000894444,0.00850566 0.00176357,0.0120581 0.0115181,0.0152899 0.021146,0.0320397 0.0286897,0.0496754 0.00173826,0.00410938 0.00515571,0.00680959 0.0095773,0.00756902 0.0043794,0.000759434 0.00850566,-0.000649738 0.0115434,-0.00388155l0.0697498 -0.0752008zm-0.123771 -0.132791c0.00127416,-0.00553543 -0.00113915,-0.0110287 -0.00605016,-0.0138639 -0.00493632,-0.00286053 -0.0108768,-0.00218548 -0.0150959,0.00167075l-0.0751755 0.069792c-0.00325713,0.00303773 -0.0046663,0.0071218 -0.00388155,0.0115434 0.000784748,0.0043794 0.00345964,0.00778841 0.00754371,0.0095098 0.0176611,0.00754371 0.0343602,0.0172138 0.0497176,0.028715 0.00356934,0.00268333 0.00790655,0.00330776 0.0120581,0.00178889 0.00417689,-0.00154418 0.00702898,-0.00480131 0.00804156,-0.0091554l0.0228421 -0.100001zm-0.1858 0.151617c-0.0799937,0 -0.145811,0.0658598 -0.145811,0.145811 0,0.0799515 0.0658429,0.145811 0.145811,0.145811 0.0799684,0 0.145811,-0.0658598 0.145811,-0.145811 -2.53145e-005,-0.0799515 -0.0658598,-0.145811 -0.145811,-0.145811z"
       id="path3403" /></g></svg>