<?xml version="1.0" encoding="UTF-8" standalone="no"?>
<!-- Generator: Adobe Illustrator 18.1.1, SVG Export Plug-In . SVG Version: 6.00 Build 0)  -->

<svg
   xmlns:dc="http://purl.org/dc/elements/1.1/"
   xmlns:cc="http://creativecommons.org/ns#"
   xmlns:rdf="http://www.w3.org/1999/02/22-rdf-syntax-ns#"
   xmlns:svg="http://www.w3.org/2000/svg"
   xmlns="http://www.w3.org/2000/svg"
   xmlns:sodipodi="http://sodipodi.sourceforge.net/DTD/sodipodi-0.dtd"
   xmlns:inkscape="http://www.inkscape.org/namespaces/inkscape"
   version="1.1"
   id="Capa_1"
   x="0px"
   y="0px"
   viewBox="0 0 32 32"
   style="enable-background:new 0 0 32 32;"
   xml:space="preserve"
   inkscape:version="0.91 r"
   sodipodi:docname="cloudy.svg"><metadata
     id="metadata4267"><rdf:RDF><cc:Work
         rdf:about=""><dc:format>image/svg+xml</dc:format><dc:type
           rdf:resource="http://purl.org/dc/dcmitype/StillImage" /></cc:Work></rdf:RDF></metadata><defs
     id="defs4265" /><sodipodi:namedview
     pagecolor="#ffffff"
     bordercolor="#666666"
     borderopacity="1"
     objecttolerance="10"
     gridtolerance="10"
     guidetolerance="10"
     inkscape:pageopacity="0"
     inkscape:pageshadow="2"
     inkscape:window-width="1920"
     inkscape:window-height="1008"
     id="namedview4263"
     showgrid="false"
     inkscape:zoom="26.21875"
     inkscape:cx="16"
     inkscape:cy="16"
     inkscape:window-x="0"
     inkscape:window-y="24"
     inkscape:window-maximized="1"
     inkscape:current-layer="Capa_1" /><g
     id="g4223"
     style="fill:#ffffff"><g
       id="g4225"
       style="fill:#ffffff"><path
         style="fill:#ffffff"
         d="M20.529,8.055C20.85,8.019,21.172,8,21.5,8c3.01,0,5.654,1.564,7.165,3.924    C30.002,11.618,31,10.423,31,9c0-0.935-0.426-1.77-1.098-2.319C29.534,5.143,28.15,4,26.5,4c-0.398,0-0.781,0.066-1.139,0.189    C24.576,2.878,23.141,2,21.5,2c-2.064,0-3.805,1.391-4.334,3.286C18.464,5.978,19.607,6.923,20.529,8.055z"
         id="path4227" /><path
         style="fill:#ffffff"
         d="M15.5,22c-0.398,0-0.781,0.066-1.138,0.189C13.576,20.878,12.141,20,10.5,20    c-2.374,0-4.318,1.838-4.488,4.169C4.84,24.58,4,25.693,4,27c0,1.657,1.337,3,3.01,3h9.98c1.662,0,3.01-1.348,3.01-3    c0-0.936-0.426-1.77-1.098-2.318C18.534,23.143,17.15,22,15.5,22z"
         id="path4229" /><path
         style="fill:#ffffff"
         d="M27.586,14.212C26.66,11.751,24.284,10,21.5,10c-0.641,0-1.26,0.093-1.846,0.266    C18.068,7.705,15.233,6,12,6c-4.904,0-8.894,3.924-8.998,8.803C1.207,15.842,0,17.783,0,20c0,1.999,0.978,3.77,2.481,4.859    c0.29-0.611,0.701-1.154,1.201-1.6C2.665,22.535,2,21.345,2,20c0-1.893,1.317-3.482,3.087-3.896C5.029,15.745,5,15.376,5,15    c0-3.866,3.134-7,7-7c3.162,0,5.834,2.097,6.702,4.975C19.471,12.364,20.441,12,21.5,12c2.316,0,4.225,1.75,4.473,4h0.03    C28.206,16,30,17.791,30,20c0,2.205-1.789,4-3.997,4h-5.002c0.437,0.581,0.749,1.261,0.899,2H26c3.312,0,6-2.693,6-6    C32,17.234,30.13,14.907,27.586,14.212z"
         id="path4231" /></g></g><g
     id="g4233" /><g
     id="g4235" /><g
     id="g4237" /><g
     id="g4239" /><g
     id="g4241" /><g
     id="g4243" /><g
     id="g4245" /><g
     id="g4247" /><g
     id="g4249" /><g
     id="g4251" /><g
     id="g4253" /><g
     id="g4255" /><g
     id="g4257" /><g
     id="g4259" /><g
     id="g4261" /></svg>