<?xml version="1.0" encoding="UTF-8" standalone="no"?>
<!-- Creator: CorelDRAW -->

<svg
   xmlns:dc="http://purl.org/dc/elements/1.1/"
   xmlns:cc="http://creativecommons.org/ns#"
   xmlns:rdf="http://www.w3.org/1999/02/22-rdf-syntax-ns#"
   xmlns:svg="http://www.w3.org/2000/svg"
   xmlns="http://www.w3.org/2000/svg"
   xmlns:sodipodi="http://sodipodi.sourceforge.net/DTD/sodipodi-0.dtd"
   xmlns:inkscape="http://www.inkscape.org/namespaces/inkscape"
   xml:space="preserve"
   width="15.875mm"
   height="15.875mm"
   style="shape-rendering:geometricPrecision; text-rendering:geometricPrecision; image-rendering:optimizeQuality; fill-rule:evenodd; clip-rule:evenodd"
   viewBox="0 0 0.206162 0.206162"
   id="svg3393"
   version="1.1"
   inkscape:version="0.91 r"
   sodipodi:docname="cloudy.svg"><metadata
     id="metadata3407"><rdf:RDF><cc:Work
         rdf:about=""><dc:format>image/svg+xml</dc:format><dc:type
           rdf:resource="http://purl.org/dc/dcmitype/StillImage" /><dc:title></dc:title></cc:Work></rdf:RDF></metadata><sodipodi:namedview
     pagecolor="#ffffff"
     bordercolor="#666666"
     borderopacity="1"
     objecttolerance="10"
     gridtolerance="10"
     guidetolerance="10"
     inkscape:pageopacity="0"
     inkscape:pageshadow="2"
     inkscape:window-width="1920"
     inkscape:window-height="1011"
     id="namedview3405"
     showgrid="false"
     inkscape:zoom="14.88"
     inkscape:cx="28.125"
     inkscape:cy="28.125"
     inkscape:window-x="0"
     inkscape:window-y="24"
     inkscape:window-maximized="1"
     inkscape:current-layer="svg3393" /><defs
     id="defs3395"><style
       type="text/css"
       id="style3397"><![CDATA[
    .fil0 {fill:none}
    .fil1 {fill:#233361}
   ]]></style></defs><g
     id="Warstwa_x0020_1"><metadata
       id="CorelCorpID_0Corel-Layer" /><rect
       class="fil0"
       width="0.206162"
       height="0.206162"
       id="rect3401" /><path
       class="fil1"
       d="M0.145976 0.0692431c-0.000590889,-0.000110386 -0.00107269,-0.000461023 -0.00136099,-0.000999966 -0.0073491,-0.0133801 -0.0216201,-0.0219213 -0.0369481,-0.0219213 -0.017802,0 -0.0338482,0.0114529 -0.0397337,0.0281029 -0.00026103,0.000755819 -0.000910359,0.0012545 -0.00170773,0.00132983 -0.0142177,0.00101685 -0.0254745,0.0129606 -0.0254745,0.027364 0,0.0151047 0.0123554,0.0274679 0.027451,0.0274679l0.0721742 0c0.0169631,0 0.0309444,-0.013971 0.0309444,-0.0309379 0,-0.0148618 -0.0108373,-0.0277471 -0.0253446,-0.0304055m-0.00559981 0.0514333l-0.0721742 0c-0.00969318,0 -0.0175514,-0.00786857 -0.0175514,-0.0175578 0,-0.00895424 0.00676601,-0.0163696 0.0154281,-0.0174176 0.00555306,-0.000690886 0.0112944,0.00139865 0.0151255,0.00562449 0.00184539,0.00202071 0.00495827,0.00216486 0.00697899,0.000315574 0.00202071,-0.00182851 0.00216486,-0.00494399 0.000340248,-0.0069686 -0.0026077,-0.00285835 -0.0057998,-0.00515437 -0.00931917,-0.00669977 -0.000498684,-0.000219473 -0.000851919,-0.000570111 -0.00105841,-0.00108568 -0.000189604,-0.000505178 -0.000181812,-0.00102074 5.19463e-005,-0.00151813 0.0051232,-0.0115204 0.0167228,-0.0191357 0.0294704,-0.0191357 0.00922566,0 0.0180046,0.00398298 0.0240862,0.0107685 0.000450634,0.000511671 0.000594785,0.00117529 0.000422064,0.00185189 -0.000175319,0.000659718 -0.000645433,0.00115451 -0.00129866,0.0013532 -0.00471413,0.00151813 -0.00893996,0.004157 -0.0123697,0.00758286 -0.00560111,0.0056076 -0.00906073,0.0133177 -0.00906073,0.0218668 0,0.00273887 0.00220902,0.00494139 0.00495178,0.00494139 0.00272199,0 0.0049375,-0.00220642 0.0049375,-0.00494139 0,-0.0058037 0.00236096,-0.011084 0.00617122,-0.0148683 0.0134138,-0.0134281 0.0359001,-0.00315444 0.0359001,0.0148683 2.59732e-006,0.0115295 -0.00948669,0.0210201 -0.0210318,0.0210201z"
       id="path3403" /></g><path
     style="fill:#ffffff;fill-opacity:1"
     d="m 17.977748,32.849532 c -1.01978,-0.133977 -2.127113,-0.709883 -2.834915,-1.474394 -2.157323,-2.330166 -1.516974,-5.994184 1.302059,-7.45027 0.818073,-0.422549 1.186397,-0.508066 2.18414,-0.507106 0.80444,7.73e-4 0.920304,0.01735 1.462448,0.209196 0.756279,0.267625 1.208511,0.544001 1.875913,1.146441 0.741383,0.669221 1.145726,0.769927 1.794085,0.446836 0.643408,-0.320624 0.915634,-1.045322 0.651988,-1.735669 -0.204724,-0.536063 -1.464726,-1.588375 -2.562848,-2.140405 -0.581732,-0.292439 -0.636802,-0.471401 -0.334927,-1.088411 1.152044,-2.354693 3.48732,-4.140365 6.173042,-4.720225 0.778291,-0.168036 2.613696,-0.163594 3.406697,0.0082 1.665954,0.361004 3.165088,1.150942 4.371335,2.303383 0.824703,0.787916 0.7943,1.041813 -0.171066,1.428566 -1.222677,0.48984 -2.113102,1.071313 -2.995325,1.956033 -1.394371,1.398317 -2.227953,3.198342 -2.425828,5.238297 -0.08801,0.907307 -0.03077,1.216777 0.29329,1.585867 0.567849,0.646745 1.559255,0.663504 2.087858,0.03529 0.222769,-0.264746 0.288118,-0.513235 0.378788,-1.440344 0.296905,-3.035885 2.861212,-5.284416 5.853421,-5.132616 2.163823,0.109775 4.107797,1.4122 5.002161,3.351353 0.322984,0.70029 0.440283,1.192792 0.485627,2.038997 0.145103,2.707871 -1.598684,5.064821 -4.311713,5.82783 l -0.537634,0.151204 -10.349462,0.01049 c -5.692205,0.0058 -10.551815,-0.0161 -10.799134,-0.04859 z"
     id="path3411"
     inkscape:connector-curvature="0"
     transform="scale(0.0036651,0.0036651)" /></svg>