<?xml version="1.0" encoding="UTF-8" standalone="no"?>
<!-- Generator: Adobe Illustrator 18.1.1, SVG Export Plug-In . SVG Version: 6.00 Build 0)  -->

<svg
   xmlns:dc="http://purl.org/dc/elements/1.1/"
   xmlns:cc="http://creativecommons.org/ns#"
   xmlns:rdf="http://www.w3.org/1999/02/22-rdf-syntax-ns#"
   xmlns:svg="http://www.w3.org/2000/svg"
   xmlns="http://www.w3.org/2000/svg"
   xmlns:sodipodi="http://sodipodi.sourceforge.net/DTD/sodipodi-0.dtd"
   xmlns:inkscape="http://www.inkscape.org/namespaces/inkscape"
   version="1.1"
   id="Capa_1"
   x="0px"
   y="0px"
   viewBox="0 0 28 28"
   style="enable-background:new 0 0 28 28;"
   xml:space="preserve"
   inkscape:version="0.91 r"
   sodipodi:docname="compass.svg"><metadata
     id="metadata3577"><rdf:RDF><cc:Work
         rdf:about=""><dc:format>image/svg+xml</dc:format><dc:type
           rdf:resource="http://purl.org/dc/dcmitype/StillImage" /></cc:Work></rdf:RDF></metadata><defs
     id="defs3575" /><sodipodi:namedview
     pagecolor="#ffffff"
     bordercolor="#666666"
     borderopacity="1"
     objecttolerance="10"
     gridtolerance="10"
     guidetolerance="10"
     inkscape:pageopacity="0"
     inkscape:pageshadow="2"
     inkscape:window-width="1920"
     inkscape:window-height="1008"
     id="namedview3573"
     showgrid="false"
     inkscape:zoom="29.964286"
     inkscape:cx="14"
     inkscape:cy="14"
     inkscape:window-x="0"
     inkscape:window-y="24"
     inkscape:window-maximized="1"
     inkscape:current-layer="Capa_1" /><g
     id="g3535"
     style="fill:#ffffff"><g
       id="g3537"
       style="fill:#ffffff"><path
         style="fill:#ffffff"
         d="M14,0C6.268,0,0,6.268,0,14s6.268,14,14,14s14-6.268,14-14S21.732,0,14,0z M14,26    C7.373,26,2,20.627,2,14S7.373,2,14,2s12,5.373,12,12S20.627,26,14,26z"
         id="path3539" /><path
         style="fill:#ffffff"
         d="M6.222,21.777c0,0,8.838-3.183,10.606-4.949c1.768-1.768,4.949-10.606,4.949-10.606    s-8.838,3.183-10.605,4.95S6.222,21.777,6.222,21.777z M12.586,12.586l2.828,2.828c0.707,0.707-6.363,3.535-6.363,3.535    S11.879,11.879,12.586,12.586z"
         id="path3541" /></g></g><g
     id="g3543" /><g
     id="g3545" /><g
     id="g3547" /><g
     id="g3549" /><g
     id="g3551" /><g
     id="g3553" /><g
     id="g3555" /><g
     id="g3557" /><g
     id="g3559" /><g
     id="g3561" /><g
     id="g3563" /><g
     id="g3565" /><g
     id="g3567" /><g
     id="g3569" /><g
     id="g3571" /></svg>