<?xml version="1.0" encoding="UTF-8" standalone="no"?>
<!-- Creator: CorelDRAW -->

<svg
   xmlns:dc="http://purl.org/dc/elements/1.1/"
   xmlns:cc="http://creativecommons.org/ns#"
   xmlns:rdf="http://www.w3.org/1999/02/22-rdf-syntax-ns#"
   xmlns:svg="http://www.w3.org/2000/svg"
   xmlns="http://www.w3.org/2000/svg"
   xmlns:sodipodi="http://sodipodi.sourceforge.net/DTD/sodipodi-0.dtd"
   xmlns:inkscape="http://www.inkscape.org/namespaces/inkscape"
   xml:space="preserve"
   width="15.875mm"
   height="15.875mm"
   style="shape-rendering:geometricPrecision; text-rendering:geometricPrecision; image-rendering:optimizeQuality; fill-rule:evenodd; clip-rule:evenodd"
   viewBox="0 0 0.261788 0.261788"
   id="svg4501"
   version="1.1"
   inkscape:version="0.91 r"
   sodipodi:docname="nt_chancerain.svg"><metadata
     id="metadata4527"><rdf:RDF><cc:Work
         rdf:about=""><dc:format>image/svg+xml</dc:format><dc:type
           rdf:resource="http://purl.org/dc/dcmitype/StillImage" /><dc:title></dc:title></cc:Work></rdf:RDF></metadata><sodipodi:namedview
     pagecolor="#ffffff"
     bordercolor="#666666"
     borderopacity="1"
     objecttolerance="10"
     gridtolerance="10"
     guidetolerance="10"
     inkscape:pageopacity="0"
     inkscape:pageshadow="2"
     inkscape:window-width="1920"
     inkscape:window-height="1011"
     id="namedview4525"
     showgrid="false"
     inkscape:zoom="14.88"
     inkscape:cx="28.125"
     inkscape:cy="28.125"
     inkscape:window-x="0"
     inkscape:window-y="24"
     inkscape:window-maximized="1"
     inkscape:current-layer="svg4501" /><defs
     id="defs4503"><style
       type="text/css"
       id="style4505"><![CDATA[
    .fil0 {fill:none}
    .fil3 {fill:#0076B6}
    .fil1 {fill:#01A6D9}
    .fil4 {fill:#26307A}
    .fil2 {fill:white}
   ]]></style></defs><g
     id="Warstwa_x0020_1"><metadata
       id="CorelCorpID_0Corel-Layer" /><rect
       class="fil0"
       width="0.261788"
       height="0.261788"
       id="rect4509" /><path
       class="fil1"
       d="M0.10314 0.208388c0.00113455,0.0016672 0.00291389,0.00268797 0.00492244,0.00283638 0.00390992,0.000301778 0.00715527,-0.00292708 0.00703819,-0.00686834l0 -4.94718e-006 -0.00014017 -0.0100048c-8.2453e-006,-0.000326514 -0.000362793,-0.000524401 -0.000636537,-0.000379284l-0.00874826 0.00489111c-8.2453e-006,0 -8.2453e-006,0 -8.2453e-006,0 -0.00346468,0.00187333 -0.00463881,0.00629281 -0.00242742,0.00952992z"
       id="path4511" /><path
       class="fil1"
       d="M0.0856753 0.193392c0.00154847,0.0022724 0.00397094,0.00366586 0.00671497,0.00387859 0.00532811,0.000410616 0.00977398,-0.00399732 0.00962062,-0.00937161l0 -8.2453e-006 -0.000196238 -0.0136691c-8.2453e-006,-0.000445246 -0.000493069,-0.000733832 -0.0008773,-0.000501314l-0.0119458 0.0066622 -8.2453e-006 -1.64906e-006c-0.0047394,0.00255769 -0.0063225,0.0085916 -0.00330801,0.0130111z"
       id="path4513" /><path
       class="fil2"
       d="M0.074488 0.162963c-0.0103017,0 -0.0186789,-0.00838217 -0.0186789,-0.0186789 0,-0.0102489 0.00848606,-0.0185866 0.018918,-0.0185866 0.00482185,0 0.00940624,0.00192775 0.0129105,0.005432 0.00352899,0.00354713 0.00546334,0.00821562 0.00546334,0.0131546 0.000453492,-0.00512693 -0.00152703,-0.00993064 -0.0050956,-0.0135206 -0.00223448,-0.00216027 -0.00482185,-0.00372688 -0.00764504,-0.00460747 -0.00162762,-0.000620047 -0.00270116,-0.00177109 -0.0031629,-0.00323381 -0.000458439,-0.00172821 -2.6385e-005,-0.00344654 0.00109992,-0.00463386 0.00506097,-0.00563319 0.0123564,-0.00890163 0.0199388,-0.00890163 0.0105408,0 0.0201367,0.00625159 0.0244556,0.0159217 0.000501314,0.000994383 0.000588714,0.00230374 0.000161608,0.00354713 -0.000580469,0.00138686 -0.00143138,0.00225097 -0.00260881,0.00277537 -0.00214708,0.000972945 -0.0041144,0.00238619 -0.00567606,0.00408472l0 0c2.6385e-005,0 0.000384231,0.000278691 0.000410616,0.000278691l0 0c0.00308539,-0.0033377 0.00741253,-0.00524896 0.0118815,-0.00524896 0.000681062,0 0.00135718,4.28756e-005 0.00202834,0.000130276 0.00802762,0.000938315 0.014111,0.00778851 0.014111,0.0159382 0,0.00890163 -0.00721629,0.0161394 -0.0160833,0.0161394l-0.0524286 1.64906e-006 0 8.2453e-006z"
       id="path4515" /><path
       class="fil3"
       d="M0.0520575 0.143976c0,0.0122162 0.0100576,0.0222788 0.0222739,0.0222788l0.0519207 -1.64906e-006c0.0108294,0 0.0197046,-0.0088571 0.0197046,-0.0197656 0,-0.0103495 -0.00807215,-0.0189147 -0.0182864,-0.0196683 -0.000572224,-3.95774e-005 -0.00108178,-0.000387529 -0.00124339,-0.000959753 -0.00426282,-0.0119804 -0.0157898,-0.0202274 -0.0285749,-0.0202274 -0.0110174,0 -0.0213059,0.0061477 -0.0265977,0.0157947 -0.000214378,0.000387529 -0.000562329,0.000633239 -0.000972945,0.000676115 -0.0104451,0.00195414 -0.0182238,0.0112004 -0.0182238,0.0218731m0.0070992 0c0,-0.0129501 0.0162086,-0.020323 0.0258556,-0.0106727 0.00272755,0.00274074 0.00443267,0.00653193 0.00443267,0.0106727 0,0.00199371 0.0015831,0.00358671 0.00358671,0.00358671 0.00192445,0 0.00350425,-0.00159299 0.00350425,-0.00358671 0,-0.00612131 -0.00243896,-0.0116885 -0.00645772,-0.0157287 -0.00251317,-0.00243401 -0.00551446,-0.00432878 -0.00893131,-0.00538913 -0.000453492,-0.0001748 -0.000794847,-0.000524401 -0.000954806,-0.00103396 -0.000117083,-0.000432054 0,-0.000951508 0.000331461,-0.00130441 0.00437166,-0.00485648 0.010676,-0.00777037 0.0173349,-0.00777037 0.00914569,0 0.0174883,0.0055194 0.0211838,0.013796 0.000178098,0.000352899 0.000178098,0.00073713 6.10152e-005,0.00108673 -0.000178098,0.000397423 -0.000410616,0.000620047 -0.000803092,0.0007899 -0.00248678,0.00113455 -0.00482185,0.00278361 -0.00670673,0.00482515 -0.00130441,0.00143468 -0.00119062,0.00370874 0.000288586,0.00499995 0.00141324,0.00129946 0.00370049,0.00123515 0.004995,-0.000222623 0.00278856,-0.00301118 0.00687658,-0.00455965 0.0108986,-0.004027 0.00620376,0.000720639 0.0110866,0.00606854 0.0110866,0.0124916 0,0.00698542 -0.00568596,0.0126582 -0.0126054,0.0126582l-0.0519223 -1.64906e-006c-0.00829312,4.94718e-006 -0.0151779,-0.00682381 -0.0151779,-0.0151697z"
       id="path4517" /><path
       class="fil2"
       d="M0.183872 0.126305c0.0102934,0 0.0186707,-0.00837723 0.0186707,-0.0186789 0,-0.0102489 -0.00848606,-0.0185866 -0.018918,-0.0185866 -0.00482185,0 -0.00940624,0.00192775 -0.0129105,0.00544025 -0.00352899,0.00354218 -0.00546334,0.00820737 -0.00546334,0.0131463 -0.000445246,-0.00512693 0.00152703,-0.00992239 0.0050956,-0.0135206 0.00223448,-0.00216027 0.00482185,-0.00372688 0.00764504,-0.00460747 0.00162762,-0.000620047 0.00270116,-0.00177109 0.0031629,-0.00323381 0.000458439,-0.00172821 2.6385e-005,-0.00344324 -0.00109992,-0.00463386 -0.00506097,-0.00563319 -0.0123482,-0.00890163 -0.0199305,-0.00890163 -0.0105408,0 -0.0201449,0.00625653 -0.0244556,0.015925 -0.000511209,0.000994383 -0.00059696,0.00230374 -0.000169853,0.00354218 0.000580469,0.00138686 0.00143138,0.00224767 0.00260881,0.00277537 0.00214708,0.000972945 0.0041144,0.00238619 0.00567606,0.00408472l0 0c-2.6385e-005,0 -0.000384231,0.000278691 -0.000410616,0.000278691l0 0c-0.00308539,-0.0033377 -0.00741253,-0.00524896 -0.0118815,-0.00524896 -0.000671167,0 -0.00135718,4.28756e-005 -0.00202834,0.000130276 -0.00801938,0.000938315 -0.014111,0.00778851 -0.014111,0.0159431 0,0.00889668 0.00721629,0.0161344 0.0160915,0.0161344l0.0524286 3.29812e-006 0 8.2453e-006z"
       id="path4519" /><path
       class="fil3"
       d="M0.206294 0.107321c0,-0.0106727 -0.00778027,-0.0199223 -0.0182287,-0.0218632 -0.000410616,-5.6068e-005 -0.000758568,-0.000291884 -0.000972945,-0.00068436 -0.00529183,-0.009647 -0.015577,-0.0157898 -0.0265894,-0.0157898 -0.0127835,0 -0.0243203,0.00824695 -0.0285832,0.0202274 -0.000161608,0.000572224 -0.000662922,0.000925123 -0.00124339,0.000959753 -0.0102192,0.00075527 -0.0182864,0.00932049 -0.0182864,0.0196683 0,0.0109085 0.00887029,0.0197656 0.0197129,0.0197656l0.0519223 -1.64906e-006c0.0122113,-3.29812e-006 0.0222689,-0.0100659 0.0222689,-0.0222821m-0.0070992 0c0,0.00834589 -0.00688483,0.0151747 -0.0151714,0.0151747l-0.0519207 0c-0.00692935,0 -0.0126137,-0.00567606 -0.0126137,-0.0126582 0,-0.00642639 0.00489111,-0.0117677 0.0110866,-0.0124867 0.00403195,-0.000532646 0.00811173,0.00100428 0.0108986,0.00402206 0.00130441,0.00146601 0.00357846,0.00151878 0.00499995,0.000217676 0.00147426,-0.00128792 0.0015831,-0.00356032 0.000278691,-0.00499995 -0.00188488,-0.00204154 -0.00421005,-0.00369554 -0.00670673,-0.00482515 -0.000392476,-0.000169853 -0.000623345,-0.000392476 -0.000794847,-0.0007899 -0.000117083,-0.000352899 -0.000117083,-0.000733832 5.27699e-005,-0.00108178 0.00370049,-0.00828158 0.0120431,-0.013801 0.0211921,-0.013801 0.00664571,0 0.0129534,0.00291059 0.0173267,0.00777532 0.000331461,0.000349601 0.000453492,0.000869055 0.000331461,0.00129946 -0.000153363,0.000511209 -0.000501314,0.00085916 -0.000954806,0.00103396 -0.00341685,0.00106529 -0.00641814,0.00295841 -0.00892306,0.00538913 -0.00403195,0.00404514 -0.00645772,0.00960742 -0.00645772,0.0157287 0,0.00199042 0.00157485,0.00358671 0.00350425,0.00358671 0.00200196,0 0.00357846,-0.00159629 0.00357846,-0.00358671 0,-0.00414079 0.00170678,-0.00793198 0.00444092,-0.0106727 0.0096437,-0.0096536 0.0258523,-0.0022757 0.0258523,0.0106744z"
       id="path4521" /><path
       class="fil4"
       d="M0.0937128 0.0336573c0.00463386,0.00164081 0.00857346,0.00482515 0.0112054,0.00896264 0.00973935,0.0153626 -0.00291389,0.0354729 -0.0208029,0.0336573 -0.00373842,-0.000379284 -0.00731193,-0.00170678 -0.0103891,-0.0038654 -0.00348611,-0.00244391 -0.00792373,0.00137861 -0.00616913,0.00514012 0.0053446,0.0130111 0.0175608,0.0221436 0.0315713,0.0235568 0.00119062,0.00012203 0.00237794,0.000161608 0.00354218,0.000196238 0.00572389,0.000235816 0.00583767,-0.00810678 -0.00085916,-0.00831126 -0.000615099,-1.81397e-005 -0.00121701,-9.56455e-005 -0.001842,-0.000169853 -0.00626478,-0.000628292 -0.0122212,-0.00325854 -0.0169243,-0.00744716 -0.000169853,-0.00014017 -0.000204483,-0.000331461 -0.000117083,-0.000514507 8.74002e-005,-0.000196238 0.000257253,-0.000301778 0.000474929,-0.000278691 0.0243632,0.00239608 0.0419043,-0.0253362 0.0285386,-0.0464111 -0.000819583,-0.00129121 -0.00174471,-0.00253955 -0.00275393,-0.00370379 -0.000143468,-0.000153363 -0.000161608,-0.000357846 -6.10152e-005,-0.000527699 0.000108838,-0.000178098 0.000296831,-0.000270446 0.000511209,-0.000214378 0.0150576,0.00349931 0.0266801,0.0196436 0.0228065,0.035092 -0.00133079,0.00533141 0.00733007,0.0072773 0.00846957,-9.23474e-005 0.00334264,-0.0213834 -0.012518,-0.0417328 -0.0340366,-0.0439244 -0.00427601,-0.000427107 -0.00863943,-0.000117083 -0.0128181,0.000880598 -0.00402865,0.000954806 -0.00422654,0.0066754 -0.000346303,0.00797485z"
       id="path4523" /></g></svg>