<?xml version="1.0" encoding="UTF-8" standalone="no"?>
<!-- Generator: Adobe Illustrator 18.1.1, SVG Export Plug-In . SVG Version: 6.00 Build 0)  -->

<svg
   xmlns:dc="http://purl.org/dc/elements/1.1/"
   xmlns:cc="http://creativecommons.org/ns#"
   xmlns:rdf="http://www.w3.org/1999/02/22-rdf-syntax-ns#"
   xmlns:svg="http://www.w3.org/2000/svg"
   xmlns="http://www.w3.org/2000/svg"
   xmlns:sodipodi="http://sodipodi.sourceforge.net/DTD/sodipodi-0.dtd"
   xmlns:inkscape="http://www.inkscape.org/namespaces/inkscape"
   version="1.1"
   id="Capa_1"
   x="0px"
   y="0px"
   viewBox="0 0 32 32"
   style="enable-background:new 0 0 32 32;"
   xml:space="preserve"
   inkscape:version="0.91 r"
   sodipodi:docname="cloudy.svg"><metadata
     id="metadata3466"><rdf:RDF><cc:Work
         rdf:about=""><dc:format>image/svg+xml</dc:format><dc:type
           rdf:resource="http://purl.org/dc/dcmitype/StillImage" /></cc:Work></rdf:RDF></metadata><defs
     id="defs3464" /><sodipodi:namedview
     pagecolor="#ffffff"
     bordercolor="#666666"
     borderopacity="1"
     objecttolerance="10"
     gridtolerance="10"
     guidetolerance="10"
     inkscape:pageopacity="0"
     inkscape:pageshadow="2"
     inkscape:window-width="1920"
     inkscape:window-height="1008"
     id="namedview3462"
     showgrid="false"
     inkscape:zoom="26.21875"
     inkscape:cx="16"
     inkscape:cy="16"
     inkscape:window-x="0"
     inkscape:window-y="24"
     inkscape:window-maximized="1"
     inkscape:current-layer="Capa_1" /><g
     id="g3422"
     style="fill:#ffffff"><g
       id="g3424"
       style="fill:#ffffff"><path
         style="fill:#ffffff"
         d="M27.586,14.212C26.66,11.751,24.284,10,21.5,10c-0.641,0-1.26,0.093-1.846,0.266    C18.068,7.705,15.233,6,12,6c-4.904,0-8.894,3.924-8.998,8.803C1.207,15.842,0,17.783,0,20c0,1.999,0.978,3.77,2.481,4.859    c0.387-0.815,0.988-1.51,1.731-2.01C4.941,20.059,7.48,18,10.5,18c1.848,0,3.515,0.771,4.698,2.008    c0.1-0.005,0.2-0.008,0.302-0.008c2.367,0,4.385,1.495,5.16,3.592c0.615,0.661,1.052,1.488,1.24,2.408H26c3.312,0,6-2.693,6-6    C32,17.234,30.13,14.907,27.586,14.212z"
         id="path3426" /><path
         style="fill:#ffffff"
         d="M20.529,8.055C20.85,8.019,21.172,8,21.5,8c3.01,0,5.654,1.564,7.165,3.924    C30.002,11.618,31,10.423,31,9c0-0.935-0.426-1.77-1.098-2.319C29.534,5.143,28.15,4,26.5,4c-0.398,0-0.781,0.066-1.139,0.189    C24.576,2.878,23.141,2,21.5,2c-2.064,0-3.805,1.391-4.334,3.286C18.464,5.978,19.607,6.923,20.529,8.055z"
         id="path3428" /><path
         style="fill:#ffffff"
         d="M15.5,22c-0.398,0-0.781,0.066-1.138,0.189C13.576,20.878,12.141,20,10.5,20    c-2.374,0-4.318,1.838-4.488,4.169C4.84,24.58,4,25.693,4,27c0,1.657,1.337,3,3.01,3h9.98c1.662,0,3.01-1.348,3.01-3    c0-0.936-0.426-1.77-1.098-2.318C18.534,23.143,17.15,22,15.5,22z"
         id="path3430" /></g></g><g
     id="g3432" /><g
     id="g3434" /><g
     id="g3436" /><g
     id="g3438" /><g
     id="g3440" /><g
     id="g3442" /><g
     id="g3444" /><g
     id="g3446" /><g
     id="g3448" /><g
     id="g3450" /><g
     id="g3452" /><g
     id="g3454" /><g
     id="g3456" /><g
     id="g3458" /><g
     id="g3460" /></svg>