<?xml version="1.0" encoding="UTF-8" standalone="no"?>
<!-- Generator: Adobe Illustrator 18.1.1, SVG Export Plug-In . SVG Version: 6.00 Build 0)  -->

<svg
   xmlns:dc="http://purl.org/dc/elements/1.1/"
   xmlns:cc="http://creativecommons.org/ns#"
   xmlns:rdf="http://www.w3.org/1999/02/22-rdf-syntax-ns#"
   xmlns:svg="http://www.w3.org/2000/svg"
   xmlns="http://www.w3.org/2000/svg"
   xmlns:sodipodi="http://sodipodi.sourceforge.net/DTD/sodipodi-0.dtd"
   xmlns:inkscape="http://www.inkscape.org/namespaces/inkscape"
   version="1.1"
   id="Capa_1"
   x="0px"
   y="0px"
   viewBox="0 0 21.977 21.977"
   style="enable-background:new 0 0 21.977 21.977;"
   xml:space="preserve"
   inkscape:version="0.91 r"
   sodipodi:docname="nt_clear.svg"><metadata
     id="metadata3888"><rdf:RDF><cc:Work
         rdf:about=""><dc:format>image/svg+xml</dc:format><dc:type
           rdf:resource="http://purl.org/dc/dcmitype/StillImage" /></cc:Work></rdf:RDF></metadata><defs
     id="defs3886" /><sodipodi:namedview
     pagecolor="#ffffff"
     bordercolor="#666666"
     borderopacity="1"
     objecttolerance="10"
     gridtolerance="10"
     guidetolerance="10"
     inkscape:pageopacity="0"
     inkscape:pageshadow="2"
     inkscape:window-width="1920"
     inkscape:window-height="1008"
     id="namedview3884"
     showgrid="false"
     inkscape:zoom="38.176276"
     inkscape:cx="10.9885"
     inkscape:cy="10.9885"
     inkscape:window-x="0"
     inkscape:window-y="24"
     inkscape:window-maximized="1"
     inkscape:current-layer="Capa_1" /><g
     id="g3842"
     style="fill:#ffffff"><g
       id="g3844"
       style="fill:#ffffff"><polygon
         style="fill:#ffffff"
         points="10.477,8.988 11.69,5.75 13.977,4.988 11.691,4.226 10.477,0.988 9.263,4.226 6.977,4.988     9.263,5.75   "
         id="polygon3846" /><path
         style="fill:#ffffff"
         d="M6,11.488c0-0.906,0.269-1.75,0.729-2.456C6.49,9.003,6.247,8.988,6,8.988    c-0.549,0-1.08,0.073-1.585,0.212C1.87,9.895,0,12.222,0,14.988c0,3.312,2.687,6,6,6c3.057,0,5.579-2.285,5.953-5.239    c-0.456,0.155-0.944,0.239-1.453,0.239C8.016,15.988,6,13.972,6,11.488z"
         id="path3848" /><polygon
         style="fill:#ffffff"
         points="14.477,8.988 13.263,12.226 10.977,12.988 13.263,13.75 14.477,16.988 15.691,13.75     17.977,12.988 15.691,12.226   "
         id="polygon3850" /><polygon
         style="fill:#ffffff"
         points="20.344,6.417 19.477,3.988 18.61,6.417 16.977,6.988 18.61,7.559 19.477,9.988     20.344,7.559 21.977,6.988   "
         id="polygon3852" /></g></g><g
     id="g3854" /><g
     id="g3856" /><g
     id="g3858" /><g
     id="g3860" /><g
     id="g3862" /><g
     id="g3864" /><g
     id="g3866" /><g
     id="g3868" /><g
     id="g3870" /><g
     id="g3872" /><g
     id="g3874" /><g
     id="g3876" /><g
     id="g3878" /><g
     id="g3880" /><g
     id="g3882" /></svg>