<?xml version="1.0" encoding="UTF-8" standalone="no"?>
<!-- Generator: Adobe Illustrator 18.1.1, SVG Export Plug-In . SVG Version: 6.00 Build 0)  -->

<svg
   xmlns:dc="http://purl.org/dc/elements/1.1/"
   xmlns:cc="http://creativecommons.org/ns#"
   xmlns:rdf="http://www.w3.org/1999/02/22-rdf-syntax-ns#"
   xmlns:svg="http://www.w3.org/2000/svg"
   xmlns="http://www.w3.org/2000/svg"
   xmlns:sodipodi="http://sodipodi.sourceforge.net/DTD/sodipodi-0.dtd"
   xmlns:inkscape="http://www.inkscape.org/namespaces/inkscape"
   version="1.1"
   id="Capa_1"
   x="0px"
   y="0px"
   viewBox="0 0 32 32"
   style="enable-background:new 0 0 32 32;"
   xml:space="preserve"
   inkscape:version="0.91 r"
   sodipodi:docname="nt_partlycloudy.svg"><metadata
     id="metadata4933"><rdf:RDF><cc:Work
         rdf:about=""><dc:format>image/svg+xml</dc:format><dc:type
           rdf:resource="http://purl.org/dc/dcmitype/StillImage" /></cc:Work></rdf:RDF></metadata><defs
     id="defs4931" /><sodipodi:namedview
     pagecolor="#ffffff"
     bordercolor="#666666"
     borderopacity="1"
     objecttolerance="10"
     gridtolerance="10"
     guidetolerance="10"
     inkscape:pageopacity="0"
     inkscape:pageshadow="2"
     inkscape:window-width="1920"
     inkscape:window-height="1008"
     id="namedview4929"
     showgrid="false"
     inkscape:zoom="26.21875"
     inkscape:cx="16"
     inkscape:cy="16"
     inkscape:window-x="0"
     inkscape:window-y="24"
     inkscape:window-maximized="1"
     inkscape:current-layer="Capa_1" /><g
     id="g4895"
     style="fill:#ffffff"><path
       style="fill:#ffffff"
       d="M27.585,16.712c-0.376-0.999-0.991-1.882-1.774-2.577c1.152-0.949,1.945-2.318,2.142-3.874   C27.497,10.416,27.008,10.5,26.5,10.5C24.016,10.5,22,8.485,22,6c0-0.906,0.268-1.75,0.729-2.456C22.49,3.515,22.247,3.5,22,3.5   c-0.549,0-1.081,0.074-1.586,0.212C17.891,4.402,16.029,6.7,16,9.436C14.795,8.837,13.437,8.5,12,8.5   c-4.904,0-8.894,3.923-8.998,8.803C1.207,18.342,0,20.283,0,22.5c0,3.312,2.687,6,6,6h20c3.312,0,6-2.693,6-6   C32,19.734,30.13,17.407,27.585,16.712z M23.966,12.984c-0.76-0.312-1.593-0.484-2.466-0.484c-0.632,0-1.243,0.09-1.82,0.259   c-0.018-0.013-0.035-0.025-0.052-0.038c-0.368-0.586-0.802-1.127-1.291-1.612C18.12,10.617,18,10.072,18,9.5   c0-1.48,0.805-2.773,2-3.465c0.016,3.009,2.077,5.535,4.863,6.257C24.6,12.563,24.298,12.796,23.966,12.984z"
       id="path4897" /></g><g
     id="g4899" /><g
     id="g4901" /><g
     id="g4903" /><g
     id="g4905" /><g
     id="g4907" /><g
     id="g4909" /><g
     id="g4911" /><g
     id="g4913" /><g
     id="g4915" /><g
     id="g4917" /><g
     id="g4919" /><g
     id="g4921" /><g
     id="g4923" /><g
     id="g4925" /><g
     id="g4927" /></svg>