<?xml version="1.0" encoding="UTF-8" standalone="no"?>
<!-- Generator: Adobe Illustrator 18.1.1, SVG Export Plug-In . SVG Version: 6.00 Build 0)  -->

<svg
   xmlns:dc="http://purl.org/dc/elements/1.1/"
   xmlns:cc="http://creativecommons.org/ns#"
   xmlns:rdf="http://www.w3.org/1999/02/22-rdf-syntax-ns#"
   xmlns:svg="http://www.w3.org/2000/svg"
   xmlns="http://www.w3.org/2000/svg"
   xmlns:sodipodi="http://sodipodi.sourceforge.net/DTD/sodipodi-0.dtd"
   xmlns:inkscape="http://www.inkscape.org/namespaces/inkscape"
   version="1.1"
   id="Capa_1"
   x="0px"
   y="0px"
   viewBox="0 0 32 32"
   style="enable-background:new 0 0 32 32;"
   xml:space="preserve"
   inkscape:version="0.91 r"
   sodipodi:docname="nt_rain.svg"><metadata
     id="metadata4740"><rdf:RDF><cc:Work
         rdf:about=""><dc:format>image/svg+xml</dc:format><dc:type
           rdf:resource="http://purl.org/dc/dcmitype/StillImage" /></cc:Work></rdf:RDF></metadata><defs
     id="defs4738" /><sodipodi:namedview
     pagecolor="#ffffff"
     bordercolor="#666666"
     borderopacity="1"
     objecttolerance="10"
     gridtolerance="10"
     guidetolerance="10"
     inkscape:pageopacity="0"
     inkscape:pageshadow="2"
     inkscape:window-width="1920"
     inkscape:window-height="1008"
     id="namedview4736"
     showgrid="false"
     inkscape:zoom="26.21875"
     inkscape:cx="16"
     inkscape:cy="16"
     inkscape:window-x="0"
     inkscape:window-y="24"
     inkscape:window-maximized="1"
     inkscape:current-layer="Capa_1" /><g
     id="g4690"
     style="fill:#ffffff"><g
       id="g4692"
       style="fill:#ffffff"><path
         style="fill:#ffffff"
         d="M20,25.5c-0.553,0-1,0.443-1,1.01v1.98c0,0.558,0.443,1.01,1,1.01c0.553,0,1-0.443,1-1.01v-1.98    C21,25.952,20.557,25.5,20,25.5z"
         id="path4694" /><path
         style="fill:#ffffff"
         d="M16,23.5c-0.553,0-1,0.443-1,1.01v1.98c0,0.558,0.444,1.01,1,1.01c0.553,0,1-0.443,1-1.01v-1.98    C17,23.952,16.557,23.5,16,23.5z"
         id="path4696" /><path
         style="fill:#ffffff"
         d="M12,25.5c-0.553,0-1,0.443-1,1.01v1.98c0,0.558,0.444,1.01,1,1.01c0.553,0,1-0.443,1-1.01v-1.98    C13,25.952,12.556,25.5,12,25.5z"
         id="path4698" /><path
         style="fill:#ffffff"
         d="M27.586,10.712C26.66,8.251,24.284,6.5,21.5,6.5c-0.641,0-1.26,0.093-1.846,0.266    C18.068,4.205,15.233,2.5,12,2.5c-4.904,0-8.894,3.923-8.998,8.803C1.207,12.342,0,14.283,0,16.5c0,3.312,2.687,6,6,6h20    c3.312,0,6-2.693,6-6C32,13.735,30.13,11.407,27.586,10.712z"
         id="path4700" /><path
         style="fill:#ffffff"
         d="M24,23.5c-0.553,0-1,0.443-1,1.01v1.98c0,0.558,0.443,1.01,1,1.01c0.553,0,1-0.443,1-1.01v-1.98    C25,23.952,24.557,23.5,24,23.5z"
         id="path4702" /><path
         style="fill:#ffffff"
         d="M8,23.5c-0.553,0-1,0.443-1,1.01v1.98c0,0.558,0.444,1.01,1,1.01c0.553,0,1-0.443,1-1.01v-1.98    C9,23.952,8.556,23.5,8,23.5z"
         id="path4704" /></g></g><g
     id="g4706" /><g
     id="g4708" /><g
     id="g4710" /><g
     id="g4712" /><g
     id="g4714" /><g
     id="g4716" /><g
     id="g4718" /><g
     id="g4720" /><g
     id="g4722" /><g
     id="g4724" /><g
     id="g4726" /><g
     id="g4728" /><g
     id="g4730" /><g
     id="g4732" /><g
     id="g4734" /></svg>