<?xml version="1.0" encoding="UTF-8" standalone="no"?>
<!-- Generator: Adobe Illustrator 15.1.0, SVG Export Plug-In . SVG Version: 6.00 Build 0)  -->

<svg
   xmlns:dc="http://purl.org/dc/elements/1.1/"
   xmlns:cc="http://creativecommons.org/ns#"
   xmlns:rdf="http://www.w3.org/1999/02/22-rdf-syntax-ns#"
   xmlns:svg="http://www.w3.org/2000/svg"
   xmlns="http://www.w3.org/2000/svg"
   xmlns:sodipodi="http://sodipodi.sourceforge.net/DTD/sodipodi-0.dtd"
   xmlns:inkscape="http://www.inkscape.org/namespaces/inkscape"
   version="1.1"
   id="Layer_1"
   x="0px"
   y="0px"
   width="100px"
   height="100px"
   viewBox="0 0 100 100"
   enable-background="new 0 0 100 100"
   xml:space="preserve"
   inkscape:version="0.91 r"
   sodipodi:docname="mostlysunny.svg"><metadata
     id="metadata3634"><rdf:RDF><cc:Work
         rdf:about=""><dc:format>image/svg+xml</dc:format><dc:type
           rdf:resource="http://purl.org/dc/dcmitype/StillImage" /><dc:title></dc:title></cc:Work></rdf:RDF></metadata><defs
     id="defs3632" /><sodipodi:namedview
     pagecolor="#ffffff"
     bordercolor="#666666"
     borderopacity="1"
     objecttolerance="10"
     gridtolerance="10"
     guidetolerance="10"
     inkscape:pageopacity="0"
     inkscape:pageshadow="2"
     inkscape:window-width="1920"
     inkscape:window-height="1011"
     id="namedview3630"
     showgrid="false"
     inkscape:zoom="9.44"
     inkscape:cx="38.430843"
     inkscape:cy="60.809403"
     inkscape:window-x="0"
     inkscape:window-y="24"
     inkscape:window-maximized="1"
     inkscape:current-layer="layer1" /><path
     d="m 71.997,51.999 -3.998,0 c -1.105,0 -2,-0.895 -2,-1.999 0,-1.104 0.895,-2 2,-2 l 3.998,0 c 1.105,0 2,0.896 2,2 0,1.104 -0.894,1.999 -2,1.999 z M 64.142,38.688 c -0.781,0.781 -2.049,0.781 -2.828,0 -0.781,-0.781 -0.781,-2.047 0,-2.828 l 2.828,-2.828 c 0.779,-0.781 2.047,-0.781 2.828,0 0.779,0.781 0.779,2.047 0,2.828 z m -14.141,23.31 c -6.627,0 -12,-5.372 -12,-11.998 0,-6.627 5.372,-11.999 12,-11.999 6.627,0 11.998,5.372 11.998,11.999 0,6.626 -5.371,11.998 -11.998,11.998 z m 0,-19.997 c -4.418,0 -8,3.581 -8,7.999 0,4.417 3.583,7.999 8,7.999 4.417,0 7.998,-3.582 7.998,-7.999 0,-4.418 -3.58,-7.999 -7.998,-7.999 z m 0,-7.999 c -1.105,0 -2,-0.896 -2,-2 l 0,-3.999 c 0,-1.104 0.895,-2 2,-2 1.104,0 2,0.896 2,2 l 0,3.999 c 0,1.104 -0.897,2 -2,2 z M 35.86,38.688 33.032,35.86 c -0.781,-0.781 -0.781,-2.047 0,-2.828 0.781,-0.781 2.047,-0.781 2.828,0 l 2.828,2.828 c 0.781,0.781 0.781,2.047 0,2.828 -0.781,0.781 -2.047,0.781 -2.828,0 z M 34.002,50 c 0,1.104 -0.896,1.999 -2,1.999 l -4,0 c -1.104,0 -1.999,-0.895 -1.999,-1.999 0,-1.104 0.896,-2 1.999,-2 l 4,0 c 1.105,0 2,0.896 2,2 z m 15.999,15.998 c 1.104,0 2,0.895 2,1.999 l 0,4 c 0,1.104 -0.896,2 -2,2 -1.105,0 -2,-0.896 -2,-2 l 0,-4 c 0,-1.104 0.895,-1.999 2,-1.999 z m 14.141,-4.686 2.828,2.828 c 0.779,0.781 0.779,2.048 0,2.828 -0.781,0.781 -2.049,0.781 -2.828,0 L 61.314,64.14 c -0.781,-0.78 -0.781,-2.047 0,-2.828 0.779,-0.781 2.046,-0.781 2.828,0 z"
     id="path3628"
     style="clip-rule:evenodd;fill:#ffa82a;fill-opacity:1;fill-rule:evenodd"
     inkscape:connector-curvature="0"
     sodipodi:nodetypes="sssssssscscccsssssssssssssssssssssssssssssssssssssssccccccc" /><g
     inkscape:groupmode="layer"
     id="layer1"
     inkscape:label="cloud"
     style="display:inline"><path
       id="path4194"
       d="m 34.659297,70.607962 c -4.495283,0 -8.139846,-3.644054 -8.139846,-8.139846 0,-4.495792 3.644563,-8.139846 8.139846,-8.139846 3.054859,0 5.71336,1.685159 7.105447,4.173719 0.337846,-0.0575 0.68078,-0.104305 1.034399,-0.104305 3.371844,0 6.105139,2.733804 6.105139,6.105648 0,3.370826 -2.733295,6.10463 -6.105139,6.10463 -1.411931,0 -6.512691,0 -8.139846,0 z m 8.139846,-2.035216 c 2.247896,0 4.070431,-1.822536 4.070431,-4.069414 0,-2.247896 -1.822535,-4.070432 -4.070431,-4.070432 -0.814087,0 -1.568134,0.244735 -2.204648,0.656866 -0.626338,-2.704802 -3.039595,-4.726789 -5.935198,-4.726789 -3.371335,0 -6.10463,2.733295 -6.10463,6.105139 0,3.371335 2.733295,6.10463 6.10463,6.10463 1.840344,0 6.603767,0 8.139846,0 z"
       inkscape:connector-curvature="0"
       style="clip-rule:evenodd;fill-rule:evenodd;fill:#e6e6e6" /></g></svg>