<?xml version="1.0" encoding="UTF-8" standalone="no"?>
<!-- Generator: Adobe Illustrator 18.1.1, SVG Export Plug-In . SVG Version: 6.00 Build 0)  -->

<svg
   xmlns:dc="http://purl.org/dc/elements/1.1/"
   xmlns:cc="http://creativecommons.org/ns#"
   xmlns:rdf="http://www.w3.org/1999/02/22-rdf-syntax-ns#"
   xmlns:svg="http://www.w3.org/2000/svg"
   xmlns="http://www.w3.org/2000/svg"
   xmlns:sodipodi="http://sodipodi.sourceforge.net/DTD/sodipodi-0.dtd"
   xmlns:inkscape="http://www.inkscape.org/namespaces/inkscape"
   version="1.1"
   id="Capa_1"
   x="0px"
   y="0px"
   viewBox="0 0 32.004 32.004"
   style="enable-background:new 0 0 32.004 32.004;"
   xml:space="preserve"
   inkscape:version="0.91 r"
   sodipodi:docname="partlycloudly.svg"><metadata
     id="metadata3627"><rdf:RDF><cc:Work
         rdf:about=""><dc:format>image/svg+xml</dc:format><dc:type
           rdf:resource="http://purl.org/dc/dcmitype/StillImage" /></cc:Work></rdf:RDF></metadata><defs
     id="defs3625" /><sodipodi:namedview
     pagecolor="#ffffff"
     bordercolor="#666666"
     borderopacity="1"
     objecttolerance="10"
     gridtolerance="10"
     guidetolerance="10"
     inkscape:pageopacity="0"
     inkscape:pageshadow="2"
     inkscape:window-width="1920"
     inkscape:window-height="1008"
     id="namedview3623"
     showgrid="false"
     inkscape:zoom="26.215472"
     inkscape:cx="16.002001"
     inkscape:cy="16.002001"
     inkscape:window-x="0"
     inkscape:window-y="24"
     inkscape:window-maximized="1"
     inkscape:current-layer="Capa_1" /><g
     id="g3581"
     style="fill:#ffffff"><g
       id="g3583"
       style="fill:#ffffff"><path
         style="fill:#ffffff"
         d="M28.004,14.506c0,0.552,0.443,1,1.01,1h1.98c0.558,0,1.01-0.444,1.01-1c0-0.553-0.443-1-1.01-1    h-1.98C28.456,13.506,28.004,13.949,28.004,14.506z"
         id="path3585" /><path
         style="fill:#ffffff"
         d="M27.586,16.714c-0.172-0.456-0.393-0.887-0.656-1.287c0.047-0.302,0.07-0.611,0.07-0.925    c0-3.313-2.688-6-6-6c-1.533,0-2.932,0.575-3.992,1.521C15.576,9.063,13.854,8.502,12,8.502c-4.904,0-8.894,3.924-8.998,8.803    C1.208,18.344,0,20.285,0,22.502c0,3.312,2.687,6,6,6h20c3.312,0,6-2.693,6-6C32,19.736,30.13,17.409,27.586,16.714z M21,10.502    c1.839,0,3.389,1.241,3.855,2.933c-0.979-0.592-2.126-0.933-3.355-0.933c-0.641,0-1.26,0.093-1.844,0.266    c-0.319-0.515-0.688-0.994-1.1-1.432C19.23,10.813,20.079,10.502,21,10.502z M26.003,26.502H5.997c-2.203,0-3.997-1.791-3.997-4    c0-1.893,1.317-3.482,3.087-3.896C5.029,18.247,5,17.878,5,17.502c0-3.866,3.134-7,7-7c3.162,0,5.834,2.097,6.702,4.975    c0.769-0.611,1.739-0.975,2.798-0.975c2.316,0,4.225,1.75,4.473,4h0.03c2.203,0,3.997,1.791,3.997,4    C30,24.707,28.211,26.502,26.003,26.502z"
         id="path3587" /><path
         style="fill:#ffffff"
         d="M27.373,9.547l1.4-1.401c0.395-0.394,0.4-1.027,0.008-1.421c-0.391-0.39-1.021-0.393-1.422,0.007    l-1.4,1.401c-0.395,0.394-0.4,1.027-0.007,1.421C26.343,9.944,26.973,9.947,27.373,9.547z"
         id="path3589" /><path
         style="fill:#ffffff"
         d="M21,7.502c0.553,0,1-0.443,1-1.01v-1.98c0-0.558-0.443-1.01-1-1.01c-0.553,0-1,0.443-1,1.01v1.98    C20,7.05,20.443,7.502,21,7.502z"
         id="path3591" /></g></g><g
     id="g3593" /><g
     id="g3595" /><g
     id="g3597" /><g
     id="g3599" /><g
     id="g3601" /><g
     id="g3603" /><g
     id="g3605" /><g
     id="g3607" /><g
     id="g3609" /><g
     id="g3611" /><g
     id="g3613" /><g
     id="g3615" /><g
     id="g3617" /><g
     id="g3619" /><g
     id="g3621" /></svg>