<?xml version="1.0" encoding="UTF-8" standalone="no"?>
<!-- Creator: CorelDRAW -->

<svg
   xmlns:dc="http://purl.org/dc/elements/1.1/"
   xmlns:cc="http://creativecommons.org/ns#"
   xmlns:rdf="http://www.w3.org/1999/02/22-rdf-syntax-ns#"
   xmlns:svg="http://www.w3.org/2000/svg"
   xmlns="http://www.w3.org/2000/svg"
   xmlns:sodipodi="http://sodipodi.sourceforge.net/DTD/sodipodi-0.dtd"
   xmlns:inkscape="http://www.inkscape.org/namespaces/inkscape"
   xml:space="preserve"
   width="15.875mm"
   height="15.875mm"
   style="shape-rendering:geometricPrecision; text-rendering:geometricPrecision; image-rendering:optimizeQuality; fill-rule:evenodd; clip-rule:evenodd"
   viewBox="0 0 0.261788 0.261788"
   id="svg3848"
   version="1.1"
   inkscape:version="0.91 r"
   sodipodi:docname="rain.svg"><metadata
     id="metadata3866"><rdf:RDF><cc:Work
         rdf:about=""><dc:format>image/svg+xml</dc:format><dc:type
           rdf:resource="http://purl.org/dc/dcmitype/StillImage" /><dc:title></dc:title></cc:Work></rdf:RDF></metadata><sodipodi:namedview
     pagecolor="#ffffff"
     bordercolor="#666666"
     borderopacity="1"
     objecttolerance="10"
     gridtolerance="10"
     guidetolerance="10"
     inkscape:pageopacity="0"
     inkscape:pageshadow="2"
     inkscape:window-width="1920"
     inkscape:window-height="1011"
     id="namedview3864"
     showgrid="false"
     inkscape:zoom="14.88"
     inkscape:cx="28.125"
     inkscape:cy="28.125"
     inkscape:window-x="0"
     inkscape:window-y="24"
     inkscape:window-maximized="1"
     inkscape:current-layer="svg3848" /><defs
     id="defs3850"><style
       type="text/css"
       id="style3852"><![CDATA[
    .fil0 {fill:none}
    .fil2 {fill:#01A6D9}
    .fil1 {fill:#233361}
   ]]></style></defs><g
     id="Warstwa_x0020_1"><metadata
       id="CorelCorpID_0Corel-Layer" /><rect
       class="fil0"
       width="0.261788"
       height="0.261788"
       id="rect3856" /><path
       class="fil1"
       d="M0.175194 0.0632382c-0.000750322,-0.00014017 -0.00136212,-0.000585416 -0.00172821,-0.00126978 -0.00933203,-0.0169903 -0.0274536,-0.0278361 -0.0469174,-0.0278361 -0.0226053,0 -0.0429811,0.0145431 -0.0504546,0.0356857 -0.000331461,0.000959753 -0.00115599,0.00159299 -0.00216851,0.00168864 -0.0180539,0.00129121 -0.032348,0.0164576 -0.032348,0.0347473 0,0.0191802 0.0156892,0.0348793 0.0348578,0.0348793l0.0916465 0c0.02154,0 0.0392938,-0.0177406 0.0392938,-0.0392856 0,-0.0188702 -0.0137614,-0.0352322 -0.0321814,-0.0386094m-0.0071124 0.0653077l-0.0916482 0c-0.0123086,0 -0.022287,-0.00999165 -0.022287,-0.0222953 0,-0.0113703 0.0085916,-0.0207864 0.0195908,-0.0221172 0.00705138,-0.0008773 0.0143419,0.00177604 0.0192066,0.00714208 0.00234331,0.00256594 0.00629611,0.00274898 0.00886205,0.000400722 0.00256594,-0.00232188 0.00274898,-0.00627797 0.000432054,-0.00884886 -0.00331131,-0.00362958 -0.0073647,-0.00654512 -0.0118337,-0.0085075 -0.000633239,-0.000278691 -0.00108178,-0.000723937 -0.00134398,-0.00137861 -0.000240763,-0.000641484 -0.000230868,-0.00129616 6.59624e-005,-0.00192775 0.00650554,-0.0146288 0.0212349,-0.0242989 0.0374221,-0.0242989 0.0117149,0 0.0228626,0.00505767 0.0305851,0.013674 0.000572224,0.00064973 0.00075527,0.0014924 0.000535945,0.00235156 -0.000222623,0.000837723 -0.000819583,0.00146601 -0.00164906,0.00171832 -0.00598609,0.00192775 -0.0113521,0.00527864 -0.0157073,0.00962886 -0.0071124,0.00712064 -0.0115055,0.0169111 -0.0115055,0.0277669 0,0.00347787 0.00280505,0.00627467 0.00628787,0.00627467 0.00345643,0 0.00626973,-0.00280175 0.00626973,-0.00627467 0,-0.00736965 0.00299799,-0.0140747 0.00783633,-0.0188801 0.0170331,-0.0170513 0.0455866,-0.00400557 0.0455866,0.0188801 4.94718e-006,0.0146453 -0.0120464,0.0266917 -0.0267065,0.0266917z"
       id="path3858" /><path
       class="fil2"
       d="M0.127993 0.180646c0.00113455,0.0016672 0.00291389,0.00268797 0.00492244,0.00283638 0.00390992,0.000301778 0.00715527,-0.00292708 0.00703819,-0.00686834l0 -4.94718e-006 -0.00014017 -0.0100048c-8.2453e-006,-0.000326514 -0.000362793,-0.000524401 -0.000636537,-0.000379284l-0.00874826 0.00489111c-8.2453e-006,0 -8.2453e-006,0 -8.2453e-006,0 -0.00346632,0.00187333 -0.00463551,0.00629281 -0.00242742,0.00952992z"
       id="path3860" /><path
       class="fil2"
       d="M0.110532 0.16565c0.00154847,0.0022724 0.00397094,0.00366586 0.00671497,0.00387859 0.00532811,0.000410616 0.00977398,-0.00399732 0.00962062,-0.00937161l0 -8.2453e-006 -0.000196238 -0.0136691c-8.2453e-006,-0.000445246 -0.000493069,-0.000733832 -0.0008773,-0.000501314l-0.0119458 0.0066622 -8.2453e-006 0c-0.0047427,0.00255604 -0.00632744,0.00858995 -0.00330801,0.0130094z"
       id="path3862" /></g><path
     style="fill:#ffffff;fill-opacity:1"
     d="m 15.741648,27.540384 c -1.424959,-0.210847 -2.738305,-1.110512 -3.45679,-2.367963 -0.109096,-0.190933 -0.282423,-0.589088 -0.385169,-0.884787 -0.16835,-0.484499 -0.186863,-0.627299 -0.187321,-1.444892 -4.53e-4,-0.80734 0.01939,-0.966468 0.180148,-1.444893 0.256674,-0.763858 0.611732,-1.333914 1.192651,-1.914832 C 13.668064,18.90012 14.239696,18.544819 15,18.292843 c 0.461164,-0.152836 0.65712,-0.178879 1.377688,-0.183092 0.701873,-0.0041 0.922962,0.02097 1.344086,0.152471 0.756422,0.236191 1.377895,0.591904 1.932399,1.106047 0.525606,0.487349 0.926209,0.715424 1.259805,0.717246 0.845429,0.0046 1.543337,-0.766821 1.415723,-1.564881 -0.06226,-0.389376 -0.200968,-0.612309 -0.662775,-1.065246 -0.522105,-0.512078 -1.204935,-0.999346 -1.875934,-1.338668 -0.762226,-0.385454 -0.79616,-0.500673 -0.384519,-1.305594 1.631807,-3.190831 5.275496,-5.121193 8.823604,-4.674591 1.982323,0.249517 3.735936,1.099972 5.145113,2.495241 0.397645,0.393721 0.475616,0.507188 0.475616,0.692133 0,0.280897 -0.191596,0.460632 -0.64958,0.609367 -0.190938,0.06201 -0.609795,0.246756 -0.930793,0.410549 -2.646125,1.350216 -4.432265,4.062332 -4.581561,6.956746 -0.02752,0.533493 -0.01421,0.854649 0.04253,1.026573 0.311179,0.942881 1.553093,1.232941 2.258533,0.527499 0.302974,-0.302973 0.380504,-0.538475 0.440085,-1.336767 0.116309,-1.558377 0.751538,-2.853024 1.91515,-3.903226 2.051734,-1.851765 5.083614,-1.896642 7.344702,-0.108715 0.934287,0.738777 1.66156,1.857413 1.962298,3.018259 0.195284,0.753796 0.198754,1.879524 0.0082,2.661077 -0.511351,2.097312 -2.073631,3.674056 -4.206496,4.245442 l -0.54527,0.146076 -10.383064,0.01145 c -5.722146,0.0063 -10.562994,-0.01517 -10.78389,-0.04786 z"
     id="path3868"
     inkscape:connector-curvature="0"
     transform="matrix(0.00465401,0,0,0.00465401,0,0)" /></svg>