<?xml version="1.0" encoding="UTF-8" standalone="no"?>
<!-- Creator: CorelDRAW -->

<svg
   xmlns:dc="http://purl.org/dc/elements/1.1/"
   xmlns:cc="http://creativecommons.org/ns#"
   xmlns:rdf="http://www.w3.org/1999/02/22-rdf-syntax-ns#"
   xmlns:svg="http://www.w3.org/2000/svg"
   xmlns="http://www.w3.org/2000/svg"
   xmlns:sodipodi="http://sodipodi.sourceforge.net/DTD/sodipodi-0.dtd"
   xmlns:inkscape="http://www.inkscape.org/namespaces/inkscape"
   xml:space="preserve"
   width="15.875mm"
   height="15.875mm"
   style="shape-rendering:geometricPrecision; text-rendering:geometricPrecision; image-rendering:optimizeQuality; fill-rule:evenodd; clip-rule:evenodd"
   viewBox="0 0 0.226878 0.226878"
   id="svg3418"
   version="1.1"
   inkscape:version="0.91 r"
   sodipodi:docname="tststorms.svg"><metadata
     id="metadata3442"><rdf:RDF><cc:Work
         rdf:about=""><dc:format>image/svg+xml</dc:format><dc:type
           rdf:resource="http://purl.org/dc/dcmitype/StillImage" /><dc:title></dc:title></cc:Work></rdf:RDF></metadata><sodipodi:namedview
     pagecolor="#ffffff"
     bordercolor="#666666"
     borderopacity="1"
     objecttolerance="10"
     gridtolerance="10"
     guidetolerance="10"
     inkscape:pageopacity="0"
     inkscape:pageshadow="2"
     inkscape:window-width="1920"
     inkscape:window-height="1011"
     id="namedview3440"
     showgrid="false"
     inkscape:zoom="14.773333"
     inkscape:cx="28.125"
     inkscape:cy="28.125"
     inkscape:window-x="0"
     inkscape:window-y="24"
     inkscape:window-maximized="1"
     inkscape:current-layer="svg3418" /><defs
     id="defs3420"><style
       type="text/css"
       id="style3422"><![CDATA[
    .fil0 {fill:none}
    .fil2 {fill:#0076B6}
    .fil3 {fill:#233361}
    .fil1 {fill:#C8302D}
   ]]></style></defs><g
     id="Warstwa_x0020_1"><metadata
       id="CorelCorpID_0Corel-Layer" /><rect
       class="fil0"
       width="0.226878"
       height="0.226878"
       id="rect3426" /><path
       class="fil1"
       d="M0.147701 0.111975l-0.00752448 0.0162452c-0.000165782,0.000351571 -0.000140057,0.000718863 6.85993e-005,0.00104328 0.000211514,0.000328705 0.000544507,0.000503061 0.00092609,0.000503061l0.00920373 0c0.000367292,0 0.000680276,0.000170069 0.00089179,0.000475907 0.000211514,0.000291547 0.000261535,0.000638831 0.000135769,0.000987543l-0.00691995 0.0194893c-0.000181502,0.00052164 3.42996e-005,0.00108473 0.000514494,0.00133911 0.000484482,0.000257247 0.00106186,0.000121478 0.00139199,-0.000310126l0.0199281 -0.0263664c0.000257247,-0.000344425 0.000294405,-0.000767454 0.000105757,-0.00114189 -0.000188648,-0.000393017 -0.000551652,-0.000613106 -0.000983256,-0.000613106l-0.00766454 -1.42915e-006c-0.000397304,0 -0.000744588,-0.000192935 -0.000944669,-0.000540219 -0.000208656,-0.000347284 -0.000208656,-0.000744588 -7.14576e-006,-0.0010933l0.00508921 -0.00902652c0.000200081,-0.000351571 0.000192935,-0.000741729 -4.28745e-006,-0.00108473 -0.000204369,-0.000355859 -0.000544507,-0.000548794 -0.000948956,-0.000548794l-0.0122593 1.42915e-006c-0.000447324,7.14576e-006 -0.000817474,0.000248672 -0.000998977,0.000641689z"
       id="path3428" /><path
       class="fil2"
       d="M0.0783718 0.153238c-0.00215516,-0.00315414 -0.00101327,-0.00747589 0.00236382,-0.00929806l7.14576e-006 0 0.00852346 -0.00474907c0.000272968,-0.000170069 0.000620252,3.00122e-005 0.000627397,0.000347284l0.000140057 0.00976396 0 7.14576e-006c0.000110045,0.00383441 -0.00305838,0.00697997 -0.00685993,0.006697 -0.00196651,-0.000155777 -0.00369436,-0.00115047 -0.00480195,-0.00276827z"
       id="path3430" /><path
       class="fil2"
       d="M0.0903124 0.173215c0.00134197,0.00196937 0.0034414,0.003177 0.0058195,0.00335422 0.00462473,0.000363004 0.00847058,-0.00347141 0.00833052,-0.00812187l0 0 -0.000170069 -0.0118462c0,-0.000393017 -0.00042017,-0.000635972 -0.000760308,-0.000450183l-0.0103456 0.00578092c0,0 0,7.14576e-006 -7.14576e-006,7.14576e-006 -0.00409881,0.00220804 -0.00547937,0.00744159 -0.00286688,0.011276z"
       id="path3432" /><path
       class="fil2"
       d="M0.114271 0.153238c-0.00215516,-0.00315414 -0.00101327,-0.00747589 0.00236382,-0.00929806l7.14576e-006 0 0.00852346 -0.00474907c0.000272968,-0.000170069 0.000620252,3.00122e-005 0.000620252,0.000347284l0.000140057 0.00976396 0 7.14576e-006c0.00011719,0.00383441 -0.00305124,0.00697997 -0.00685993,0.006697 -0.00195794,-0.000155777 -0.00368578,-0.00115047 -0.0047948,-0.00276827z"
       id="path3434" /><path
       class="fil3"
       d="M0.0851974 0.0221747c-0.00996404,0 -0.0192392,0.00554654 -0.0240112,0.0142558 -0.000192935,0.000340138 -0.000503061,0.000560227 -0.00089179,0.000635972 -0.00942239,0.00173499 -0.0164638,0.0101112 -0.0164638,0.0197652 0,0.0110259 0.00907511,0.0201096 0.020101,0.0201096l0.0153319 -2.8583e-006c0.00085892,0 0.00159636,-0.000480195 0.00195079,-0.00126337 0.000310126,-0.000688851 0.000643118,-0.00137199 0.000990402,-0.00204512 0.000355859,-0.000680276 0.000325846,-0.00143344 -7.5745e-005,-0.00209799 -0.000397304,-0.00065741 -0.00106186,-0.0010247 -0.00183074,-0.0010247l-0.0163638 0c-0.00749447,0 -0.0136698,-0.00617536 -0.0136698,-0.013677 0,-0.0117148 0.0146145,-0.0183803 0.023338,-0.00966821 0.00247243,0.00247243 0.00400448,0.00589525 0.00400448,0.00966821 0,0.00423886 0.00643261,0.00423886 0.00643261,0 0,-0.00883358 -0.00573947,-0.0164895 -0.0139299,-0.0191378 -0.000884645,-0.000280114 -0.00118762,-0.00138056 -0.000560227,-0.0020837 0.0114689,-0.0128409 0.0326933,-0.00701427 0.0361647,0.00964677 0.000340138,0.00163352 0.00189077,0.00274969 0.00356573,0.00252531 0.00248101,-0.000340138 0.00489627,0.000162923 0.00694996,0.00127052 0.000744588,0.000411596 0.00149775,0.000567373 0.0023481,0.000510207 0.000870353,-6.85993e-005 0.00174356,-0.00010147 0.00261678,-0.000110045 0.000900365,-1.57207e-005 0.00166067,-0.000551652 0.00197795,-0.00140343 0.000310126,-0.000850345 8.00325e-005,-0.00175786 -0.000597385,-0.00235524 -0.00283972,-0.00248815 -0.00646548,-0.00410595 -0.0104399,-0.00439321 -0.000525928,-3.71579e-005 -0.000944669,-0.000363004 -0.00112331,-0.00085892 -0.00383155,-0.0108215 -0.0142515,-0.018266 -0.0258148,-0.018266z"
       id="path3436" /><path
       class="fil3"
       d="M0.182504 0.104345c-0.000128624,-0.01407 -0.0104142,-0.0262306 -0.0241627,-0.0287531 -0.000574519,-0.00010147 -0.00103185,-0.000434462 -0.00131625,-0.000944669 -0.00700284,-0.0127695 -0.0206198,-0.0209213 -0.0352486,-0.0209213 -0.016974,0 -0.0322845,0.0109316 -0.0379039,0.0268252 -0.000257247,0.000721721 -0.000877499,0.00119477 -0.00164924,0.00125479 -0.0135526,0.00097611 -0.0243056,0.0123764 -0.0243056,0.0261206 0,0.0144101 0.0117934,0.0262049 0.0262049,0.0262049l0.0398733 -1.42915e-006 0.000718863 0 0.00151347 0c0.00209085,0 0.00378153,-0.00169069 0.00378153,-0.00378153l0 -0.00188362c0,-0.00209085 -0.00169069,-0.00378153 -0.00378153,-0.00378153l-0.00151347 1.42915e-006 -0.000718863 0 -0.0398733 0c-0.00925232,0 -0.0167582,-0.00750161 -0.0167582,-0.0167582 0,-0.00854632 0.0064469,-0.0156206 0.0147203,-0.0166225 0.00530072,-0.000650264 0.0107915,0.00133911 0.0144444,0.00536218 0.00175071,0.00192078 0.00473478,0.00206084 0.0066627,0.000310126 0.00192078,-0.00175071 0.00206084,-0.0047262 0.000310126,-0.00665556 -0.00247243,-0.00272682 -0.0055251,-0.00491199 -0.00888646,-0.00638688 -0.000480195,-0.000215802 -0.000820333,-0.000560227 -0.00100612,-0.00104757 -0.00018579,-0.000487341 -0.000177215,-0.00097611 3.71579e-005,-0.00144773 0.00488913,-0.0109816 0.0159536,-0.0182631 0.0281257,-0.0182631 0.00881072,0 0.0171855,0.0038044 0.022975,0.0102885 0.000443037,0.000495915 0.000590239,0.00111617 0.00042017,0.00175071 -0.000177215,0.000635972 -0.000620252,0.00110045 -0.00124765,0.00130767 -0.00449611,0.00144773 -0.0085306,0.00395875 -0.0118019,0.00722293 -0.00533931,0.00533931 -0.00864779,0.0127237 -0.00864779,0.0208728 0,0.00260534 0.00212086,0.00471906 0.0047262,0.00471906 0.00260534,0 0.00471906,-0.00211371 0.00471906,-0.00471906 0,-0.00554654 0.00224663,-0.0105614 0.00587953,-0.0141943 0.0125694,-0.0125608 0.0334264,-0.00333564 0.0341939,0.0132654 -3.71579e-005,0.000245814 -0.000128624,0.000473049 -0.000128624,0.000733155l0 0.00569803c0,0.00236667 0.00169354,0.00428745 0.00378153,0.00428745l0.00208942 0c0.00209085,0 0.00378153,-0.00192078 0.00378153,-0.00428745l0 -0.00569803c2.8583e-006,-8.57491e-006 -8.57491e-006,-5.43077e-005 -8.57491e-006,-7.71742e-005z"
       id="path3438" /></g></svg>