<?xml version="1.0" encoding="UTF-8" standalone="no"?>
<!-- Creator: CorelDRAW -->

<svg
   xmlns:dc="http://purl.org/dc/elements/1.1/"
   xmlns:cc="http://creativecommons.org/ns#"
   xmlns:rdf="http://www.w3.org/1999/02/22-rdf-syntax-ns#"
   xmlns:svg="http://www.w3.org/2000/svg"
   xmlns="http://www.w3.org/2000/svg"
   xmlns:sodipodi="http://sodipodi.sourceforge.net/DTD/sodipodi-0.dtd"
   xmlns:inkscape="http://www.inkscape.org/namespaces/inkscape"
   xml:space="preserve"
   width="15.875mm"
   height="15.875mm"
   style="shape-rendering:geometricPrecision; text-rendering:geometricPrecision; image-rendering:optimizeQuality; fill-rule:evenodd; clip-rule:evenodd"
   viewBox="0 0 3.2961 3.2961"
   id="svg3561"
   version="1.1"
   inkscape:version="0.91 r"
   sodipodi:docname="chancetststorms.svg"><metadata
     id="metadata3601"><rdf:RDF><cc:Work
         rdf:about=""><dc:format>image/svg+xml</dc:format><dc:type
           rdf:resource="http://purl.org/dc/dcmitype/StillImage" /><dc:title></dc:title></cc:Work></rdf:RDF></metadata><sodipodi:namedview
     pagecolor="#ffffff"
     bordercolor="#666666"
     borderopacity="1"
     objecttolerance="10"
     gridtolerance="10"
     guidetolerance="10"
     inkscape:pageopacity="0"
     inkscape:pageshadow="2"
     inkscape:window-width="640"
     inkscape:window-height="480"
     id="namedview3599"
     showgrid="false"
     inkscape:zoom="4.1955556"
     inkscape:cx="28.125"
     inkscape:cy="28.125"
     inkscape:window-x="0"
     inkscape:window-y="24"
     inkscape:window-maximized="0"
     inkscape:current-layer="svg3561" /><defs
     id="defs3563"><style
       type="text/css"
       id="style3565"><![CDATA[
    .fil0 {fill:none}
    .fil2 {fill:#0076B6}
    .fil3 {fill:#233361}
    .fil1 {fill:#C8302D}
    .fil4 {fill:#EDA43A}
   ]]></style></defs><g
     id="Warstwa_x0020_1"><metadata
       id="CorelCorpID_0Corel-Layer" /><rect
       class="fil0"
       width="3.2961"
       height="3.2961"
       id="rect3569" /><path
       class="fil1"
       d="M2.01854 1.6668l-0.109316 0.236011c-0.00240849,0.00510765 -0.00203476,0.0104437 0.000996615,0.0151569 0.0030729,0.00477545 0.00791063,0.00730851 0.0134543,0.00730851l0.133692 -2.07628e-005c0.00533604,0 0.0098831,0.00247078 0.012956,0.00691402 0.0030729,0.00423561 0.0037996,0.00928098 0.00197247,0.0143471l-0.100534 0.283143c-0.00263688,0.00757843 0.000498308,0.015759 0.00747461,0.0194548 0.00703859,0.00373731 0.0154268,0.00176484 0.020223,-0.00450553l0.289517 -0.383053c0.00373731,-0.00500384 0.00427714,-0.0111496 0.00153645,-0.0165895 -0.00274069,-0.00570977 -0.00801445,-0.00890725 -0.0142848,-0.00890725l-0.111351 -2.07628e-005c-0.00577206,0 -0.0108174,-0.00280298 -0.0137242,-0.00784834 -0.00303137,-0.00504536 -0.00303137,-0.0108174 -0.000103814,-0.0158836l0.0739364 -0.131138c0.00290679,-0.00510765 0.00280298,-0.0107759 -6.22884e-005,-0.015759 -0.00296908,-0.00516994 -0.00791063,-0.00797292 -0.0137865,-0.00797292l-0.178103 2.07628e-005c-0.00641571,0.000103814 -0.0118556,0.00361273 -0.0144924,0.00934327z"
       id="path3571" /><path
       class="fil2"
       d="M1.01129 2.26624c-0.0313103,-0.0458235 -0.0147208,-0.10861 0.0343417,-0.135083l0.000103814 0 0.123829 -0.0689948c0.0039657,-0.00247078 0.00901106,0.000436019 0.00911488,0.00504536l0.00203476 0.141852 0 0.000103814c0.00159874,0.0557066 -0.0444324,0.101406 -0.0996615,0.0972946 -0.0285489,-0.00226315 -0.0536511,-0.0167141 -0.0697631,-0.0402176z"
       id="path3573" /><path
       class="fil2"
       d="M1.18485 2.55646c0.0194963,0.0286112 0.0499969,0.0461557 0.0845462,0.0487303 0.0671885,0.00527376 0.123061,-0.0504329 0.121026,-0.117995l0 0 -0.00247078 -0.172103c0,-0.00570977 -0.00610427,-0.00923945 -0.0110458,-0.00654029l-0.150302 0.0839856c0,0 0,0.000103814 -0.000103814,0.000103814 -0.0596308,0.0320786 -0.0796669,0.108174 -0.0416502,0.163819z"
       id="path3575" /><path
       class="fil2"
       d="M1.53292 2.26624c-0.0313103,-0.0458235 -0.0147208,-0.10861 0.0343417,-0.135083l8.30513e-005 0 0.123829 -0.0689948c0.0039657,-0.00247078 0.00901106,0.000436019 0.00901106,0.00504536l0.00203476 0.141852 0 0.000103814c0.00170255,0.0557066 -0.0443286,0.101406 -0.0996615,0.0972946 -0.0284451,-0.00226315 -0.0535473,-0.0167141 -0.0696385,-0.0402176z"
       id="path3577" /><path
       class="fil3"
       d="M1.11046 0.362145c-0.144758,0 -0.279509,0.0805805 -0.348836,0.207109 -0.00280298,0.00494155 -0.00730851,0.00813902 -0.012956,0.00923945 -0.136889,0.0252061 -0.239188,0.146897 -0.239188,0.28715 0,0.160185 0.131844,0.292154 0.292029,0.292154l0.222764 -4.15256e-005c0.0124785,0 0.0231921,-0.00697631 0.0283412,-0.0183543 0.00450553,-0.0100077 0.00934327,-0.0199323 0.0143886,-0.0297116 0.00516994,-0.0098831 0.00473392,-0.0208251 -0.00110043,-0.0304798 -0.00577206,-0.0095509 -0.0154268,-0.0148869 -0.0265972,-0.0148869l-0.237734 0c-0.10888,0 -0.198596,-0.0897161 -0.198596,-0.1987 0,-0.170193 0.212321,-0.267031 0.339057,-0.14046 0.0359197,0.0359197 0.0581774,0.0856466 0.0581774,0.14046 0,0.0615825 0.0934534,0.0615825 0.0934534,0 0,-0.128335 -0.0833835,-0.239561 -0.202375,-0.278035 -0.0128522,-0.00406951 -0.0172539,-0.0200569 -0.00813902,-0.0302722 0.166622,-0.186554 0.47497,-0.101904 0.525403,0.140149 0.00494155,0.0237319 0.0274692,0.0399477 0.0518032,0.0366879 0.0360442,-0.00494155 0.0711334,0.00236696 0.10097,0.0184581 0.0108174,0.00597969 0.0217594,0.00824284 0.0341133,0.00741233 0.0126446,-0.000996615 0.0253306,-0.00147416 0.0380167,-0.00159874 0.0130806,-0.000228391 0.0241264,-0.00801445 0.0287357,-0.0203891 0.00450553,-0.0123539 0.00116272,-0.0255383 -0.00867886,-0.0342171 -0.0412557,-0.0361481 -0.093931,-0.0596516 -0.151672,-0.0638249 -0.00764072,-0.000539833 -0.0137242,-0.00527376 -0.0163196,-0.0124785 -0.0556028,-0.157216 -0.207005,-0.26537 -0.37506,-0.26537z"
       id="path3579" /><path
       class="fil4"
       d="M2.06814 0.609845c0.140689,0 0.256213,0.115628 0.256213,0.256317 0,0.0488964 -0.0140564,0.0949276 -0.0381828,0.133816 -0.00147416,0.00236696 -0.003239,0.00467163 -0.00450553,0.00714241 -0.0276976,0.0490625 -0.105807,0.0180221 -0.0686626,-0.0369786 0.00236696,-0.00330129 0.00473392,-0.006478 0.00674792,-0.0098831 0.0172539,-0.0274069 0.0270332,-0.0598177 0.0270332,-0.0940971 0,-0.0981043 -0.0804767,-0.178706 -0.178643,-0.178706 -0.0562049,0 -0.106638,0.0265972 -0.13936,0.0676868 -0.00126653,0.00147416 -0.00236696,0.00296908 -0.00350892,0.00444324 -0.0376845,0.0520316 -0.102444,0.00274069 -0.0616863,-0.0470278 0.0493117,-0.060316 0.121483,-0.102714 0.204555,-0.102714z"
       id="path3581" /><path
       class="fil4"
       d="M2.0533 0.43658l-0.0371447 0.120134c-0.00147416,0.00533604 -0.000436019,0.0104437 0.00303137,0.0147831 0.00350892,0.00417333 0.00857504,0.00597969 0.0138488,0.00543986 0.0232959,-0.00274069 0.0470693,-0.00274069 0.0703652,0 0.00537757,0.000602122 0.0103814,-0.00120424 0.0138488,-0.00543986 0.0034051,-0.00427714 0.00460935,-0.00944708 0.00303137,-0.0147831l-0.0370201 -0.120134c-0.00224238,-0.00654029 -0.00801445,-0.010942 -0.0151153,-0.010942 -0.00687249,0 -0.0128107,0.00440172 -0.0148454,0.010942z"
       id="path3583" /><path
       class="fil4"
       d="M2.27002 0.486722l-0.0921869 0.0854805c-0.00406951,0.00363349 -0.00570977,0.00878267 -0.00473392,0.0140149 0.000996615,0.00566825 0.00427714,0.00961318 0.00923945,0.0119801 0.0215933,0.00907335 0.0419617,0.0210327 0.0609181,0.0351099 0.00417333,0.003239 0.00967547,0.00400722 0.0147208,0.00203476 0.00504536,-0.00170255 0.00867886,-0.00570977 0.00977929,-0.0111496l0.028009 -0.122459c0.00159874,-0.0068102 -0.00137035,-0.0137242 -0.00730851,-0.0170255 -0.00618732,-0.00363349 -0.0133713,-0.00276145 -0.0184374,0.00201399z"
       id="path3585" /><path
       class="fil4"
       d="M2.43257 0.638519l-0.122501 0.0279052c-0.00537757,0.00116272 -0.00934327,0.00477545 -0.0111496,0.0098831 -0.00193094,0.00500384 -0.00110043,0.0104852 0.00213857,0.0146585 0.0140564,0.0188942 0.0260989,0.0393248 0.0352137,0.0609804 0.00213857,0.00487926 0.0063119,0.00818055 0.0117102,0.00917716 0.00537757,0.00110043 0.0103814,-0.000768224 0.0140564,-0.00467163l0.0856466 -0.0921869c0.00473392,-0.00500384 0.00550215,-0.0123123 0.00203476,-0.018562 -0.00346739,-0.00587588 -0.0102776,-0.00878267 -0.0171501,-0.00718393z"
       id="path3587" /><path
       class="fil4"
       d="M2.49762 0.851006c0.0066441,0.00224238 0.0110458,0.00801445 0.0110458,0.0151153 -0.000103814,0.00687249 -0.00440172,0.0128522 -0.0110458,0.0148869l-0.120092 0.0369786c-0.00527376,0.00153645 -0.0104852,0.000602122 -0.0147208,-0.00286527 -0.00417333,-0.0035712 -0.00610427,-0.00857504 -0.00560596,-0.0139526 0.00290679,-0.0232959 0.00290679,-0.0469655 0,-0.0703652 -0.000539833,-0.00533604 0.00137035,-0.0103191 0.00560596,-0.0136204 0.00417333,-0.00363349 0.00944708,-0.00483774 0.0147208,-0.00317671l0.120092 0.0369993z"
       id="path3589" /><path
       class="fil4"
       d="M2.44762 1.06777c0.00473392,0.00533604 0.00550215,0.01252 0.00203476,0.018562 -0.00346739,0.00604198 -0.0102153,0.00894877 -0.0170878,0.00747461l-0.122501 -0.028009c-0.00537757,-0.00132882 -0.00934327,-0.00483774 -0.0111496,-0.00994539 -0.00193094,-0.00521147 -0.00110043,-0.0103191 0.00213857,-0.0148869 0.0140564,-0.0186242 0.0260989,-0.039221 0.0352137,-0.0606482 0.00213857,-0.00516994 0.0063119,-0.00845047 0.0117102,-0.00944708 0.00537757,-0.000768224 0.0103814,0.000872038 0.0140564,0.00483774l0.0855843 0.0920623z"
       id="path3591" /><path
       class="fil4"
       d="M1.68893 0.664286l0.0854182 0.0921869c0.00373731,0.00390341 0.00878267,0.00570977 0.014181,0.00467163 0.00537757,-0.000996615 0.00967547,-0.00427714 0.0117102,-0.00917716 0.00923945,-0.0216971 0.0210327,-0.0421278 0.0352137,-0.0609804 0.003239,-0.00411104 0.00406951,-0.00967547 0.00213857,-0.0146585 -0.00180636,-0.00510765 -0.00587588,-0.00874115 -0.0111496,-0.0098831l-0.122501 -0.0279052c-0.00687249,-0.00159874 -0.0135166,0.00126653 -0.0171501,0.0072047 -0.00342586,0.00622884 -0.00259535,0.0135374 0.00213857,0.0185412z"
       id="path3593" /><path
       class="fil4"
       d="M1.84054 0.501733l0.028009 0.122459c0.00126653,0.00543986 0.00483774,0.00944708 0.00977929,0.0111496 0.00527376,0.00197247 0.0104852,0.00116272 0.0148869,-0.00203476 0.0187903,-0.0140564 0.0392832,-0.0260366 0.0608143,-0.0351099 0.00504536,-0.00236696 0.00834665,-0.0063119 0.00934327,-0.0119801 0.000872038,-0.00521147 -0.000768224,-0.0103191 -0.00483774,-0.0140149l-0.0921869 -0.0855428c-0.00504536,-0.00473392 -0.0123539,-0.00566825 -0.0184581,-0.00197247 -0.0059174,0.00330129 -0.00894877,0.0102361 -0.00735004,0.0170463z"
       id="path3595" /><path
       class="fil3"
       d="M2.52416 1.55592c-0.00186865,-0.20441 -0.151299,-0.381081 -0.351037,-0.417727 -0.00834665,-0.00147416 -0.0149908,-0.0063119 -0.0191226,-0.0137242 -0.101738,-0.185516 -0.299566,-0.303947 -0.512094,-0.303947 -0.2466,0 -0.469032,0.158815 -0.550671,0.389718 -0.00373731,0.0104852 -0.0127484,0.0173577 -0.0239603,0.0182298 -0.196894,0.014181 -0.353113,0.179806 -0.353113,0.379482 0,0.209351 0.171335,0.380707 0.380707,0.380707l0.579283 -2.07628e-005 0.0104437 0 0.0219671 0c0.030376,0 0.0549384,-0.0245624 0.0549384,-0.0549384l0 -0.0273654c0,-0.030376 -0.0245624,-0.0549384 -0.0549384,-0.0549384l-0.0219671 2.07628e-005 -0.0104437 0 -0.579283 0c-0.134418,0 -0.243465,-0.108984 -0.243465,-0.243465 0,-0.124162 0.0936611,-0.226938 0.213857,-0.241492 0.0770093,-0.00944708 0.15678,0.0194548 0.20985,0.0779021 0.0254344,0.0279052 0.0687872,0.02994 0.0967962,0.00450553 0.0279052,-0.0254344 0.02994,-0.0686626 0.00450553,-0.0966924 -0.0359197,-0.0396155 -0.080269,-0.0713618 -0.129103,-0.092789 -0.00697631,-0.00313519 -0.0119179,-0.00813902 -0.014617,-0.0152191 -0.00269917,-0.00708012 -0.00257459,-0.014181 0.000539833,-0.0210327 0.0710296,-0.159541 0.231775,-0.265328 0.408612,-0.265328 0.128003,0 0.249673,0.0552706 0.333783,0.149472 0.00643647,0.0072047 0.00857504,0.0162158 0.00610427,0.0254344 -0.00257459,0.00923945 -0.00901106,0.0159874 -0.0181259,0.018998 -0.0653198,0.0210327 -0.123933,0.057513 -0.171459,0.104935 -0.0775699,0.0775699 -0.125636,0.184851 -0.125636,0.303241 0,0.0378506 0.030812,0.0685588 0.0686626,0.0685588 0.0378506,0 0.0685588,-0.0307082 0.0685588,-0.0685588 0,-0.0805805 0.0326391,-0.153437 0.0854182,-0.206216 0.182609,-0.182484 0.485622,-0.0484604 0.496771,0.19272 -0.000539833,0.0035712 -0.00186865,0.00687249 -0.00186865,0.0106513l0 0.0827813c0,0.0343832 0.0246039,0.0622884 0.0549384,0.0622884l0.0303345 0c0.030376,0 0.0549384,-0.0279052 0.0549384,-0.0622884l0 -0.0827813 -0.000103814 -0.00112119z"
       id="path3597" /></g></svg>